  0
SECTION
  2
HEADER
  9
$ACADVER
  1
AC1006
  9
$INSBASE
 10
0.0
 20
0.0
 30
0.0
  9
$EXTMIN
 10
2.6027
 20
2.5543
  9
$EXTMAX
 10
154.1027
 20
19.168
  9
$LIMMIN
 10
0.0
 20
0.0
  9
$LIMMAX
 10
12.0
 20
9.0
  9
$ORTHOMODE
 70
     1
  9
$REGENMODE
 70
     1
  9
$FILLMODE
 70
     1
  9
$QTEXTMODE
 70
     0
  9
$MIRRTEXT
 70
     1
  9
$DRAGMODE
 70
     2
  9
$LTSCALE
 40
1.0
  9
$OSMODE
 70
     0
  9
$ATTMODE
 70
     1
  9
$TEXTSIZE
 40
0.2
  9
$TRACEWID
 40
0.05
  9
$TEXTSTYLE
  7
STANDARD
  9
$CLAYER
  8
CORNICE
  9
$CELTYPE
  6
BYLAYER
  9
$CECOLOR
 62
   256
  9
$DIMSCALE
 40
1.0
  9
$DIMASZ
 40
1.0
  9
$DIMEXO
 40
5.0
  9
$DIMDLI
 40
10.0
  9
$DIMRND
 40
0.0
  9
$DIMDLE
 40
0.0
  9
$DIMEXE
 40
2.0
  9
$DIMTP
 40
0.0
  9
$DIMTM
 40
0.0
  9
$DIMTXT
 40
2.54
  9
$DIMCEN
 40
1.0
  9
$DIMTSZ
 40
0.0
  9
$DIMTOL
 70
     0
  9
$DIMLIM
 70
     0
  9
$DIMTIH
 70
     0
  9
$DIMTOH
 70
     0
  9
$DIMSE1
 70
     0
  9
$DIMSE2
 70
     0
  9
$DIMTAD
 70
     1
  9
$DIMZIN
 70
     0
  9
$DIMBLK
  1
DOT15
  9
$DIMASO
 70
     0
  9
$DIMSHO
 70
     0
  9
$DIMPOST
  1

  9
$DIMAPOST
  1

  9
$DIMALT
 70
     0
  9
$DIMALTD
 70
     2
  9
$DIMALTF
 40
25.4
  9
$DIMLFAC
 40
0.1
  9
$DIMTOFL
 70
     0
  9
$DIMTVP
 40
0.0
  9
$DIMTIX
 70
     1
  9
$DIMSOXD
 70
     0
  9
$DIMSAH
 70
     0
  9
$DIMBLK1
  1

  9
$DIMBLK2
  1

  9
$LUNITS
 70
     2
  9
$LUPREC
 70
     2
  9
$AXISMODE
 70
     0
  9
$AXISUNIT
 10
0.0
 20
0.0
  9
$SKETCHINC
 40
0.1
  9
$FILLETRAD
 40
0.0
  9
$AUNITS
 70
     0
  9
$AUPREC
 70
     5
  9
$MENU
  1
acad
  9
$ELEVATION
 40
0.0
  9
$THICKNESS
 40
0.0
  9
$LIMCHECK
 70
     0
  9
$BLIPMODE
 70
     1
  9
$CHAMFERA
 40
0.0
  9
$CHAMFERB
 40
0.0
  9
$SKPOLY
 70
     0
  9
$TDCREATE
 40
2448602.7866893518
  9
$TDUPDATE
 40
2448602.7866893518
  9
$TDINDWG
 40
0.0000000000
  9
$TDUSRTIMER
 40
0.0000000000
  9
$USRTIMER
 70
     1
  9
$ANGBASE
 50
0.0
  9
$ANGDIR
 70
     0
  9
$PDMODE
 70
     0
  9
$PDSIZE
 40
0.0
  9
$PLINEWID
 40
0.0
  9
$COORDS
 70
     2
  9
$SPLFRAME
 70
     0
  9
$SPLINETYPE
 70
     6
  9
$SPLINESEGS
 70
     8
  9
$ATTDIA
 70
     0
  9
$ATTREQ
 70
     1
  9
$HANDLING
 70
     0
  9
$HANDSEED
  5
0
  9
$SURFTAB1
 70
     6
  9
$SURFTAB2
 70
     6
  9
$SURFTYPE
 70
     6
  9
$SURFU
 70
     6
  9
$SURFV
 70
     6
  9
$FLATLAND
 70
     0
  9
$UCSNAME
  2

  9
$UCSORG
 10
0.0
 20
0.0
 30
0.0
  9
$UCSXDIR
 10
1.0
 20
0.0
 30
0.0
  9
$UCSYDIR
 10
0.0
 20
1.0
 30
0.0
  9
$USERI1
 70
     0
  9
$USERI2
 70
     0
  9
$USERI3
 70
     0
  9
$USERI4
 70
     0
  9
$USERI5
 70
     0
  9
$USERR1
 40
0.0
  9
$USERR2
 40
0.0
  9
$USERR3
 40
0.0
  9
$USERR4
 40
0.0
  9
$USERR5
 40
0.0
  9
$WORLDVIEW
 70
     1
  0
ENDSEC
  0
SECTION
  2
TABLES
  0
TABLE
  2
VPORT
 70
     2
  0
VPORT
  2
*ACTIVE
 70
     0
 10
0.0
 20
0.0
 11
1.0
 21
1.0
 12
89.200235
 22
49.588907
 13
0.0
 23
0.0
 14
1.0
 24
1.0
 15
0.0
 25
0.0
 16
0.0
 26
0.0
 36
1.0
 17
0.0
 27
0.0
 37
0.0
 40
121.829499
 41
1.604229
 42
50.0
 43
0.0
 44
0.0
 50
0.0
 51
0.0
 71
     0
 72
   500
 73
     0
 74
     0
 75
     0
 76
     0
 77
     0
 78
     0
  0
ENDTAB
  0
TABLE
  2
LTYPE
 70
     1
  0
LTYPE
  2
CONTINUOUS
 70
    64
  3
Solid line
 72
    65
 73
     0
 40
0.0
  0
ENDTAB
  0
TABLE
  2
LAYER
 70
    23
  0
LAYER
  2
0
 70
     0
 62
     7
  6
CONTINUOUS
  0
LAYER
  2
CORNICE
 70
    64
 62
     7
  6
CONTINUOUS
  0
LAYER
  2
LEMNID
 70
    64
 62
     1
  6
CONTINUOUS
  0
LAYER
  2
LEMNIA
 70
    64
 62
     3
  6
CONTINUOUS
  0
LAYER
  2
ORARIE
 70
    64
 62
     4
  6
CONTINUOUS
  0
LAYER
  2
ORARIEFUSO
 70
    64
 62
     4
  6
CONTINUOUS
  0
LAYER
  2
MEZZORE
 70
    64
 62
     5
  6
CONTINUOUS
  0
LAYER
  2
DIURNEZOD
 70
    64
 62
     6
  6
CONTINUOUS
  0
LAYER
  2
DIURNEMNS
 70
    64
 62
     2
  6
CONTINUOUS
  0
LAYER
  2
SOLISTIZI
 70
    64
 62
     9
  6
CONTINUOUS
  0
LAYER
  2
EQUINOZIALE
 70
    64
 62
     7
  6
CONTINUOUS
  0
LAYER
  2
SUSTILARE
 70
    64
 62
     7
  6
CONTINUOUS
  0
LAYER
  2
MERIDIANA
 70
    64
 62
     7
  6
CONTINUOUS
  0
LAYER
  2
ORIZZONTE
 70
    64
 62
     7
  6
CONTINUOUS
  0
LAYER
  2
D_PARETE
 70
    64
 62
     7
  6
CONTINUOUS
  0
LAYER
  2
PIEDESTILO
 70
    64
 62
     7
  6
CONTINUOUS
  0
LAYER
  2
PIEDEGNOMON
 70
    64
 62
     7
  6
CONTINUOUS
  0
LAYER
  2
CROCEMEOR
 70
    64
 62
     7
  6
CONTINUOUS
  0
LAYER
  2
AZIMUT
 70
    64
 62
     7
  6
CONTINUOUS
  0
LAYER
  2
ALMUCANT
 70
    64
 62
     7
  6
CONTINUOUS
  0
LAYER
  2
MOTTO1
 70
    64
 62
     7
  6
CONTINUOUS
  0
LAYER
  2
MOTTO2
 70
    64
 62
     7
  6
CONTINUOUS
  0
LAYER
  2
ORE1
 70
    64
 62
     7
  6
CONTINUOUS
  0
LAYER
  2
ORE2
 70
    64
 62
     7
  6
CONTINUOUS
  0
ENDTAB
  0
TABLE
  2
STYLE
 70
     1
  0
STYLE
  2
STANDARD
 70
     0
 40
0.0
 41
1.0
 50
0.0
 71
     0
 42
0.2
  3
txt
  4

  0
ENDTAB
  0
TABLE
  2
VIEW
 70
     0
  0
ENDTAB
  0
TABLE
  2
UCS
 70
     0
  0
ENDTAB
  0
TABLE
  2
DWGMGR
 70
     0
  0
ENDTAB
  0
ENDSEC
  0
SECTION
  2
BLOCKS
  0
BLOCK
  8
CORNICE
  2
DOT
 70
     0
 10
0.0
 20
0.0
 30
0.0
  0
POLYLINE
  8
CORNICE
  6
BYBLOCK
 62
     0
 66
     1
 10
0.0
 20
0.0
 30
0.0
 70
     1
 40
0.5
 41
0.5
  0
VERTEX
  8
CORNICE
  6
BYBLOCK
 62
     0
 10
-0.25
 20
0.0
 30
0.0
 42
1.0
  0
VERTEX
  8
CORNICE
  6
BYBLOCK
 62
     0
 10
0.25
 20
0.0
 30
0.0
 42
1.0
  0
SEQEND
  8
CORNICE
  6
BYBLOCK
 62
     0
  0
LINE
  8
CORNICE
  6
BYBLOCK
 62
     0
 10
-0.5
 20
0.0
 30
0.0
 11
-1.0
 21
0.0
 31
0.0
  0
ENDBLK
  8
CORNICE
  6
BYBLOCK
 62
     0
  0
BLOCK
  8
CORNICE
  2
DOT15
 70
     0
 10
0.0
 20
0.0
 30
0.0
  0
LINE
  8
CORNICE
  6
BYBLOCK
 62
     0
 10
-0.5
 20
0.0
 30
0.0
 11
-1.0
 21
0.0
 31
0.0
  0
POLYLINE
  8
CORNICE
  6
BYBLOCK
 62
     0
 66
     1
 10
0.0
 20
0.0
 30
0.0
 70
     1
 40
0.75
 41
0.75
  0
VERTEX
  8
CORNICE
  6
BYBLOCK
 62
     0
 10
-0.375
 20
0.0
 30
0.0
 42
1.0
  0
VERTEX
  8
CORNICE
  6
BYBLOCK
 62
     0
 10
0.375
 20
0.0
 30
0.0
 42
1.0
  0
SEQEND
  8
CORNICE
  6
BYBLOCK
 62
     0
  0
ENDBLK
  8
CORNICE
  0
ENDSEC
  0
SECTION
  2
ENTITIES
  0
POLYLINE
  8
DIURNEZOD
 66
     1
  0
VERTEX
  8
DIURNEZOD
 10
0.000000
 20
 0.000000
  0
VERTEX
  8
DIURNEZOD
 10
0.000000
 20
 0.000000
  0
VERTEX
  8
DIURNEZOD
 10
0.000000
 20
 0.000000
  0
VERTEX
  8
DIURNEZOD
 10
0.000000
 20
 0.000000
  0
VERTEX
  8
DIURNEZOD
 10
0.000000
 20
 0.000000
  0
VERTEX
  8
DIURNEZOD
 10
0.000000
 20
 0.000000
  0
VERTEX
  8
DIURNEZOD
 10
0.000000
 20
 0.000000
  0
VERTEX
  8
DIURNEZOD
 10
0.000000
 20
 0.000000
  0
VERTEX
  8
DIURNEZOD
 10
0.000000
 20
 0.000000
  0
VERTEX
  8
DIURNEZOD
 10
0.000000
 20
 0.000000
  0
VERTEX
  8
DIURNEZOD
 10
0.000000
 20
 0.000000
  0
VERTEX
  8
DIURNEZOD
 10
0.000000
 20
 0.000000
  0
VERTEX
  8
DIURNEZOD
 10
0.000000
 20
 0.000000
  0
VERTEX
  8
DIURNEZOD
 10
0.000000
 20
 0.000000
  0
VERTEX
  8
DIURNEZOD
 10
0.000000
 20
 0.000000
  0
VERTEX
  8
DIURNEZOD
 10
0.000000
 20
 0.000000
  0
VERTEX
  8
DIURNEZOD
 10
0.000000
 20
 0.000000
  0
VERTEX
  8
-19.779368
 10
4.660690
 20
 4.074865
  0
VERTEX
  8
-19.779368
 10
4.660690
 20
 4.074865
  0
VERTEX
  8
-19.018928
 10
4.723032
 20
 3.826670
  0
VERTEX
  8
-19.018928
 10
4.723032
 20
 3.826670
  0
VERTEX
  8
-18.241210
 10
4.750113
 20
 3.571947
  0
VERTEX
  8
-18.241210
 10
4.750113
 20
 3.571947
  0
VERTEX
  8
-17.449770
 10
4.741250
 20
 3.312650
  0
VERTEX
  8
-17.449770
 10
4.741250
 20
 3.312650
  0
VERTEX
  8
-16.648165
 10
4.696099
 20
 3.050795
  0
VERTEX
  8
-16.648165
 10
4.696099
 20
 3.050795
  0
VERTEX
  8
-15.839923
 10
4.614660
 20
 2.788429
  0
VERTEX
  8
-15.839923
 10
4.614660
 20
 2.788429
  0
VERTEX
  8
-15.028527
 10
4.497269
 20
 2.527603
  0
VERTEX
  8
-15.028527
 10
4.497269
 20
 2.527603
  0
VERTEX
  8
-14.217386
 10
4.344597
 20
 2.270340
  0
VERTEX
  8
-14.217386
 10
4.344597
 20
 2.270340
  0
VERTEX
  8
-13.409821
 10
4.157631
 20
 2.018611
  0
VERTEX
  8
-13.409821
 10
4.157631
 20
 2.018611
  0
VERTEX
  8
-12.609039
 10
3.937664
 20
 1.774312
  0
VERTEX
  8
-12.609039
 10
3.937664
 20
 1.774312
  0
VERTEX
  8
-11.818119
 10
3.686275
 20
 1.539244
  0
VERTEX
  8
-11.818119
 10
3.686275
 20
 1.539244
  0
VERTEX
  8
-11.039992
 10
3.405306
 20
 1.315091
  0
VERTEX
  8
-11.039992
 10
3.405306
 20
 1.315091
  0
VERTEX
  8
-10.277425
 10
3.096844
 20
 1.103404
  0
VERTEX
  8
-10.277425
 10
3.096844
 20
 1.103404
  0
VERTEX
  8
-9.533009
 10
2.763194
 20
 0.905590
  0
VERTEX
  8
-9.533009
 10
2.763194
 20
 0.905590
  0
VERTEX
  8
-8.809141
 10
2.406850
 20
 0.722895
  0
VERTEX
  8
-8.809141
 10
2.406850
 20
 0.722895
  0
VERTEX
  8
-8.108020
 10
2.030474
 20
 0.556398
  0
VERTEX
  8
-8.108020
 10
2.030474
 20
 0.556398
  0
VERTEX
  8
-7.431632
 10
1.636864
 20
 0.407005
  0
VERTEX
  8
-7.431632
 10
1.636864
 20
 0.407005
  0
VERTEX
  8
-6.781744
 10
1.228930
 20
 0.275437
  0
VERTEX
  8
-6.781744
 10
1.228930
 20
 0.275437
  0
VERTEX
  8
-6.159901
 10
0.809660
 20
 0.162233
  0
VERTEX
  8
-6.159901
 10
0.809660
 20
 0.162233
  0
VERTEX
  8
-5.567420
 10
0.382099
 20
 0.067748
  0
VERTEX
  8
-5.567420
 10
0.382099
 20
 0.067748
  0
VERTEX
  8
-5.005386
 10
-0.050686
 20
 -0.007849
  0
VERTEX
  8
-5.005386
 10
-0.050686
 20
 -0.007849
  0
VERTEX
  8
-4.474659
 10
-0.485625
 20
 -0.064572
  0
VERTEX
  8
-4.474659
 10
-0.485625
 20
 -0.064572
  0
VERTEX
  8
-3.975867
 10
-0.919677
 20
 -0.102610
  0
VERTEX
  8
-3.975867
 10
-0.919677
 20
 -0.102610
  0
VERTEX
  8
-3.509417
 10
-1.349854
 20
 -0.122327
  0
VERTEX
  8
-3.509417
 10
-1.349854
 20
 -0.122327
  0
VERTEX
  8
-3.075495
 10
-1.773242
 20
 -0.124251
  0
VERTEX
  8
-3.075495
 10
-1.773242
 20
 -0.124251
  0
VERTEX
  8
-2.674078
 10
-2.187024
 20
 -0.109065
  0
VERTEX
  8
-2.674078
 10
-2.187024
 20
 -0.109065
  0
VERTEX
  8
-2.304935
 10
-2.588502
 20
 -0.077602
  0
VERTEX
  8
-2.304935
 10
-2.588502
 20
 -0.077602
  0
VERTEX
  8
-1.967644
 10
-2.975116
 20
 -0.030826
  0
VERTEX
  8
-1.967644
 10
-2.975116
 20
 -0.030826
  0
VERTEX
  8
-1.661601
 10
-3.344454
 20
 -0.078075
  0
VERTEX
  8
-1.661601
 10
-3.344454
 20
 -0.078075
  0
VERTEX
  8
-1.386028
 10
-3.694275
 20
 -0.234094
  0
VERTEX
  8
-1.386028
 10
-3.694275
 20
 -0.234094
  0
VERTEX
  8
-1.139991
 10
-4.022514
 20
 -0.375996
  0
VERTEX
  8
-1.139991
 10
-4.022514
 20
 -0.375996
  0
VERTEX
  8
-0.922412
 10
-4.327294
 20
 -0.505303
  0
VERTEX
  8
-0.922412
 10
-4.327294
 20
 -0.505303
  0
VERTEX
  8
-0.732085
 10
-4.606932
 20
 -0.623607
  0
VERTEX
  8
-0.732085
 10
-4.606932
 20
 -0.623607
  0
VERTEX
  8
-0.567687
 10
-4.859944
 20
 -0.732551
  0
VERTEX
  8
-0.567687
 10
-4.859944
 20
 -0.732551
  0
VERTEX
  8
-0.427800
 10
-5.085042
 20
 -0.833824
  0
VERTEX
  8
-0.427800
 10
-5.085042
 20
 -0.833824
  0
VERTEX
  8
-0.310920
 10
-5.281137
 20
 -0.929145
  0
VERTEX
  8
-0.310920
 10
-5.281137
 20
 -0.929145
  0
VERTEX
  8
-0.215479
 10
-5.447330
 20
 -1.020254
  0
VERTEX
  8
-0.215479
 10
-5.447330
 20
 -1.020254
  0
VERTEX
  8
-0.139857
 10
-5.582906
 20
 -1.108901
  0
VERTEX
  8
-0.139857
 10
-5.582906
 20
 -1.108901
  0
VERTEX
  8
-0.082398
 10
-5.687319
 20
 -1.196844
  0
VERTEX
  8
-0.082398
 10
-5.687319
 20
 -1.196844
  0
VERTEX
  8
-0.041425
 10
-5.760178
 20
 -1.285836
  0
VERTEX
  8
-0.041425
 10
-5.760178
 20
 -1.285836
  0
VERTEX
  8
-0.015257
 10
-5.801223
 20
 -1.377631
  0
VERTEX
  8
-0.015257
 10
-5.801223
 20
 -1.377631
  0
VERTEX
  8
-0.002219
 10
-5.810306
 20
 -1.473979
  0
VERTEX
  8
-0.002219
 10
-5.810306
 20
 -1.473979
  0
VERTEX
  8
-0.000657
 10
-5.787350
 20
 -1.576636
  0
VERTEX
  8
-0.000657
 10
-5.787350
 20
 -1.576636
  0
VERTEX
  8
-0.008949
 10
-5.732320
 20
 -1.687373
  0
VERTEX
  8
-0.008949
 10
-5.732320
 20
 -1.687373
  0
VERTEX
  8
-0.025517
 10
-5.645170
 20
 -1.807995
  0
VERTEX
  8
-0.025517
 10
-5.645170
 20
 -1.807995
  0
VERTEX
  8
-0.048834
 10
-5.525787
 20
 -1.940370
  0
VERTEX
  8
-0.048834
 10
-5.525787
 20
 -1.940370
  0
VERTEX
  8
-0.077430
 10
-5.373918
 20
 -2.086467
  0
VERTEX
  8
-0.077430
 10
-5.373918
 20
 -2.086467
  0
VERTEX
  8
-0.109899
 10
-5.189082
 20
 -2.248415
  0
VERTEX
  8
-0.109899
 10
-5.189082
 20
 -2.248415
  0
VERTEX
  8
-0.144902
 10
-4.970450
 20
 -2.428582
  0
VERTEX
  8
-0.144902
 10
-4.970450
 20
 -2.428582
  0
SEQEND
  8
DIURNEZOD
  0
POLYLINE
  8
DIURNEZOD
 66
     1
  0
VERTEX
  8
DIURNEZOD
 10
0.000000
 20
 0.000000
  0
VERTEX
  8
DIURNEZOD
 10
0.000000
 20
 0.000000
  0
VERTEX
  8
DIURNEZOD
 10
0.000000
 20
 0.000000
  0
VERTEX
  8
DIURNEZOD
 10
0.000000
 20
 0.000000
  0
VERTEX
  8
DIURNEZOD
 10
0.000000
 20
 0.000000
  0
VERTEX
  8
DIURNEZOD
 10
0.000000
 20
 0.000000
  0
VERTEX
  8
DIURNEZOD
 10
0.000000
 20
 0.000000
  0
VERTEX
  8
DIURNEZOD
 10
0.000000
 20
 0.000000
  0
VERTEX
  8
DIURNEZOD
 10
0.000000
 20
 0.000000
  0
VERTEX
  8
DIURNEZOD
 10
0.000000
 20
 0.000000
  0
VERTEX
  8
DIURNEZOD
 10
0.000000
 20
 0.000000
  0
VERTEX
  8
DIURNEZOD
 10
0.000000
 20
 0.000000
  0
VERTEX
  8
DIURNEZOD
 10
0.000000
 20
 0.000000
  0
VERTEX
  8
DIURNEZOD
 10
0.000000
 20
 0.000000
  0
VERTEX
  8
DIURNEZOD
 10
0.000000
 20
 0.000000
  0
VERTEX
  8
DIURNEZOD
 10
0.000000
 20
 0.000000
  0
VERTEX
  8
DIURNEZOD
 10
0.000000
 20
 0.000000
  0
VERTEX
  8
-19.779368
 10
-4.660690
 20
 4.074865
  0
VERTEX
  8
-19.779368
 10
-4.660690
 20
 4.074865
  0
VERTEX
  8
-19.018928
 10
-4.723032
 20
 3.826670
  0
VERTEX
  8
-19.018928
 10
-4.723032
 20
 3.826670
  0
VERTEX
  8
-18.241210
 10
-4.750113
 20
 3.571947
  0
VERTEX
  8
-18.241210
 10
-4.750113
 20
 3.571947
  0
VERTEX
  8
-17.449770
 10
-4.741250
 20
 3.312650
  0
VERTEX
  8
-17.449770
 10
-4.741250
 20
 3.312650
  0
VERTEX
  8
-16.648165
 10
-4.696099
 20
 3.050795
  0
VERTEX
  8
-16.648165
 10
-4.696099
 20
 3.050795
  0
VERTEX
  8
-15.839923
 10
-4.614660
 20
 2.788429
  0
VERTEX
  8
-15.839923
 10
-4.614660
 20
 2.788429
  0
VERTEX
  8
-15.028527
 10
-4.497269
 20
 2.527603
  0
VERTEX
  8
-15.028527
 10
-4.497269
 20
 2.527603
  0
VERTEX
  8
-14.217386
 10
-4.344597
 20
 2.270340
  0
VERTEX
  8
-14.217386
 10
-4.344597
 20
 2.270340
  0
VERTEX
  8
-13.409821
 10
-4.157631
 20
 2.018611
  0
VERTEX
  8
-13.409821
 10
-4.157631
 20
 2.018611
  0
VERTEX
  8
-12.609039
 10
-3.937664
 20
 1.774312
  0
VERTEX
  8
-12.609039
 10
-3.937664
 20
 1.774312
  0
VERTEX
  8
-11.818119
 10
-3.686275
 20
 1.539244
  0
VERTEX
  8
-11.818119
 10
-3.686275
 20
 1.539244
  0
VERTEX
  8
-11.039992
 10
-3.405306
 20
 1.315091
  0
VERTEX
  8
-11.039992
 10
-3.405306
 20
 1.315091
  0
VERTEX
  8
-10.277425
 10
-3.096844
 20
 1.103404
  0
VERTEX
  8
-10.277425
 10
-3.096844
 20
 1.103404
  0
VERTEX
  8
-9.533009
 10
-2.763194
 20
 0.905590
  0
VERTEX
  8
-9.533009
 10
-2.763194
 20
 0.905590
  0
VERTEX
  8
-8.809141
 10
-2.406850
 20
 0.722895
  0
VERTEX
  8
-8.809141
 10
-2.406850
 20
 0.722895
  0
VERTEX
  8
-8.108020
 10
-2.030474
 20
 0.556398
  0
VERTEX
  8
-8.108020
 10
-2.030474
 20
 0.556398
  0
VERTEX
  8
-7.431632
 10
-1.636864
 20
 0.407005
  0
VERTEX
  8
-7.431632
 10
-1.636864
 20
 0.407005
  0
VERTEX
  8
-6.781744
 10
-1.228930
 20
 0.275437
  0
VERTEX
  8
-6.781744
 10
-1.228930
 20
 0.275437
  0
VERTEX
  8
-6.159901
 10
-0.809660
 20
 0.162233
  0
VERTEX
  8
-6.159901
 10
-0.809660
 20
 0.162233
  0
VERTEX
  8
-5.567420
 10
-0.382099
 20
 0.067748
  0
VERTEX
  8
-5.567420
 10
-0.382099
 20
 0.067748
  0
VERTEX
  8
-5.005386
 10
0.050686
 20
 -0.007849
  0
VERTEX
  8
-5.005386
 10
0.050686
 20
 -0.007849
  0
VERTEX
  8
-4.474659
 10
0.485625
 20
 -0.064572
  0
VERTEX
  8
-4.474659
 10
0.485625
 20
 -0.064572
  0
VERTEX
  8
-3.975867
 10
0.919677
 20
 -0.102610
  0
VERTEX
  8
-3.975867
 10
0.919677
 20
 -0.102610
  0
VERTEX
  8
-3.509417
 10
1.349854
 20
 -0.122327
  0
VERTEX
  8
-3.509417
 10
1.349854
 20
 -0.122327
  0
VERTEX
  8
-3.075495
 10
1.773242
 20
 -0.124251
  0
VERTEX
  8
-3.075495
 10
1.773242
 20
 -0.124251
  0
VERTEX
  8
-2.674078
 10
2.187024
 20
 -0.109065
  0
VERTEX
  8
-2.674078
 10
2.187024
 20
 -0.109065
  0
VERTEX
  8
-2.304935
 10
2.588502
 20
 -0.077602
  0
VERTEX
  8
-2.304935
 10
2.588502
 20
 -0.077602
  0
VERTEX
  8
-1.967644
 10
2.975116
 20
 -0.030826
  0
VERTEX
  8
-1.967644
 10
2.975116
 20
 -0.030826
  0
VERTEX
  8
-1.661601
 10
3.344454
 20
 -0.078075
  0
VERTEX
  8
-1.661601
 10
3.344454
 20
 -0.078075
  0
VERTEX
  8
-1.386028
 10
3.694275
 20
 -0.234094
  0
VERTEX
  8
-1.386028
 10
3.694275
 20
 -0.234094
  0
VERTEX
  8
-1.139991
 10
4.022514
 20
 -0.375996
  0
VERTEX
  8
-1.139991
 10
4.022514
 20
 -0.375996
  0
VERTEX
  8
-0.922412
 10
4.327294
 20
 -0.505303
  0
VERTEX
  8
-0.922412
 10
4.327294
 20
 -0.505303
  0
VERTEX
  8
-0.732085
 10
4.606932
 20
 -0.623607
  0
VERTEX
  8
-0.732085
 10
4.606932
 20
 -0.623607
  0
VERTEX
  8
-0.567687
 10
4.859944
 20
 -0.732551
  0
VERTEX
  8
-0.567687
 10
4.859944
 20
 -0.732551
  0
VERTEX
  8
-0.427800
 10
5.085042
 20
 -0.833824
  0
VERTEX
  8
-0.427800
 10
5.085042
 20
 -0.833824
  0
VERTEX
  8
-0.310920
 10
5.281137
 20
 -0.929145
  0
VERTEX
  8
-0.310920
 10
5.281137
 20
 -0.929145
  0
VERTEX
  8
-0.215479
 10
5.447330
 20
 -1.020254
  0
VERTEX
  8
-0.215479
 10
5.447330
 20
 -1.020254
  0
VERTEX
  8
-0.139857
 10
5.582906
 20
 -1.108901
  0
VERTEX
  8
-0.139857
 10
5.582906
 20
 -1.108901
  0
VERTEX
  8
-0.082398
 10
5.687319
 20
 -1.196844
  0
VERTEX
  8
-0.082398
 10
5.687319
 20
 -1.196844
  0
VERTEX
  8
-0.041425
 10
5.760178
 20
 -1.285836
  0
VERTEX
  8
-0.041425
 10
5.760178
 20
 -1.285836
  0
VERTEX
  8
-0.015257
 10
5.801223
 20
 -1.377631
  0
VERTEX
  8
-0.015257
 10
5.801223
 20
 -1.377631
  0
VERTEX
  8
-0.002219
 10
5.810306
 20
 -1.473979
  0
VERTEX
  8
-0.002219
 10
5.810306
 20
 -1.473979
  0
VERTEX
  8
-0.000657
 10
5.787350
 20
 -1.576636
  0
VERTEX
  8
-0.000657
 10
5.787350
 20
 -1.576636
  0
VERTEX
  8
-0.008949
 10
5.732320
 20
 -1.687373
  0
VERTEX
  8
-0.008949
 10
5.732320
 20
 -1.687373
  0
VERTEX
  8
-0.025517
 10
5.645170
 20
 -1.807995
  0
VERTEX
  8
-0.025517
 10
5.645170
 20
 -1.807995
  0
VERTEX
  8
-0.048834
 10
5.525787
 20
 -1.940370
  0
VERTEX
  8
-0.048834
 10
5.525787
 20
 -1.940370
  0
VERTEX
  8
-0.077430
 10
5.373918
 20
 -2.086467
  0
VERTEX
  8
-0.077430
 10
5.373918
 20
 -2.086467
  0
VERTEX
  8
-0.109899
 10
5.189082
 20
 -2.248415
  0
VERTEX
  8
-0.109899
 10
5.189082
 20
 -2.248415
  0
VERTEX
  8
-0.144902
 10
4.970450
 20
 -2.428582
  0
VERTEX
  8
-0.144902
 10
4.970450
 20
 -2.428582
  0
SEQEND
  8
DIURNEZOD
  0
POLYLINE
  8
DIURNEZOD
 66
     1
  0
VERTEX
  8
DIURNEZOD
 10
0.000000
 20
 0.000000
  0
VERTEX
  8
DIURNEZOD
 10
0.000000
 20
 0.000000
  0
VERTEX
  8
DIURNEZOD
 10
0.000000
 20
 0.000000
  0
VERTEX
  8
DIURNEZOD
 10
0.000000
 20
 0.000000
  0
VERTEX
  8
DIURNEZOD
 10
0.000000
 20
 0.000000
  0
VERTEX
  8
DIURNEZOD
 10
0.000000
 20
 0.000000
  0
VERTEX
  8
DIURNEZOD
 10
0.000000
 20
 0.000000
  0
VERTEX
  8
DIURNEZOD
 10
0.000000
 20
 0.000000
  0
VERTEX
  8
DIURNEZOD
 10
0.000000
 20
 0.000000
  0
VERTEX
  8
DIURNEZOD
 10
0.000000
 20
 0.000000
  0
VERTEX
  8
DIURNEZOD
 10
0.000000
 20
 0.000000
  0
VERTEX
  8
DIURNEZOD
 10
0.000000
 20
 0.000000
  0
VERTEX
  8
-20.094516
 10
3.480154
 20
 5.169101
  0
VERTEX
  8
-20.094516
 10
3.480154
 20
 5.169101
  0
VERTEX
  8
-19.519991
 10
3.652431
 20
 4.953966
  0
VERTEX
  8
-19.519991
 10
3.652431
 20
 4.953966
  0
VERTEX
  8
-18.914597
 10
3.796584
 20
 4.725527
  0
VERTEX
  8
-18.914597
 10
3.796584
 20
 4.725527
  0
VERTEX
  8
-18.281459
 10
3.910908
 20
 4.485160
  0
VERTEX
  8
-18.281459
 10
3.910908
 20
 4.485160
  0
VERTEX
  8
-17.623802
 10
3.993924
 20
 4.234404
  0
VERTEX
  8
-17.623802
 10
3.993924
 20
 4.234404
  0
VERTEX
  8
-16.944938
 10
4.044409
 20
 3.974938
  0
VERTEX
  8
-16.944938
 10
4.044409
 20
 3.974938
  0
VERTEX
  8
-16.248235
 10
4.061421
 20
 3.708565
  0
VERTEX
  8
-16.248235
 10
4.061421
 20
 3.708565
  0
VERTEX
  8
-15.537096
 10
4.044313
 20
 3.437179
  0
VERTEX
  8
-15.537096
 10
4.044313
 20
 3.437179
  0
VERTEX
  8
-14.814936
 10
3.992745
 20
 3.162746
  0
VERTEX
  8
-14.814936
 10
3.992745
 20
 3.162746
  0
VERTEX
  8
-14.085159
 10
3.906696
 20
 2.887272
  0
VERTEX
  8
-14.085159
 10
3.906696
 20
 2.887272
  0
VERTEX
  8
-13.351132
 10
3.786457
 20
 2.612779
  0
VERTEX
  8
-13.351132
 10
3.786457
 20
 2.612779
  0
VERTEX
  8
-12.616166
 10
3.632636
 20
 2.341279
  0
VERTEX
  8
-12.616166
 10
3.632636
 20
 2.341279
  0
VERTEX
  8
-11.883491
 10
3.446149
 20
 2.074747
  0
VERTEX
  8
-11.883491
 10
3.446149
 20
 2.074747
  0
VERTEX
  8
-11.156239
 10
3.228205
 20
 1.815098
  0
VERTEX
  8
-11.156239
 10
3.228205
 20
 1.815098
  0
VERTEX
  8
-10.437420
 10
2.980297
 20
 1.564167
  0
VERTEX
  8
-10.437420
 10
2.980297
 20
 1.564167
  0
VERTEX
  8
-9.729908
 10
2.704182
 20
 1.323686
  0
VERTEX
  8
-9.729908
 10
2.704182
 20
 1.323686
  0
VERTEX
  8
-9.036422
 10
2.401862
 20
 1.095268
  0
VERTEX
  8
-9.036422
 10
2.401862
 20
 1.095268
  0
VERTEX
  8
-8.359510
 10
2.075559
 20
 0.880387
  0
VERTEX
  8
-8.359510
 10
2.075559
 20
 0.880387
  0
VERTEX
  8
-7.701537
 10
1.727698
 20
 0.680371
  0
VERTEX
  8
-7.701537
 10
1.727698
 20
 0.680371
  0
VERTEX
  8
-7.064671
 10
1.360872
 20
 0.496384
  0
VERTEX
  8
-7.064671
 10
1.360872
 20
 0.496384
  0
VERTEX
  8
-6.450875
 10
0.977824
 20
 0.329418
  0
VERTEX
  8
-6.450875
 10
0.977824
 20
 0.329418
  0
VERTEX
  8
-5.861896
 10
0.581413
 20
 0.180289
  0
VERTEX
  8
-5.861896
 10
0.581413
 20
 0.180289
  0
VERTEX
  8
-5.299263
 10
0.174591
 20
 0.049626
  0
VERTEX
  8
-5.299263
 10
0.174591
 20
 0.049626
  0
VERTEX
  8
-4.764278
 10
-0.239628
 20
 -0.062126
  0
VERTEX
  8
-4.764278
 10
-0.239628
 20
 -0.062126
  0
VERTEX
  8
-4.258014
 10
-0.658194
 20
 -0.154710
  0
VERTEX
  8
-4.258014
 10
-0.658194
 20
 -0.154710
  0
VERTEX
  8
-3.781318
 10
-1.078051
 20
 -0.228057
  0
VERTEX
  8
-3.781318
 10
-1.078051
 20
 -0.228057
  0
VERTEX
  8
-3.334808
 10
-1.496160
 20
 -0.282282
  0
VERTEX
  8
-3.334808
 10
-1.496160
 20
 -0.282282
  0
VERTEX
  8
-2.918879
 10
-1.909528
 20
 -0.317677
  0
VERTEX
  8
-2.918879
 10
-1.909528
 20
 -0.317677
  0
VERTEX
  8
-2.533706
 10
-2.315232
 20
 -0.334708
  0
VERTEX
  8
-2.533706
 10
-2.315232
 20
 -0.334708
  0
VERTEX
  8
-2.179251
 10
-2.710439
 20
 -0.334007
  0
VERTEX
  8
-2.179251
 10
-2.710439
 20
 -0.334007
  0
VERTEX
  8
-1.855273
 10
-3.092429
 20
 -0.316362
  0
VERTEX
  8
-1.855273
 10
-3.092429
 20
 -0.316362
  0
VERTEX
  8
-1.561334
 10
-3.458616
 20
 -0.282706
  0
VERTEX
  8
-1.561334
 10
-3.458616
 20
 -0.282706
  0
VERTEX
  8
-1.296814
 10
-3.806563
 20
 -0.234106
  0
VERTEX
  8
-1.296814
 10
-3.806563
 20
 -0.234106
  0
VERTEX
  8
-1.060919
 10
-4.133996
 20
 -0.171754
  0
VERTEX
  8
-1.060919
 10
-4.133996
 20
 -0.171754
  0
VERTEX
  8
-0.852700
 10
-4.438817
 20
 -0.096948
  0
VERTEX
  8
-0.852700
 10
-4.438817
 20
 -0.096948
  0
VERTEX
  8
-0.671059
 10
-4.719114
 20
 -0.011089
  0
VERTEX
  8
-0.671059
 10
-4.719114
 20
 -0.011089
  0
VERTEX
  8
-0.514773
 10
-4.973165
 20
 -0.119145
  0
VERTEX
  8
-0.514773
 10
-4.973165
 20
 -0.119145
  0
VERTEX
  8
-0.382503
 10
-5.199444
 20
 -0.245344
  0
VERTEX
  8
-0.382503
 10
-5.199444
 20
 -0.245344
  0
VERTEX
  8
-0.272812
 10
-5.396616
 20
 -0.363213
  0
VERTEX
  8
-0.272812
 10
-5.396616
 20
 -0.363213
  0
VERTEX
  8
-0.184182
 10
-5.563538
 20
 -0.474516
  0
VERTEX
  8
-0.184182
 10
-5.563538
 20
 -0.474516
  0
VERTEX
  8
-0.115032
 10
-5.699249
 20
 -0.581055
  0
VERTEX
  8
-0.115032
 10
-5.699249
 20
 -0.581055
  0
VERTEX
  8
-0.063727
 10
-5.802953
 20
 -0.684653
  0
VERTEX
  8
-0.063727
 10
-5.802953
 20
 -0.684653
  0
VERTEX
  8
-0.028605
 10
-5.874008
 20
 -0.787154
  0
VERTEX
  8
-0.028605
 10
-5.874008
 20
 -0.787154
  0
VERTEX
  8
-0.007982
 10
-5.911899
 20
 -0.890416
  0
VERTEX
  8
-0.007982
 10
-5.911899
 20
 -0.890416
  0
VERTEX
  8
-0.000174
 10
-5.916206
 20
 -0.996316
  0
VERTEX
  8
-0.000174
 10
-5.916206
 20
 -0.996316
  0
VERTEX
  8
-0.003507
 10
-5.886570
 20
 -1.106751
  0
VERTEX
  8
-0.003507
 10
-5.886570
 20
 -1.106751
  0
VERTEX
  8
-0.016331
 10
-5.822638
 20
 -1.223654
  0
VERTEX
  8
-0.016331
 10
-5.822638
 20
 -1.223654
  0
VERTEX
  8
-0.037031
 10
-5.724008
 20
 -1.349014
  0
VERTEX
  8
-0.037031
 10
-5.724008
 20
 -1.349014
  0
VERTEX
  8
-0.064039
 10
-5.590146
 20
 -1.484908
  0
VERTEX
  8
-0.064039
 10
-5.590146
 20
 -1.484908
  0
VERTEX
  8
-0.095837
 10
-5.420285
 20
 -1.633549
  0
VERTEX
  8
-0.095837
 10
-5.420285
 20
 -1.633549
  0
VERTEX
  8
-0.130963
 10
-5.213297
 20
 -1.797359
  0
VERTEX
  8
-0.130963
 10
-5.213297
 20
 -1.797359
  0
VERTEX
  8
-0.168013
 10
-4.967514
 20
 -1.979063
  0
VERTEX
  8
-0.168013
 10
-4.967514
 20
 -1.979063
  0
VERTEX
  8
-0.205634
 10
-4.680501
 20
 -2.181838
  0
VERTEX
  8
-0.205634
 10
-4.680501
 20
 -2.181838
  0
VERTEX
  8
-0.242510
 10
-4.348738
 20
 -2.409509
  0
VERTEX
  8
-0.242510
 10
-4.348738
 20
 -2.409509
  0
SEQEND
  8
DIURNEZOD
  0
POLYLINE
  8
DIURNEZOD
 66
     1
  0
VERTEX
  8
DIURNEZOD
 10
0.000000
 20
 0.000000
  0
VERTEX
  8
DIURNEZOD
 10
0.000000
 20
 0.000000
  0
VERTEX
  8
DIURNEZOD
 10
0.000000
 20
 0.000000
  0
VERTEX
  8
DIURNEZOD
 10
0.000000
 20
 0.000000
  0
VERTEX
  8
DIURNEZOD
 10
0.000000
 20
 0.000000
  0
VERTEX
  8
DIURNEZOD
 10
0.000000
 20
 0.000000
  0
VERTEX
  8
DIURNEZOD
 10
0.000000
 20
 0.000000
  0
VERTEX
  8
DIURNEZOD
 10
0.000000
 20
 0.000000
  0
VERTEX
  8
DIURNEZOD
 10
0.000000
 20
 0.000000
  0
VERTEX
  8
DIURNEZOD
 10
0.000000
 20
 0.000000
  0
VERTEX
  8
DIURNEZOD
 10
0.000000
 20
 0.000000
  0
VERTEX
  8
DIURNEZOD
 10
0.000000
 20
 0.000000
  0
VERTEX
  8
-20.094516
 10
-3.480154
 20
 5.169101
  0
VERTEX
  8
-20.094516
 10
-3.480154
 20
 5.169101
  0
VERTEX
  8
-19.519991
 10
-3.652431
 20
 4.953966
  0
VERTEX
  8
-19.519991
 10
-3.652431
 20
 4.953966
  0
VERTEX
  8
-18.914597
 10
-3.796584
 20
 4.725527
  0
VERTEX
  8
-18.914597
 10
-3.796584
 20
 4.725527
  0
VERTEX
  8
-18.281459
 10
-3.910908
 20
 4.485160
  0
VERTEX
  8
-18.281459
 10
-3.910908
 20
 4.485160
  0
VERTEX
  8
-17.623802
 10
-3.993924
 20
 4.234404
  0
VERTEX
  8
-17.623802
 10
-3.993924
 20
 4.234404
  0
VERTEX
  8
-16.944938
 10
-4.044409
 20
 3.974938
  0
VERTEX
  8
-16.944938
 10
-4.044409
 20
 3.974938
  0
VERTEX
  8
-16.248235
 10
-4.061421
 20
 3.708565
  0
VERTEX
  8
-16.248235
 10
-4.061421
 20
 3.708565
  0
VERTEX
  8
-15.537096
 10
-4.044313
 20
 3.437179
  0
VERTEX
  8
-15.537096
 10
-4.044313
 20
 3.437179
  0
VERTEX
  8
-14.814936
 10
-3.992745
 20
 3.162746
  0
VERTEX
  8
-14.814936
 10
-3.992745
 20
 3.162746
  0
VERTEX
  8
-14.085159
 10
-3.906696
 20
 2.887272
  0
VERTEX
  8
-14.085159
 10
-3.906696
 20
 2.887272
  0
VERTEX
  8
-13.351132
 10
-3.786457
 20
 2.612779
  0
VERTEX
  8
-13.351132
 10
-3.786457
 20
 2.612779
  0
VERTEX
  8
-12.616166
 10
-3.632636
 20
 2.341279
  0
VERTEX
  8
-12.616166
 10
-3.632636
 20
 2.341279
  0
VERTEX
  8
-11.883491
 10
-3.446149
 20
 2.074747
  0
VERTEX
  8
-11.883491
 10
-3.446149
 20
 2.074747
  0
VERTEX
  8
-11.156239
 10
-3.228205
 20
 1.815098
  0
VERTEX
  8
-11.156239
 10
-3.228205
 20
 1.815098
  0
VERTEX
  8
-10.437420
 10
-2.980297
 20
 1.564167
  0
VERTEX
  8
-10.437420
 10
-2.980297
 20
 1.564167
  0
VERTEX
  8
-9.729908
 10
-2.704182
 20
 1.323686
  0
VERTEX
  8
-9.729908
 10
-2.704182
 20
 1.323686
  0
VERTEX
  8
-9.036422
 10
-2.401862
 20
 1.095268
  0
VERTEX
  8
-9.036422
 10
-2.401862
 20
 1.095268
  0
VERTEX
  8
-8.359510
 10
-2.075559
 20
 0.880387
  0
VERTEX
  8
-8.359510
 10
-2.075559
 20
 0.880387
  0
VERTEX
  8
-7.701537
 10
-1.727698
 20
 0.680371
  0
VERTEX
  8
-7.701537
 10
-1.727698
 20
 0.680371
  0
VERTEX
  8
-7.064671
 10
-1.360872
 20
 0.496384
  0
VERTEX
  8
-7.064671
 10
-1.360872
 20
 0.496384
  0
VERTEX
  8
-6.450875
 10
-0.977824
 20
 0.329418
  0
VERTEX
  8
-6.450875
 10
-0.977824
 20
 0.329418
  0
VERTEX
  8
-5.861896
 10
-0.581413
 20
 0.180289
  0
VERTEX
  8
-5.861896
 10
-0.581413
 20
 0.180289
  0
VERTEX
  8
-5.299263
 10
-0.174591
 20
 0.049626
  0
VERTEX
  8
-5.299263
 10
-0.174591
 20
 0.049626
  0
VERTEX
  8
-4.764278
 10
0.239628
 20
 -0.062126
  0
VERTEX
  8
-4.764278
 10
0.239628
 20
 -0.062126
  0
VERTEX
  8
-4.258014
 10
0.658194
 20
 -0.154710
  0
VERTEX
  8
-4.258014
 10
0.658194
 20
 -0.154710
  0
VERTEX
  8
-3.781318
 10
1.078051
 20
 -0.228057
  0
VERTEX
  8
-3.781318
 10
1.078051
 20
 -0.228057
  0
VERTEX
  8
-3.334808
 10
1.496160
 20
 -0.282282
  0
VERTEX
  8
-3.334808
 10
1.496160
 20
 -0.282282
  0
VERTEX
  8
-2.918879
 10
1.909528
 20
 -0.317677
  0
VERTEX
  8
-2.918879
 10
1.909528
 20
 -0.317677
  0
VERTEX
  8
-2.533706
 10
2.315232
 20
 -0.334708
  0
VERTEX
  8
-2.533706
 10
2.315232
 20
 -0.334708
  0
VERTEX
  8
-2.179251
 10
2.710439
 20
 -0.334007
  0
VERTEX
  8
-2.179251
 10
2.710439
 20
 -0.334007
  0
VERTEX
  8
-1.855273
 10
3.092429
 20
 -0.316362
  0
VERTEX
  8
-1.855273
 10
3.092429
 20
 -0.316362
  0
VERTEX
  8
-1.561334
 10
3.458616
 20
 -0.282706
  0
VERTEX
  8
-1.561334
 10
3.458616
 20
 -0.282706
  0
VERTEX
  8
-1.296814
 10
3.806563
 20
 -0.234106
  0
VERTEX
  8
-1.296814
 10
3.806563
 20
 -0.234106
  0
VERTEX
  8
-1.060919
 10
4.133996
 20
 -0.171754
  0
VERTEX
  8
-1.060919
 10
4.133996
 20
 -0.171754
  0
VERTEX
  8
-0.852700
 10
4.438817
 20
 -0.096948
  0
VERTEX
  8
-0.852700
 10
4.438817
 20
 -0.096948
  0
VERTEX
  8
-0.671059
 10
4.719114
 20
 -0.011089
  0
VERTEX
  8
-0.671059
 10
4.719114
 20
 -0.011089
  0
VERTEX
  8
-0.514773
 10
4.973165
 20
 -0.119145
  0
VERTEX
  8
-0.514773
 10
4.973165
 20
 -0.119145
  0
VERTEX
  8
-0.382503
 10
5.199444
 20
 -0.245344
  0
VERTEX
  8
-0.382503
 10
5.199444
 20
 -0.245344
  0
VERTEX
  8
-0.272812
 10
5.396616
 20
 -0.363213
  0
VERTEX
  8
-0.272812
 10
5.396616
 20
 -0.363213
  0
VERTEX
  8
-0.184182
 10
5.563538
 20
 -0.474516
  0
VERTEX
  8
-0.184182
 10
5.563538
 20
 -0.474516
  0
VERTEX
  8
-0.115032
 10
5.699249
 20
 -0.581055
  0
VERTEX
  8
-0.115032
 10
5.699249
 20
 -0.581055
  0
VERTEX
  8
-0.063727
 10
5.802953
 20
 -0.684653
  0
VERTEX
  8
-0.063727
 10
5.802953
 20
 -0.684653
  0
VERTEX
  8
-0.028605
 10
5.874008
 20
 -0.787154
  0
VERTEX
  8
-0.028605
 10
5.874008
 20
 -0.787154
  0
VERTEX
  8
-0.007982
 10
5.911899
 20
 -0.890416
  0
VERTEX
  8
-0.007982
 10
5.911899
 20
 -0.890416
  0
VERTEX
  8
-0.000174
 10
5.916206
 20
 -0.996316
  0
VERTEX
  8
-0.000174
 10
5.916206
 20
 -0.996316
  0
VERTEX
  8
-0.003507
 10
5.886570
 20
 -1.106751
  0
VERTEX
  8
-0.003507
 10
5.886570
 20
 -1.106751
  0
VERTEX
  8
-0.016331
 10
5.822638
 20
 -1.223654
  0
VERTEX
  8
-0.016331
 10
5.822638
 20
 -1.223654
  0
VERTEX
  8
-0.037031
 10
5.724008
 20
 -1.349014
  0
VERTEX
  8
-0.037031
 10
5.724008
 20
 -1.349014
  0
VERTEX
  8
-0.064039
 10
5.590146
 20
 -1.484908
  0
VERTEX
  8
-0.064039
 10
5.590146
 20
 -1.484908
  0
VERTEX
  8
-0.095837
 10
5.420285
 20
 -1.633549
  0
VERTEX
  8
-0.095837
 10
5.420285
 20
 -1.633549
  0
VERTEX
  8
-0.130963
 10
5.213297
 20
 -1.797359
  0
VERTEX
  8
-0.130963
 10
5.213297
 20
 -1.797359
  0
VERTEX
  8
-0.168013
 10
4.967514
 20
 -1.979063
  0
VERTEX
  8
-0.168013
 10
4.967514
 20
 -1.979063
  0
VERTEX
  8
-0.205634
 10
4.680501
 20
 -2.181838
  0
VERTEX
  8
-0.205634
 10
4.680501
 20
 -2.181838
  0
VERTEX
  8
-0.242510
 10
4.348738
 20
 -2.409509
  0
VERTEX
  8
-0.242510
 10
4.348738
 20
 -2.409509
  0
SEQEND
  8
DIURNEZOD
  0
POLYLINE
  8
-15.364076
 66
     1
  0
VERTEX
  8
-15.364076
 10
0.000000
 20
 5.258069
  0
VERTEX
  8
-15.364076
 10
0.000000
 20
 5.258069
  0
VERTEX
  8
-15.343731
 10
0.227821
 20
 5.247229
  0
VERTEX
  8
-15.343731
 10
0.227821
 20
 5.247229
  0
VERTEX
  8
-15.282827
 10
0.453240
 20
 5.214773
  0
VERTEX
  8
-15.282827
 10
0.453240
 20
 5.214773
  0
VERTEX
  8
-15.181749
 10
0.673868
 20
 5.160883
  0
VERTEX
  8
-15.181749
 10
0.673868
 20
 5.160883
  0
VERTEX
  8
-15.041136
 10
0.887340
 20
 5.085869
  0
VERTEX
  8
-15.041136
 10
0.887340
 20
 5.085869
  0
VERTEX
  8
-14.861874
 10
1.091333
 20
 4.990168
  0
VERTEX
  8
-14.861874
 10
1.091333
 20
 4.990168
  0
VERTEX
  8
-14.645093
 10
1.283573
 20
 4.874345
  0
VERTEX
  8
-14.645093
 10
1.283573
 20
 4.874345
  0
VERTEX
  8
-14.392151
 10
1.461860
 20
 4.739099
  0
VERTEX
  8
-14.392151
 10
1.461860
 20
 4.739099
  0
VERTEX
  8
-14.104628
 10
1.624080
 20
 4.585263
  0
VERTEX
  8
-14.104628
 10
1.624080
 20
 4.585263
  0
VERTEX
  8
-13.784308
 10
1.768225
 20
 4.413807
  0
VERTEX
  8
-13.784308
 10
1.768225
 20
 4.413807
  0
VERTEX
  8
-13.433171
 10
1.892415
 20
 4.225833
  0
VERTEX
  8
-13.433171
 10
1.892415
 20
 4.225833
  0
VERTEX
  8
-13.053370
 10
1.994912
 20
 4.022580
  0
VERTEX
  8
-13.053370
 10
1.994912
 20
 4.022580
  0
VERTEX
  8
-12.647215
 10
2.074149
 20
 3.805413
  0
VERTEX
  8
-12.647215
 10
2.074149
 20
 3.805413
  0
VERTEX
  8
-12.217158
 10
2.128742
 20
 3.575818
  0
VERTEX
  8
-12.217158
 10
2.128742
 20
 3.575818
  0
VERTEX
  8
-11.765768
 10
2.157512
 20
 3.335393
  0
VERTEX
  8
-11.765768
 10
2.157512
 20
 3.335393
  0
VERTEX
  8
-11.295711
 10
2.159504
 20
 3.085837
  0
VERTEX
  8
-11.295711
 10
2.159504
 20
 3.085837
  0
VERTEX
  8
-10.809732
 10
2.133996
 20
 2.828933
  0
VERTEX
  8
-10.809732
 10
2.133996
 20
 2.828933
  0
VERTEX
  8
-10.310629
 10
2.080518
 20
 2.566535
  0
VERTEX
  8
-10.310629
 10
2.080518
 20
 2.566535
  0
VERTEX
  8
-9.801233
 10
1.998860
 20
 2.300550
  0
VERTEX
  8
-9.801233
 10
1.998860
 20
 2.300550
  0
VERTEX
  8
-9.284385
 10
1.889075
 20
 2.032917
  0
VERTEX
  8
-9.284385
 10
1.889075
 20
 2.032917
  0
VERTEX
  8
-8.762914
 10
1.751489
 20
 1.765589
  0
VERTEX
  8
-8.762914
 10
1.751489
 20
 1.765589
  0
VERTEX
  8
-8.239616
 10
1.586693
 20
 1.500515
  0
VERTEX
  8
-8.239616
 10
1.586693
 20
 1.500515
  0
VERTEX
  8
-7.717230
 10
1.395549
 20
 1.239615
  0
VERTEX
  8
-7.717230
 10
1.395549
 20
 1.239615
  0
VERTEX
  8
-7.198423
 10
1.179178
 20
 0.984760
  0
VERTEX
  8
-7.198423
 10
1.179178
 20
 0.984760
  0
VERTEX
  8
-6.685763
 10
0.938949
 20
 0.737758
  0
VERTEX
  8
-6.685763
 10
0.938949
 20
 0.737758
  0
VERTEX
  8
-6.181709
 10
0.676474
 20
 0.500329
  0
VERTEX
  8
-6.181709
 10
0.676474
 20
 0.500329
  0
VERTEX
  8
-5.688586
 10
0.393585
 20
 0.274090
  0
VERTEX
  8
-5.688586
 10
0.393585
 20
 0.274090
  0
VERTEX
  8
-5.208575
 10
0.092322
 20
 0.060539
  0
VERTEX
  8
-5.208575
 10
0.092322
 20
 0.060539
  0
VERTEX
  8
-4.743696
 10
-0.225091
 20
 -0.138962
  0
VERTEX
  8
-4.743696
 10
-0.225091
 20
 -0.138962
  0
VERTEX
  8
-4.295796
 10
-0.556264
 20
 -0.323196
  0
VERTEX
  8
-4.295796
 10
-0.556264
 20
 -0.323196
  0
VERTEX
  8
-3.866537
 10
-0.898665
 20
 -0.491108
  0
VERTEX
  8
-3.866537
 10
-0.898665
 20
 -0.491108
  0
VERTEX
  8
-3.457389
 10
-1.249647
 20
 -0.641810
  0
VERTEX
  8
-3.457389
 10
-1.249647
 20
 -0.641810
  0
VERTEX
  8
-3.069624
 10
-1.606470
 20
 -0.774590
  0
VERTEX
  8
-3.069624
 10
-1.606470
 20
 -0.774590
  0
VERTEX
  8
-2.704305
 10
-1.966328
 20
 -0.888917
  0
VERTEX
  8
-2.704305
 10
-1.966328
 20
 -0.888917
  0
VERTEX
  8
-2.362289
 10
-2.326377
 20
 -0.984443
  0
VERTEX
  8
-2.362289
 10
-2.326377
 20
 -0.984443
  0
VERTEX
  8
-2.044223
 10
-2.683756
 20
 -1.061008
  0
VERTEX
  8
-2.044223
 10
-2.683756
 20
 -1.061008
  0
VERTEX
  8
-1.750545
 10
-3.035618
 20
 -1.118634
  0
VERTEX
  8
-1.750545
 10
-3.035618
 20
 -1.118634
  0
VERTEX
  8
-1.481486
 10
-3.379152
 20
 -1.157529
  0
VERTEX
  8
-1.481486
 10
-3.379152
 20
 -1.157529
  0
VERTEX
  8
-1.237075
 10
-3.711604
 20
 -1.178074
  0
VERTEX
  8
-1.237075
 10
-3.711604
 20
 -1.178074
  0
VERTEX
  8
-1.017144
 10
-4.030304
 20
 -1.180826
  0
VERTEX
  8
-1.017144
 10
-4.030304
 20
 -1.180826
  0
VERTEX
  8
-0.821339
 10
-4.332679
 20
 -1.166503
  0
VERTEX
  8
-0.821339
 10
-4.332679
 20
 -1.166503
  0
VERTEX
  8
-0.649126
 10
-4.616278
 20
 -1.135980
  0
VERTEX
  8
-0.649126
 10
-4.616278
 20
 -1.135980
  0
VERTEX
  8
-0.499802
 10
-4.878780
 20
 -1.090275
  0
VERTEX
  8
-0.499802
 10
-4.878780
 20
 -1.090275
  0
VERTEX
  8
-0.372509
 10
-5.118009
 20
 -1.030541
  0
VERTEX
  8
-0.372509
 10
-5.118009
 20
 -1.030541
  0
VERTEX
  8
-0.266247
 10
-5.331944
 20
 -0.958053
  0
VERTEX
  8
-0.266247
 10
-5.331944
 20
 -0.958053
  0
VERTEX
  8
-0.179888
 10
-5.518718
 20
 -0.874197
  0
VERTEX
  8
-0.179888
 10
-5.518718
 20
 -0.874197
  0
VERTEX
  8
-0.112189
 10
-5.676620
 20
 -0.780456
  0
VERTEX
  8
-0.112189
 10
-5.676620
 20
 -0.780456
  0
VERTEX
  8
-0.061810
 10
-5.804089
 20
 -0.678399
  0
VERTEX
  8
-0.061810
 10
-5.804089
 20
 -0.678399
  0
VERTEX
  8
-0.027330
 10
-5.899699
 20
 -0.569675
  0
VERTEX
  8
-0.027330
 10
-5.899699
 20
 -0.569675
  0
VERTEX
  8
-0.007263
 10
-5.962142
 20
 -0.455998
  0
VERTEX
  8
-0.007263
 10
-5.962142
 20
 -0.455998
  0
VERTEX
  8
-0.000072
 10
-5.990192
 20
 -0.339142
  0
VERTEX
  8
-0.000072
 10
-5.990192
 20
 -0.339142
  0
VERTEX
  8
-0.004189
 10
-5.982670
 20
 -0.220945
  0
VERTEX
  8
-0.004189
 10
-5.982670
 20
 -0.220945
  0
VERTEX
  8
-0.018025
 10
-5.938377
 20
 -0.103300
  0
VERTEX
  8
-0.018025
 10
-5.938377
 20
 -0.103300
  0
VERTEX
  8
-0.039990
 10
-5.856025
 20
 -0.012406
  0
VERTEX
  8
-0.039990
 10
-5.856025
 20
 -0.012406
  0
VERTEX
  8
-0.068498
 10
-5.734126
 20
 -0.133663
  0
VERTEX
  8
-0.068498
 10
-5.734126
 20
 -0.133663
  0
VERTEX
  8
-0.101982
 10
-5.570850
 20
 -0.260610
  0
VERTEX
  8
-0.101982
 10
-5.570850
 20
 -0.260610
  0
VERTEX
  8
-0.138902
 10
-5.363833
 20
 -0.395675
  0
VERTEX
  8
-0.138902
 10
-5.363833
 20
 -0.395675
  0
VERTEX
  8
-0.177738
 10
-5.109904
 20
 -0.541539
  0
VERTEX
  8
-0.177738
 10
-5.109904
 20
 -0.541539
  0
VERTEX
  8
-0.216991
 10
-4.804708
 20
 -0.701266
  0
VERTEX
  8
-0.216991
 10
-4.804708
 20
 -0.701266
  0
VERTEX
  8
-0.255162
 10
-4.442168
 20
 -0.878488
  0
VERTEX
  8
-0.255162
 10
-4.442168
 20
 -0.878488
  0
VERTEX
  8
-0.290708
 10
-4.013712
 20
 -1.077692
  0
VERTEX
  8
-0.290708
 10
-4.013712
 20
 -1.077692
  0
VERTEX
  8
-0.321969
 10
-3.507159
 20
 -1.304659
  0
VERTEX
  8
-0.321969
 10
-3.507159
 20
 -1.304659
  0
VERTEX
  8
-0.347033
 10
-2.905113
 20
 -1.567116
  0
VERTEX
  8
-0.347033
 10
-2.905113
 20
 -1.567116
  0
VERTEX
  8
-0.363493
 10
-2.182723
 20
 -1.875732
  0
VERTEX
  8
-0.363493
 10
-2.182723
 20
 -1.875732
  0
VERTEX
  8
-0.368020
 10
-1.304772
 20
 -2.245532
  0
VERTEX
  8
-0.368020
 10
-1.304772
 20
 -2.245532
  0
VERTEX
  8
-0.355637
 10
-0.222616
 20
 -2.697741
  0
VERTEX
  8
-0.355637
 10
-0.222616
 20
 -2.697741
  0
SEQEND
  8
DIURNEZOD
  0
POLYLINE
  8
-15.364076
 66
     1
  0
VERTEX
  8
-15.364076
 10
0.000000
 20
 5.258069
  0
VERTEX
  8
-15.364076
 10
0.000000
 20
 5.258069
  0
VERTEX
  8
-15.343731
 10
-0.227821
 20
 5.247229
  0
VERTEX
  8
-15.343731
 10
-0.227821
 20
 5.247229
  0
VERTEX
  8
-15.282827
 10
-0.453240
 20
 5.214773
  0
VERTEX
  8
-15.282827
 10
-0.453240
 20
 5.214773
  0
VERTEX
  8
-15.181749
 10
-0.673868
 20
 5.160883
  0
VERTEX
  8
-15.181749
 10
-0.673868
 20
 5.160883
  0
VERTEX
  8
-15.041136
 10
-0.887340
 20
 5.085869
  0
VERTEX
  8
-15.041136
 10
-0.887340
 20
 5.085869
  0
VERTEX
  8
-14.861874
 10
-1.091333
 20
 4.990168
  0
VERTEX
  8
-14.861874
 10
-1.091333
 20
 4.990168
  0
VERTEX
  8
-14.645093
 10
-1.283573
 20
 4.874345
  0
VERTEX
  8
-14.645093
 10
-1.283573
 20
 4.874345
  0
VERTEX
  8
-14.392151
 10
-1.461860
 20
 4.739099
  0
VERTEX
  8
-14.392151
 10
-1.461860
 20
 4.739099
  0
VERTEX
  8
-14.104628
 10
-1.624080
 20
 4.585263
  0
VERTEX
  8
-14.104628
 10
-1.624080
 20
 4.585263
  0
VERTEX
  8
-13.784308
 10
-1.768225
 20
 4.413807
  0
VERTEX
  8
-13.784308
 10
-1.768225
 20
 4.413807
  0
VERTEX
  8
-13.433171
 10
-1.892415
 20
 4.225833
  0
VERTEX
  8
-13.433171
 10
-1.892415
 20
 4.225833
  0
VERTEX
  8
-13.053370
 10
-1.994912
 20
 4.022580
  0
VERTEX
  8
-13.053370
 10
-1.994912
 20
 4.022580
  0
VERTEX
  8
-12.647215
 10
-2.074149
 20
 3.805413
  0
VERTEX
  8
-12.647215
 10
-2.074149
 20
 3.805413
  0
VERTEX
  8
-12.217158
 10
-2.128742
 20
 3.575818
  0
VERTEX
  8
-12.217158
 10
-2.128742
 20
 3.575818
  0
VERTEX
  8
-11.765768
 10
-2.157512
 20
 3.335393
  0
VERTEX
  8
-11.765768
 10
-2.157512
 20
 3.335393
  0
VERTEX
  8
-11.295711
 10
-2.159504
 20
 3.085837
  0
VERTEX
  8
-11.295711
 10
-2.159504
 20
 3.085837
  0
VERTEX
  8
-10.809732
 10
-2.133996
 20
 2.828933
  0
VERTEX
  8
-10.809732
 10
-2.133996
 20
 2.828933
  0
VERTEX
  8
-10.310629
 10
-2.080518
 20
 2.566535
  0
VERTEX
  8
-10.310629
 10
-2.080518
 20
 2.566535
  0
VERTEX
  8
-9.801233
 10
-1.998860
 20
 2.300550
  0
VERTEX
  8
-9.801233
 10
-1.998860
 20
 2.300550
  0
VERTEX
  8
-9.284385
 10
-1.889075
 20
 2.032917
  0
VERTEX
  8
-9.284385
 10
-1.889075
 20
 2.032917
  0
VERTEX
  8
-8.762914
 10
-1.751489
 20
 1.765589
  0
VERTEX
  8
-8.762914
 10
-1.751489
 20
 1.765589
  0
VERTEX
  8
-8.239616
 10
-1.586693
 20
 1.500515
  0
VERTEX
  8
-8.239616
 10
-1.586693
 20
 1.500515
  0
VERTEX
  8
-7.717230
 10
-1.395549
 20
 1.239615
  0
VERTEX
  8
-7.717230
 10
-1.395549
 20
 1.239615
  0
VERTEX
  8
-7.198423
 10
-1.179178
 20
 0.984760
  0
VERTEX
  8
-7.198423
 10
-1.179178
 20
 0.984760
  0
VERTEX
  8
-6.685763
 10
-0.938949
 20
 0.737758
  0
VERTEX
  8
-6.685763
 10
-0.938949
 20
 0.737758
  0
VERTEX
  8
-6.181709
 10
-0.676474
 20
 0.500329
  0
VERTEX
  8
-6.181709
 10
-0.676474
 20
 0.500329
  0
VERTEX
  8
-5.688586
 10
-0.393585
 20
 0.274090
  0
VERTEX
  8
-5.688586
 10
-0.393585
 20
 0.274090
  0
VERTEX
  8
-5.208575
 10
-0.092322
 20
 0.060539
  0
VERTEX
  8
-5.208575
 10
-0.092322
 20
 0.060539
  0
VERTEX
  8
-4.743696
 10
0.225091
 20
 -0.138962
  0
VERTEX
  8
-4.743696
 10
0.225091
 20
 -0.138962
  0
VERTEX
  8
-4.295796
 10
0.556264
 20
 -0.323196
  0
VERTEX
  8
-4.295796
 10
0.556264
 20
 -0.323196
  0
VERTEX
  8
-3.866537
 10
0.898665
 20
 -0.491108
  0
VERTEX
  8
-3.866537
 10
0.898665
 20
 -0.491108
  0
VERTEX
  8
-3.457389
 10
1.249647
 20
 -0.641810
  0
VERTEX
  8
-3.457389
 10
1.249647
 20
 -0.641810
  0
VERTEX
  8
-3.069624
 10
1.606470
 20
 -0.774590
  0
VERTEX
  8
-3.069624
 10
1.606470
 20
 -0.774590
  0
VERTEX
  8
-2.704305
 10
1.966328
 20
 -0.888917
  0
VERTEX
  8
-2.704305
 10
1.966328
 20
 -0.888917
  0
VERTEX
  8
-2.362289
 10
2.326377
 20
 -0.984443
  0
VERTEX
  8
-2.362289
 10
2.326377
 20
 -0.984443
  0
VERTEX
  8
-2.044223
 10
2.683756
 20
 -1.061008
  0
VERTEX
  8
-2.044223
 10
2.683756
 20
 -1.061008
  0
VERTEX
  8
-1.750545
 10
3.035618
 20
 -1.118634
  0
VERTEX
  8
-1.750545
 10
3.035618
 20
 -1.118634
  0
VERTEX
  8
-1.481486
 10
3.379152
 20
 -1.157529
  0
VERTEX
  8
-1.481486
 10
3.379152
 20
 -1.157529
  0
VERTEX
  8
-1.237075
 10
3.711604
 20
 -1.178074
  0
VERTEX
  8
-1.237075
 10
3.711604
 20
 -1.178074
  0
VERTEX
  8
-1.017144
 10
4.030304
 20
 -1.180826
  0
VERTEX
  8
-1.017144
 10
4.030304
 20
 -1.180826
  0
VERTEX
  8
-0.821339
 10
4.332679
 20
 -1.166503
  0
VERTEX
  8
-0.821339
 10
4.332679
 20
 -1.166503
  0
VERTEX
  8
-0.649126
 10
4.616278
 20
 -1.135980
  0
VERTEX
  8
-0.649126
 10
4.616278
 20
 -1.135980
  0
VERTEX
  8
-0.499802
 10
4.878780
 20
 -1.090275
  0
VERTEX
  8
-0.499802
 10
4.878780
 20
 -1.090275
  0
VERTEX
  8
-0.372509
 10
5.118009
 20
 -1.030541
  0
VERTEX
  8
-0.372509
 10
5.118009
 20
 -1.030541
  0
VERTEX
  8
-0.266247
 10
5.331944
 20
 -0.958053
  0
VERTEX
  8
-0.266247
 10
5.331944
 20
 -0.958053
  0
VERTEX
  8
-0.179888
 10
5.518718
 20
 -0.874197
  0
VERTEX
  8
-0.179888
 10
5.518718
 20
 -0.874197
  0
VERTEX
  8
-0.112189
 10
5.676620
 20
 -0.780456
  0
VERTEX
  8
-0.112189
 10
5.676620
 20
 -0.780456
  0
VERTEX
  8
-0.061810
 10
5.804089
 20
 -0.678399
  0
VERTEX
  8
-0.061810
 10
5.804089
 20
 -0.678399
  0
VERTEX
  8
-0.027330
 10
5.899699
 20
 -0.569675
  0
VERTEX
  8
-0.027330
 10
5.899699
 20
 -0.569675
  0
VERTEX
  8
-0.007263
 10
5.962142
 20
 -0.455998
  0
VERTEX
  8
-0.007263
 10
5.962142
 20
 -0.455998
  0
VERTEX
  8
-0.000072
 10
5.990192
 20
 -0.339142
  0
VERTEX
  8
-0.000072
 10
5.990192
 20
 -0.339142
  0
VERTEX
  8
-0.004189
 10
5.982670
 20
 -0.220945
  0
VERTEX
  8
-0.004189
 10
5.982670
 20
 -0.220945
  0
VERTEX
  8
-0.018025
 10
5.938377
 20
 -0.103300
  0
VERTEX
  8
-0.018025
 10
5.938377
 20
 -0.103300
  0
VERTEX
  8
-0.039990
 10
5.856025
 20
 -0.012406
  0
VERTEX
  8
-0.039990
 10
5.856025
 20
 -0.012406
  0
VERTEX
  8
-0.068498
 10
5.734126
 20
 -0.133663
  0
VERTEX
  8
-0.068498
 10
5.734126
 20
 -0.133663
  0
VERTEX
  8
-0.101982
 10
5.570850
 20
 -0.260610
  0
VERTEX
  8
-0.101982
 10
5.570850
 20
 -0.260610
  0
VERTEX
  8
-0.138902
 10
5.363833
 20
 -0.395675
  0
VERTEX
  8
-0.138902
 10
5.363833
 20
 -0.395675
  0
VERTEX
  8
-0.177738
 10
5.109904
 20
 -0.541539
  0
VERTEX
  8
-0.177738
 10
5.109904
 20
 -0.541539
  0
VERTEX
  8
-0.216991
 10
4.804708
 20
 -0.701266
  0
VERTEX
  8
-0.216991
 10
4.804708
 20
 -0.701266
  0
VERTEX
  8
-0.255162
 10
4.442168
 20
 -0.878488
  0
VERTEX
  8
-0.255162
 10
4.442168
 20
 -0.878488
  0
VERTEX
  8
-0.290708
 10
4.013712
 20
 -1.077692
  0
VERTEX
  8
-0.290708
 10
4.013712
 20
 -1.077692
  0
VERTEX
  8
-0.321969
 10
3.507159
 20
 -1.304659
  0
VERTEX
  8
-0.321969
 10
3.507159
 20
 -1.304659
  0
VERTEX
  8
-0.347033
 10
2.905113
 20
 -1.567116
  0
VERTEX
  8
-0.347033
 10
2.905113
 20
 -1.567116
  0
VERTEX
  8
-0.363493
 10
2.182723
 20
 -1.875732
  0
VERTEX
  8
-0.363493
 10
2.182723
 20
 -1.875732
  0
VERTEX
  8
-0.368020
 10
1.304772
 20
 -2.245532
  0
VERTEX
  8
-0.368020
 10
1.304772
 20
 -2.245532
  0
VERTEX
  8
-0.355637
 10
0.222616
 20
 -2.697741
  0
VERTEX
  8
-0.355637
 10
0.222616
 20
 -2.697741
  0
SEQEND
  8
DIURNEZOD
  0
POLYLINE
  8
-6.285293
 66
     1
  0
VERTEX
  8
-6.285293
 10
0.000000
 20
 0.915250
  0
VERTEX
  8
-6.285293
 10
0.000000
 20
 0.915250
  0
VERTEX
  8
-6.274224
 10
0.032089
 20
 0.906825
  0
VERTEX
  8
-6.274224
 10
0.032089
 20
 0.906825
  0
VERTEX
  8
-6.241108
 10
0.062437
 20
 0.881626
  0
VERTEX
  8
-6.241108
 10
0.062437
 20
 0.881626
  0
VERTEX
  8
-6.186208
 10
0.089323
 20
 0.839881
  0
VERTEX
  8
-6.186208
 10
0.089323
 20
 0.839881
  0
VERTEX
  8
-6.109965
 10
0.111064
 20
 0.781968
  0
VERTEX
  8
-6.109965
 10
0.111064
 20
 0.781968
  0
VERTEX
  8
-6.012989
 10
0.126031
 20
 0.708410
  0
VERTEX
  8
-6.012989
 10
0.126031
 20
 0.708410
  0
VERTEX
  8
-5.896051
 10
0.132672
 20
 0.619875
  0
VERTEX
  8
-5.896051
 10
0.132672
 20
 0.619875
  0
VERTEX
  8
-5.760082
 10
0.129527
 20
 0.517168
  0
VERTEX
  8
-5.760082
 10
0.129527
 20
 0.517168
  0
VERTEX
  8
-5.606157
 10
0.115246
 20
 0.401225
  0
VERTEX
  8
-5.606157
 10
0.115246
 20
 0.401225
  0
VERTEX
  8
-5.435488
 10
0.088603
 20
 0.273106
  0
VERTEX
  8
-5.435488
 10
0.088603
 20
 0.273106
  0
VERTEX
  8
-5.249410
 10
0.048515
 20
 0.133985
  0
VERTEX
  8
-5.249410
 10
0.048515
 20
 0.133985
  0
VERTEX
  8
-5.049372
 10
-0.005948
 20
 -0.014860
  0
VERTEX
  8
-5.049372
 10
-0.005948
 20
 -0.014860
  0
VERTEX
  8
-4.836915
 10
-0.075546
 20
 -0.172056
  0
VERTEX
  8
-4.836915
 10
-0.075546
 20
 -0.172056
  0
VERTEX
  8
-4.613666
 10
-0.160860
 20
 -0.336152
  0
VERTEX
  8
-4.613666
 10
-0.160860
 20
 -0.336152
  0
VERTEX
  8
-4.381316
 10
-0.262283
 20
 -0.505627
  0
VERTEX
  8
-4.381316
 10
-0.262283
 20
 -0.505627
  0
VERTEX
  8
-4.141604
 10
-0.380013
 20
 -0.678908
  0
VERTEX
  8
-4.141604
 10
-0.380013
 20
 -0.678908
  0
VERTEX
  8
-3.896304
 10
-0.514044
 20
 -0.854386
  0
VERTEX
  8
-3.896304
 10
-0.514044
 20
 -0.854386
  0
VERTEX
  8
-3.647202
 10
-0.664164
 20
 -1.030425
  0
VERTEX
  8
-3.647202
 10
-0.664164
 20
 -1.030425
  0
VERTEX
  8
-3.396085
 10
-0.829957
 20
 -1.205388
  0
VERTEX
  8
-3.396085
 10
-0.829957
 20
 -1.205388
  0
VERTEX
  8
-3.144719
 10
-1.010798
 20
 -1.377644
  0
VERTEX
  8
-3.144719
 10
-1.010798
 20
 -1.377644
  0
VERTEX
  8
-2.894837
 10
-1.205860
 20
 -1.545592
  0
VERTEX
  8
-2.894837
 10
-1.205860
 20
 -1.545592
  0
VERTEX
  8
-2.648118
 10
-1.414120
 20
 -1.707671
  0
VERTEX
  8
-2.648118
 10
-1.414120
 20
 -1.707671
  0
VERTEX
  8
-2.406174
 10
-1.634363
 20
 -1.862380
  0
VERTEX
  8
-2.406174
 10
-1.634363
 20
 -1.862380
  0
VERTEX
  8
-2.170537
 10
-1.865196
 20
 -2.008294
  0
VERTEX
  8
-2.170537
 10
-1.865196
 20
 -2.008294
  0
VERTEX
  8
-1.942640
 10
-2.105055
 20
 -2.144073
  0
VERTEX
  8
-1.942640
 10
-2.105055
 20
 -2.144073
  0
VERTEX
  8
-1.723811
 10
-2.352225
 20
 -2.268483
  0
VERTEX
  8
-1.723811
 10
-2.352225
 20
 -2.268483
  0
VERTEX
  8
-1.515256
 10
-2.604849
 20
 -2.380403
  0
VERTEX
  8
-1.515256
 10
-2.604849
 20
 -2.380403
  0
VERTEX
  8
-1.318052
 10
-2.860947
 20
 -2.478838
  0
VERTEX
  8
-1.318052
 10
-2.860947
 20
 -2.478838
  0
VERTEX
  8
-1.133140
 10
-3.118436
 20
 -2.562929
  0
VERTEX
  8
-1.133140
 10
-3.118436
 20
 -2.562929
  0
VERTEX
  8
-0.961312
 10
-3.375145
 20
 -2.631961
  0
VERTEX
  8
-0.961312
 10
-3.375145
 20
 -2.631961
  0
VERTEX
  8
-0.803212
 10
-3.628835
 20
 -2.685371
  0
VERTEX
  8
-0.803212
 10
-3.628835
 20
 -2.685371
  0
VERTEX
  8
-0.659329
 10
-3.877220
 20
 -2.722749
  0
VERTEX
  8
-0.659329
 10
-3.877220
 20
 -2.722749
  0
VERTEX
  8
-0.529994
 10
-4.117987
 20
 -2.743845
  0
VERTEX
  8
-0.529994
 10
-4.117987
 20
 -2.743845
  0
VERTEX
  8
-0.415385
 10
-4.348808
 20
 -2.748566
  0
VERTEX
  8
-0.415385
 10
-4.348808
 20
 -2.748566
  0
VERTEX
  8
-0.315521
 10
-4.567364
 20
 -2.736982
  0
VERTEX
  8
-0.315521
 10
-4.567364
 20
 -2.736982
  0
VERTEX
  8
-0.230270
 10
-4.771359
 20
 -2.709316
  0
VERTEX
  8
-0.230270
 10
-4.771359
 20
 -2.709316
  0
VERTEX
  8
-0.159351
 10
-4.958529
 20
 -2.665944
  0
VERTEX
  8
-0.159351
 10
-4.958529
 20
 -2.665944
  0
VERTEX
  8
-0.102342
 10
-5.126659
 20
 -2.607389
  0
VERTEX
  8
-0.102342
 10
-5.126659
 20
 -2.607389
  0
VERTEX
  8
-0.058687
 10
-5.273581
 20
 -2.534312
  0
VERTEX
  8
-0.058687
 10
-5.273581
 20
 -2.534312
  0
VERTEX
  8
-0.027703
 10
-5.397182
 20
 -2.447504
  0
VERTEX
  8
-0.027703
 10
-5.397182
 20
 -2.447504
  0
VERTEX
  8
-0.008591
 10
-5.495393
 20
 -2.347877
  0
VERTEX
  8
-0.008591
 10
-5.495393
 20
 -2.347877
  0
VERTEX
  8
-0.000450
 10
-5.566180
 20
 -2.236448
  0
VERTEX
  8
-0.000450
 10
-5.566180
 20
 -2.236448
  0
VERTEX
  8
-0.002282
 10
-5.607516
 20
 -2.114334
  0
VERTEX
  8
-0.002282
 10
-5.607516
 20
 -2.114334
  0
VERTEX
  8
-0.013010
 10
-5.617343
 20
 -1.982733
  0
VERTEX
  8
-0.013010
 10
-5.617343
 20
 -1.982733
  0
VERTEX
  8
-0.031488
 10
-5.593516
 20
 -1.842914
  0
VERTEX
  8
-0.031488
 10
-5.593516
 20
 -1.842914
  0
VERTEX
  8
-0.056511
 10
-5.533719
 20
 -1.696206
  0
VERTEX
  8
-0.056511
 10
-5.533719
 20
 -1.696206
  0
VERTEX
  8
-0.086829
 10
-5.435349
 20
 -1.543981
  0
VERTEX
  8
-0.086829
 10
-5.435349
 20
 -1.543981
  0
VERTEX
  8
-0.121156
 10
-5.295350
 20
 -1.387652
  0
VERTEX
  8
-0.121156
 10
-5.295350
 20
 -1.387652
  0
VERTEX
  8
-0.158171
 10
-5.109976
 20
 -1.228661
  0
VERTEX
  8
-0.158171
 10
-5.109976
 20
 -1.228661
  0
VERTEX
  8
-0.196522
 10
-4.874450
 20
 -1.068483
  0
VERTEX
  8
-0.196522
 10
-4.874450
 20
 -1.068483
  0
VERTEX
  8
-0.234818
 10
-4.582478
 20
 -0.908636
  0
VERTEX
  8
-0.234818
 10
-4.582478
 20
 -0.908636
  0
VERTEX
  8
-0.271598
 10
-4.225527
 20
 -0.750709
  0
VERTEX
  8
-0.271598
 10
-4.225527
 20
 -0.750709
  0
VERTEX
  8
-0.305282
 10
-3.791764
 20
 -0.596421
  0
VERTEX
  8
-0.305282
 10
-3.791764
 20
 -0.596421
  0
VERTEX
  8
-0.334068
 10
-3.264482
 20
 -0.447732
  0
VERTEX
  8
-0.334068
 10
-3.264482
 20
 -0.447732
  0
VERTEX
  8
-0.355746
 10
-2.619773
 20
 -0.307053
  0
VERTEX
  8
-0.355746
 10
-2.619773
 20
 -0.307053
  0
VERTEX
  8
-0.367346
 10
-1.823225
 20
 -0.177626
  0
VERTEX
  8
-0.367346
 10
-1.823225
 20
 -0.177626
  0
VERTEX
  8
-0.364513
 10
-0.825641
 20
 -0.064217
  0
VERTEX
  8
-0.364513
 10
-0.825641
 20
 -0.064217
  0
VERTEX
  8
-0.340422
 10
0.441155
 20
 0.025693
  0
VERTEX
  8
-0.340422
 10
0.441155
 20
 0.025693
  0
VERTEX
  8
-0.284109
 10
2.064485
 20
 0.080065
  0
VERTEX
  8
-0.284109
 10
2.064485
 20
 0.080065
  0
VERTEX
  8
-0.178540
 10
4.138192
 20
 0.080189
  0
VERTEX
  8
-0.178540
 10
4.138192
 20
 0.080189
  0
VERTEX
  8
0.000000
 10
6.727922
 20
 -0.000000
  0
VERTEX
  8
0.000000
 10
6.727922
 20
 -0.000000
  0
VERTEX
  8
0.278665
 10
9.823075
 20
 -0.422840
  0
VERTEX
  8
0.278665
 10
9.823075
 20
 -0.422840
  0
VERTEX
  8
0.680606
 10
13.312848
 20
 -0.981339
  0
VERTEX
  8
0.680606
 10
13.312848
 20
 -0.981339
  0
VERTEX
  8
1.217575
 10
17.011683
 20
 -1.688458
  0
VERTEX
  8
1.217575
 10
17.011683
 20
 -1.688458
  0
VERTEX
  8
1.886841
 10
20.708790
 20
 -2.541217
  0
VERTEX
  8
1.886841
 10
20.708790
 20
 -2.541217
  0
VERTEX
  8
2.672060
 10
24.204315
 20
 -3.521662
  0
VERTEX
  8
2.672060
 10
24.204315
 20
 -3.521662
  0
SEQEND
  8
DIURNEZOD
  0
POLYLINE
  8
-6.285293
 66
     1
  0
VERTEX
  8
-6.285293
 10
0.000000
 20
 0.915250
  0
VERTEX
  8
-6.285293
 10
0.000000
 20
 0.915250
  0
VERTEX
  8
-6.274224
 10
-0.032089
 20
 0.906825
  0
VERTEX
  8
-6.274224
 10
-0.032089
 20
 0.906825
  0
VERTEX
  8
-6.241108
 10
-0.062437
 20
 0.881626
  0
VERTEX
  8
-6.241108
 10
-0.062437
 20
 0.881626
  0
VERTEX
  8
-6.186208
 10
-0.089323
 20
 0.839881
  0
VERTEX
  8
-6.186208
 10
-0.089323
 20
 0.839881
  0
VERTEX
  8
-6.109965
 10
-0.111064
 20
 0.781968
  0
VERTEX
  8
-6.109965
 10
-0.111064
 20
 0.781968
  0
VERTEX
  8
-6.012989
 10
-0.126031
 20
 0.708410
  0
VERTEX
  8
-6.012989
 10
-0.126031
 20
 0.708410
  0
VERTEX
  8
-5.896051
 10
-0.132672
 20
 0.619875
  0
VERTEX
  8
-5.896051
 10
-0.132672
 20
 0.619875
  0
VERTEX
  8
-5.760082
 10
-0.129527
 20
 0.517168
  0
VERTEX
  8
-5.760082
 10
-0.129527
 20
 0.517168
  0
VERTEX
  8
-5.606157
 10
-0.115246
 20
 0.401225
  0
VERTEX
  8
-5.606157
 10
-0.115246
 20
 0.401225
  0
VERTEX
  8
-5.435488
 10
-0.088603
 20
 0.273106
  0
VERTEX
  8
-5.435488
 10
-0.088603
 20
 0.273106
  0
VERTEX
  8
-5.249410
 10
-0.048515
 20
 0.133985
  0
VERTEX
  8
-5.249410
 10
-0.048515
 20
 0.133985
  0
VERTEX
  8
-5.049372
 10
0.005948
 20
 -0.014860
  0
VERTEX
  8
-5.049372
 10
0.005948
 20
 -0.014860
  0
VERTEX
  8
-4.836915
 10
0.075546
 20
 -0.172056
  0
VERTEX
  8
-4.836915
 10
0.075546
 20
 -0.172056
  0
VERTEX
  8
-4.613666
 10
0.160860
 20
 -0.336152
  0
VERTEX
  8
-4.613666
 10
0.160860
 20
 -0.336152
  0
VERTEX
  8
-4.381316
 10
0.262283
 20
 -0.505627
  0
VERTEX
  8
-4.381316
 10
0.262283
 20
 -0.505627
  0
VERTEX
  8
-4.141604
 10
0.380013
 20
 -0.678908
  0
VERTEX
  8
-4.141604
 10
0.380013
 20
 -0.678908
  0
VERTEX
  8
-3.896304
 10
0.514044
 20
 -0.854386
  0
VERTEX
  8
-3.896304
 10
0.514044
 20
 -0.854386
  0
VERTEX
  8
-3.647202
 10
0.664164
 20
 -1.030425
  0
VERTEX
  8
-3.647202
 10
0.664164
 20
 -1.030425
  0
VERTEX
  8
-3.396085
 10
0.829957
 20
 -1.205388
  0
VERTEX
  8
-3.396085
 10
0.829957
 20
 -1.205388
  0
VERTEX
  8
-3.144719
 10
1.010798
 20
 -1.377644
  0
VERTEX
  8
-3.144719
 10
1.010798
 20
 -1.377644
  0
VERTEX
  8
-2.894837
 10
1.205860
 20
 -1.545592
  0
VERTEX
  8
-2.894837
 10
1.205860
 20
 -1.545592
  0
VERTEX
  8
-2.648118
 10
1.414120
 20
 -1.707671
  0
VERTEX
  8
-2.648118
 10
1.414120
 20
 -1.707671
  0
VERTEX
  8
-2.406174
 10
1.634363
 20
 -1.862380
  0
VERTEX
  8
-2.406174
 10
1.634363
 20
 -1.862380
  0
VERTEX
  8
-2.170537
 10
1.865196
 20
 -2.008294
  0
VERTEX
  8
-2.170537
 10
1.865196
 20
 -2.008294
  0
VERTEX
  8
-1.942640
 10
2.105055
 20
 -2.144073
  0
VERTEX
  8
-1.942640
 10
2.105055
 20
 -2.144073
  0
VERTEX
  8
-1.723811
 10
2.352225
 20
 -2.268483
  0
VERTEX
  8
-1.723811
 10
2.352225
 20
 -2.268483
  0
VERTEX
  8
-1.515256
 10
2.604849
 20
 -2.380403
  0
VERTEX
  8
-1.515256
 10
2.604849
 20
 -2.380403
  0
VERTEX
  8
-1.318052
 10
2.860947
 20
 -2.478838
  0
VERTEX
  8
-1.318052
 10
2.860947
 20
 -2.478838
  0
VERTEX
  8
-1.133140
 10
3.118436
 20
 -2.562929
  0
VERTEX
  8
-1.133140
 10
3.118436
 20
 -2.562929
  0
VERTEX
  8
-0.961312
 10
3.375145
 20
 -2.631961
  0
VERTEX
  8
-0.961312
 10
3.375145
 20
 -2.631961
  0
VERTEX
  8
-0.803212
 10
3.628835
 20
 -2.685371
  0
VERTEX
  8
-0.803212
 10
3.628835
 20
 -2.685371
  0
VERTEX
  8
-0.659329
 10
3.877220
 20
 -2.722749
  0
VERTEX
  8
-0.659329
 10
3.877220
 20
 -2.722749
  0
VERTEX
  8
-0.529994
 10
4.117987
 20
 -2.743845
  0
VERTEX
  8
-0.529994
 10
4.117987
 20
 -2.743845
  0
VERTEX
  8
-0.415385
 10
4.348808
 20
 -2.748566
  0
VERTEX
  8
-0.415385
 10
4.348808
 20
 -2.748566
  0
VERTEX
  8
-0.315521
 10
4.567364
 20
 -2.736982
  0
VERTEX
  8
-0.315521
 10
4.567364
 20
 -2.736982
  0
VERTEX
  8
-0.230270
 10
4.771359
 20
 -2.709316
  0
VERTEX
  8
-0.230270
 10
4.771359
 20
 -2.709316
  0
VERTEX
  8
-0.159351
 10
4.958529
 20
 -2.665944
  0
VERTEX
  8
-0.159351
 10
4.958529
 20
 -2.665944
  0
VERTEX
  8
-0.102342
 10
5.126659
 20
 -2.607389
  0
VERTEX
  8
-0.102342
 10
5.126659
 20
 -2.607389
  0
VERTEX
  8
-0.058687
 10
5.273581
 20
 -2.534312
  0
VERTEX
  8
-0.058687
 10
5.273581
 20
 -2.534312
  0
VERTEX
  8
-0.027703
 10
5.397182
 20
 -2.447504
  0
VERTEX
  8
-0.027703
 10
5.397182
 20
 -2.447504
  0
VERTEX
  8
-0.008591
 10
5.495393
 20
 -2.347877
  0
VERTEX
  8
-0.008591
 10
5.495393
 20
 -2.347877
  0
VERTEX
  8
-0.000450
 10
5.566180
 20
 -2.236448
  0
VERTEX
  8
-0.000450
 10
5.566180
 20
 -2.236448
  0
VERTEX
  8
-0.002282
 10
5.607516
 20
 -2.114334
  0
VERTEX
  8
-0.002282
 10
5.607516
 20
 -2.114334
  0
VERTEX
  8
-0.013010
 10
5.617343
 20
 -1.982733
  0
VERTEX
  8
-0.013010
 10
5.617343
 20
 -1.982733
  0
VERTEX
  8
-0.031488
 10
5.593516
 20
 -1.842914
  0
VERTEX
  8
-0.031488
 10
5.593516
 20
 -1.842914
  0
VERTEX
  8
-0.056511
 10
5.533719
 20
 -1.696206
  0
VERTEX
  8
-0.056511
 10
5.533719
 20
 -1.696206
  0
VERTEX
  8
-0.086829
 10
5.435349
 20
 -1.543981
  0
VERTEX
  8
-0.086829
 10
5.435349
 20
 -1.543981
  0
VERTEX
  8
-0.121156
 10
5.295350
 20
 -1.387652
  0
VERTEX
  8
-0.121156
 10
5.295350
 20
 -1.387652
  0
VERTEX
  8
-0.158171
 10
5.109976
 20
 -1.228661
  0
VERTEX
  8
-0.158171
 10
5.109976
 20
 -1.228661
  0
VERTEX
  8
-0.196522
 10
4.874450
 20
 -1.068483
  0
VERTEX
  8
-0.196522
 10
4.874450
 20
 -1.068483
  0
VERTEX
  8
-0.234818
 10
4.582478
 20
 -0.908636
  0
VERTEX
  8
-0.234818
 10
4.582478
 20
 -0.908636
  0
VERTEX
  8
-0.271598
 10
4.225527
 20
 -0.750709
  0
VERTEX
  8
-0.271598
 10
4.225527
 20
 -0.750709
  0
VERTEX
  8
-0.305282
 10
3.791764
 20
 -0.596421
  0
VERTEX
  8
-0.305282
 10
3.791764
 20
 -0.596421
  0
VERTEX
  8
-0.334068
 10
3.264482
 20
 -0.447732
  0
VERTEX
  8
-0.334068
 10
3.264482
 20
 -0.447732
  0
VERTEX
  8
-0.355746
 10
2.619773
 20
 -0.307053
  0
VERTEX
  8
-0.355746
 10
2.619773
 20
 -0.307053
  0
VERTEX
  8
-0.367346
 10
1.823225
 20
 -0.177626
  0
VERTEX
  8
-0.367346
 10
1.823225
 20
 -0.177626
  0
VERTEX
  8
-0.364513
 10
0.825641
 20
 -0.064217
  0
VERTEX
  8
-0.364513
 10
0.825641
 20
 -0.064217
  0
VERTEX
  8
-0.340422
 10
-0.441155
 20
 0.025693
  0
VERTEX
  8
-0.340422
 10
-0.441155
 20
 0.025693
  0
VERTEX
  8
-0.284109
 10
-2.064485
 20
 0.080065
  0
VERTEX
  8
-0.284109
 10
-2.064485
 20
 0.080065
  0
VERTEX
  8
-0.178540
 10
-4.138192
 20
 0.080189
  0
VERTEX
  8
-0.178540
 10
-4.138192
 20
 0.080189
  0
VERTEX
  8
0.000000
 10
-6.727922
 20
 -0.000000
  0
VERTEX
  8
0.000000
 10
-6.727922
 20
 -0.000000
  0
VERTEX
  8
0.278665
 10
-9.823075
 20
 -0.422840
  0
VERTEX
  8
0.278665
 10
-9.823075
 20
 -0.422840
  0
VERTEX
  8
0.680606
 10
-13.312848
 20
 -0.981339
  0
VERTEX
  8
0.680606
 10
-13.312848
 20
 -0.981339
  0
VERTEX
  8
1.217575
 10
-17.011683
 20
 -1.688458
  0
VERTEX
  8
1.217575
 10
-17.011683
 20
 -1.688458
  0
VERTEX
  8
1.886841
 10
-20.708790
 20
 -2.541217
  0
VERTEX
  8
1.886841
 10
-20.708790
 20
 -2.541217
  0
VERTEX
  8
2.672060
 10
-24.204315
 20
 -3.521662
  0
VERTEX
  8
2.672060
 10
-24.204315
 20
 -3.521662
  0
SEQEND
  8
DIURNEZOD
  0
POLYLINE
  8
-1.319951
 66
     1
  0
VERTEX
  8
-1.319951
 10
0.000000
 20
 -3.782930
  0
VERTEX
  8
-1.319951
 10
0.000000
 20
 -3.782930
  0
VERTEX
  8
-1.316174
 10
-0.113065
 20
 -3.786263
  0
VERTEX
  8
-1.316174
 10
-0.113065
 20
 -3.786263
  0
VERTEX
  8
-1.304891
 10
-0.226844
 20
 -3.796205
  0
VERTEX
  8
-1.304891
 10
-0.226844
 20
 -3.796205
  0
VERTEX
  8
-1.286234
 10
-0.342034
 20
 -3.812591
  0
VERTEX
  8
-1.286234
 10
-0.342034
 20
 -3.812591
  0
VERTEX
  8
-1.260427
 10
-0.459307
 20
 -3.835147
  0
VERTEX
  8
-1.260427
 10
-0.459307
 20
 -3.835147
  0
VERTEX
  8
-1.227776
 10
-0.579294
 20
 -3.863493
  0
VERTEX
  8
-1.227776
 10
-0.579294
 20
 -3.863493
  0
VERTEX
  8
-1.188670
 10
-0.702570
 20
 -3.897149
  0
VERTEX
  8
-1.188670
 10
-0.702570
 20
 -3.897149
  0
VERTEX
  8
-1.143573
 10
-0.829646
 20
 -3.935538
  0
VERTEX
  8
-1.143573
 10
-0.829646
 20
 -3.935538
  0
VERTEX
  8
-1.093019
 10
-0.960952
 20
 -3.977994
  0
VERTEX
  8
-1.093019
 10
-0.960952
 20
 -3.977994
  0
VERTEX
  8
-1.037605
 10
-1.096831
 20
 -4.023770
  0
VERTEX
  8
-1.037605
 10
-1.096831
 20
 -4.023770
  0
VERTEX
  8
-0.977984
 10
-1.237528
 20
 -4.072043
  0
VERTEX
  8
-0.977984
 10
-1.237528
 20
 -4.072043
  0
VERTEX
  8
-0.914856
 10
-1.383179
 20
 -4.121929
  0
VERTEX
  8
-0.914856
 10
-1.383179
 20
 -4.121929
  0
VERTEX
  8
-0.848959
 10
-1.533809
 20
 -4.172485
  0
VERTEX
  8
-0.848959
 10
-1.533809
 20
 -4.172485
  0
VERTEX
  8
-0.781059
 10
-1.689319
 20
 -4.222728
  0
VERTEX
  8
-0.781059
 10
-1.689319
 20
 -4.222728
  0
VERTEX
  8
-0.711941
 10
-1.849487
 20
 -4.271641
  0
VERTEX
  8
-0.711941
 10
-1.849487
 20
 -4.271641
  0
VERTEX
  8
-0.642398
 10
-2.013963
 20
 -4.318187
  0
VERTEX
  8
-0.642398
 10
-2.013963
 20
 -4.318187
  0
VERTEX
  8
-0.573223
 10
-2.182268
 20
 -4.361317
  0
VERTEX
  8
-0.573223
 10
-2.182268
 20
 -4.361317
  0
VERTEX
  8
-0.505193
 10
-2.353791
 20
 -4.399987
  0
VERTEX
  8
-0.505193
 10
-2.353791
 20
 -4.399987
  0
VERTEX
  8
-0.439067
 10
-2.527795
 20
 -4.433167
  0
VERTEX
  8
-0.439067
 10
-2.527795
 20
 -4.433167
  0
VERTEX
  8
-0.375569
 10
-2.703415
 20
 -4.459854
  0
VERTEX
  8
-0.375569
 10
-2.703415
 20
 -4.459854
  0
VERTEX
  8
-0.315381
 10
-2.879667
 20
 -4.479080
  0
VERTEX
  8
-0.315381
 10
-2.879667
 20
 -4.479080
  0
VERTEX
  8
-0.259137
 10
-3.055447
 20
 -4.489929
  0
VERTEX
  8
-0.259137
 10
-3.055447
 20
 -4.489929
  0
VERTEX
  8
-0.207408
 10
-3.229545
 20
 -4.491540
  0
VERTEX
  8
-0.207408
 10
-3.229545
 20
 -4.491540
  0
VERTEX
  8
-0.160700
 10
-3.400643
 20
 -4.483122
  0
VERTEX
  8
-0.160700
 10
-3.400643
 20
 -4.483122
  0
VERTEX
  8
-0.119447
 10
-3.567331
 20
 -4.463958
  0
VERTEX
  8
-0.119447
 10
-3.567331
 20
 -4.463958
  0
VERTEX
  8
-0.084000
 10
-3.728110
 20
 -4.433414
  0
VERTEX
  8
-0.084000
 10
-3.728110
 20
 -4.433414
  0
VERTEX
  8
-0.054628
 10
-3.881402
 20
 -4.390946
  0
VERTEX
  8
-0.054628
 10
-3.881402
 20
 -4.390946
  0
VERTEX
  8
-0.031510
 10
-4.025553
 20
 -4.336099
  0
VERTEX
  8
-0.031510
 10
-4.025553
 20
 -4.336099
  0
VERTEX
  8
-0.014735
 10
-4.158846
 20
 -4.268514
  0
VERTEX
  8
-0.014735
 10
-4.158846
 20
 -4.268514
  0
VERTEX
  8
-0.004300
 10
-4.279499
 20
 -4.187926
  0
VERTEX
  8
-0.004300
 10
-4.279499
 20
 -4.187926
  0
VERTEX
  8
-0.000105
 10
-4.385667
 20
 -4.094161
  0
VERTEX
  8
-0.000105
 10
-4.385667
 20
 -4.094161
  0
VERTEX
  8
-0.001963
 10
-4.475441
 20
 -3.987134
  0
VERTEX
  8
-0.001963
 10
-4.475441
 20
 -3.987134
  0
VERTEX
  8
-0.009590
 10
-4.546837
 20
 -3.866837
  0
VERTEX
  8
-0.009590
 10
-4.546837
 20
 -3.866837
  0
VERTEX
  8
-0.022617
 10
-4.597778
 20
 -3.733331
  0
VERTEX
  8
-0.022617
 10
-4.597778
 20
 -3.733331
  0
VERTEX
  8
-0.040589
 10
-4.626073
 20
 -3.586731
  0
VERTEX
  8
-0.040589
 10
-4.626073
 20
 -3.586731
  0
VERTEX
  8
-0.062969
 10
-4.629366
 20
 -3.427183
  0
VERTEX
  8
-0.062969
 10
-4.629366
 20
 -3.427183
  0
VERTEX
  8
-0.089145
 10
-4.605078
 20
 -3.254839
  0
VERTEX
  8
-0.089145
 10
-4.605078
 20
 -3.254839
  0
VERTEX
  8
-0.118430
 10
-4.550320
 20
 -3.069821
  0
VERTEX
  8
-0.118430
 10
-4.550320
 20
 -3.069821
  0
VERTEX
  8
-0.150068
 10
-4.461755
 20
 -2.872176
  0
VERTEX
  8
-0.150068
 10
-4.461755
 20
 -2.872176
  0
VERTEX
  8
-0.183233
 10
-4.335419
 20
 -2.661815
  0
VERTEX
  8
-0.183233
 10
-4.335419
 20
 -2.661815
  0
VERTEX
  8
-0.217026
 10
-4.166446
 20
 -2.438434
  0
VERTEX
  8
-0.217026
 10
-4.166446
 20
 -2.438434
  0
VERTEX
  8
-0.250469
 10
-3.948681
 20
 -2.201402
  0
VERTEX
  8
-0.250469
 10
-3.948681
 20
 -2.201402
  0
VERTEX
  8
-0.282476
 10
-3.674113
 20
 -1.949610
  0
VERTEX
  8
-0.282476
 10
-3.674113
 20
 -1.949610
  0
VERTEX
  8
-0.311814
 10
-3.332037
 20
 -1.681268
  0
VERTEX
  8
-0.311814
 10
-3.332037
 20
 -1.681268
  0
VERTEX
  8
-0.337022
 10
-2.907828
 20
 -1.393620
  0
VERTEX
  8
-0.337022
 10
-2.907828
 20
 -1.393620
  0
VERTEX
  8
-0.356263
 10
-2.381142
 20
 -1.082557
  0
VERTEX
  8
-0.356263
 10
-2.381142
 20
 -1.082557
  0
VERTEX
  8
-0.367065
 10
-1.723351
 20
 -0.742144
  0
VERTEX
  8
-0.367065
 10
-1.723351
 20
 -0.742144
  0
VERTEX
  8
-0.365848
 10
-0.894139
 20
 -0.364110
  0
VERTEX
  8
-0.365848
 10
-0.894139
 20
 -0.364110
  0
VERTEX
  8
-0.347128
 10
0.162253
 20
 0.062358
  0
VERTEX
  8
-0.347128
 10
0.162253
 20
 0.062358
  0
VERTEX
  8
-0.302255
 10
1.518967
 20
 0.549744
  0
VERTEX
  8
-0.302255
 10
1.518967
 20
 0.549744
  0
VERTEX
  8
-0.217774
 10
3.261267
 20
 1.108679
  0
VERTEX
  8
-0.217774
 10
3.261267
 20
 1.108679
  0
VERTEX
  8
-0.074274
 10
5.466101
 20
 1.740353
  0
VERTEX
  8
-0.074274
 10
5.466101
 20
 1.740353
  0
VERTEX
  8
0.152462
 10
8.165460
 20
 2.426712
  0
VERTEX
  8
0.152462
 10
8.165460
 20
 2.426712
  0
VERTEX
  8
0.486604
 10
11.313273
 20
 3.126133
  0
VERTEX
  8
0.486604
 10
11.313273
 20
 3.126133
  0
VERTEX
  8
0.945506
 10
14.784376
 20
 3.781149
  0
VERTEX
  8
0.945506
 10
14.784376
 20
 3.781149
  0
VERTEX
  8
1.534923
 10
18.405523
 20
 4.333511
  0
VERTEX
  8
1.534923
 10
18.405523
 20
 4.333511
  0
VERTEX
  8
2.247803
 10
21.990692
 20
 4.736206
  0
VERTEX
  8
2.247803
 10
21.990692
 20
 4.736206
  0
VERTEX
  8
3.065270
 10
25.361807
 20
 4.958347
  0
VERTEX
  8
3.065270
 10
25.361807
 20
 4.958347
  0
VERTEX
  8
3.958085
 10
28.355646
 20
 4.985245
  0
VERTEX
  8
3.958085
 10
28.355646
 20
 4.985245
  0
VERTEX
  8
4.887865
 10
30.824015
 20
 4.816748
  0
VERTEX
  8
4.887865
 10
30.824015
 20
 4.816748
  0
VERTEX
  8
5.807971
 10
32.632065
 20
 4.465416
  0
VERTEX
  8
5.807971
 10
32.632065
 20
 4.465416
  0
VERTEX
  8
6.664198
 10
33.656796
 20
 3.955025
  0
VERTEX
  8
6.664198
 10
33.656796
 20
 3.955025
  0
VERTEX
  8
7.395373
 10
33.786148
 20
 3.319385
  0
VERTEX
  8
7.395373
 10
33.786148
 20
 3.319385
  0
VERTEX
  8
7.933938
 10
32.918770
 20
 2.601390
  0
VERTEX
  8
7.933938
 10
32.918770
 20
 2.601390
  0
VERTEX
  8
8.206572
 10
30.964155
 20
 1.852183
  0
VERTEX
  8
8.206572
 10
30.964155
 20
 1.852183
  0
VERTEX
  8
8.134855
 10
27.843098
 20
 1.130377
  0
VERTEX
  8
8.134855
 10
27.843098
 20
 1.130377
  0
SEQEND
  8
DIURNEZOD
  0
POLYLINE
  8
-1.319951
 66
     1
  0
VERTEX
  8
-1.319951
 10
0.000000
 20
 -3.782930
  0
VERTEX
  8
-1.319951
 10
0.000000
 20
 -3.782930
  0
VERTEX
  8
-1.316174
 10
0.113065
 20
 -3.786263
  0
VERTEX
  8
-1.316174
 10
0.113065
 20
 -3.786263
  0
VERTEX
  8
-1.304891
 10
0.226844
 20
 -3.796205
  0
VERTEX
  8
-1.304891
 10
0.226844
 20
 -3.796205
  0
VERTEX
  8
-1.286234
 10
0.342034
 20
 -3.812591
  0
VERTEX
  8
-1.286234
 10
0.342034
 20
 -3.812591
  0
VERTEX
  8
-1.260427
 10
0.459307
 20
 -3.835147
  0
VERTEX
  8
-1.260427
 10
0.459307
 20
 -3.835147
  0
VERTEX
  8
-1.227776
 10
0.579294
 20
 -3.863493
  0
VERTEX
  8
-1.227776
 10
0.579294
 20
 -3.863493
  0
VERTEX
  8
-1.188670
 10
0.702570
 20
 -3.897149
  0
VERTEX
  8
-1.188670
 10
0.702570
 20
 -3.897149
  0
VERTEX
  8
-1.143573
 10
0.829646
 20
 -3.935538
  0
VERTEX
  8
-1.143573
 10
0.829646
 20
 -3.935538
  0
VERTEX
  8
-1.093019
 10
0.960952
 20
 -3.977994
  0
VERTEX
  8
-1.093019
 10
0.960952
 20
 -3.977994
  0
VERTEX
  8
-1.037605
 10
1.096831
 20
 -4.023770
  0
VERTEX
  8
-1.037605
 10
1.096831
 20
 -4.023770
  0
VERTEX
  8
-0.977984
 10
1.237528
 20
 -4.072043
  0
VERTEX
  8
-0.977984
 10
1.237528
 20
 -4.072043
  0
VERTEX
  8
-0.914856
 10
1.383179
 20
 -4.121929
  0
VERTEX
  8
-0.914856
 10
1.383179
 20
 -4.121929
  0
VERTEX
  8
-0.848959
 10
1.533809
 20
 -4.172485
  0
VERTEX
  8
-0.848959
 10
1.533809
 20
 -4.172485
  0
VERTEX
  8
-0.781059
 10
1.689319
 20
 -4.222728
  0
VERTEX
  8
-0.781059
 10
1.689319
 20
 -4.222728
  0
VERTEX
  8
-0.711941
 10
1.849487
 20
 -4.271641
  0
VERTEX
  8
-0.711941
 10
1.849487
 20
 -4.271641
  0
VERTEX
  8
-0.642398
 10
2.013963
 20
 -4.318187
  0
VERTEX
  8
-0.642398
 10
2.013963
 20
 -4.318187
  0
VERTEX
  8
-0.573223
 10
2.182268
 20
 -4.361317
  0
VERTEX
  8
-0.573223
 10
2.182268
 20
 -4.361317
  0
VERTEX
  8
-0.505193
 10
2.353791
 20
 -4.399987
  0
VERTEX
  8
-0.505193
 10
2.353791
 20
 -4.399987
  0
VERTEX
  8
-0.439067
 10
2.527795
 20
 -4.433167
  0
VERTEX
  8
-0.439067
 10
2.527795
 20
 -4.433167
  0
VERTEX
  8
-0.375569
 10
2.703415
 20
 -4.459854
  0
VERTEX
  8
-0.375569
 10
2.703415
 20
 -4.459854
  0
VERTEX
  8
-0.315381
 10
2.879667
 20
 -4.479080
  0
VERTEX
  8
-0.315381
 10
2.879667
 20
 -4.479080
  0
VERTEX
  8
-0.259137
 10
3.055447
 20
 -4.489929
  0
VERTEX
  8
-0.259137
 10
3.055447
 20
 -4.489929
  0
VERTEX
  8
-0.207408
 10
3.229545
 20
 -4.491540
  0
VERTEX
  8
-0.207408
 10
3.229545
 20
 -4.491540
  0
VERTEX
  8
-0.160700
 10
3.400643
 20
 -4.483122
  0
VERTEX
  8
-0.160700
 10
3.400643
 20
 -4.483122
  0
VERTEX
  8
-0.119447
 10
3.567331
 20
 -4.463958
  0
VERTEX
  8
-0.119447
 10
3.567331
 20
 -4.463958
  0
VERTEX
  8
-0.084000
 10
3.728110
 20
 -4.433414
  0
VERTEX
  8
-0.084000
 10
3.728110
 20
 -4.433414
  0
VERTEX
  8
-0.054628
 10
3.881402
 20
 -4.390946
  0
VERTEX
  8
-0.054628
 10
3.881402
 20
 -4.390946
  0
VERTEX
  8
-0.031510
 10
4.025553
 20
 -4.336099
  0
VERTEX
  8
-0.031510
 10
4.025553
 20
 -4.336099
  0
VERTEX
  8
-0.014735
 10
4.158846
 20
 -4.268514
  0
VERTEX
  8
-0.014735
 10
4.158846
 20
 -4.268514
  0
VERTEX
  8
-0.004300
 10
4.279499
 20
 -4.187926
  0
VERTEX
  8
-0.004300
 10
4.279499
 20
 -4.187926
  0
VERTEX
  8
-0.000105
 10
4.385667
 20
 -4.094161
  0
VERTEX
  8
-0.000105
 10
4.385667
 20
 -4.094161
  0
VERTEX
  8
-0.001963
 10
4.475441
 20
 -3.987134
  0
VERTEX
  8
-0.001963
 10
4.475441
 20
 -3.987134
  0
VERTEX
  8
-0.009590
 10
4.546837
 20
 -3.866837
  0
VERTEX
  8
-0.009590
 10
4.546837
 20
 -3.866837
  0
VERTEX
  8
-0.022617
 10
4.597778
 20
 -3.733331
  0
VERTEX
  8
-0.022617
 10
4.597778
 20
 -3.733331
  0
VERTEX
  8
-0.040589
 10
4.626073
 20
 -3.586731
  0
VERTEX
  8
-0.040589
 10
4.626073
 20
 -3.586731
  0
VERTEX
  8
-0.062969
 10
4.629366
 20
 -3.427183
  0
VERTEX
  8
-0.062969
 10
4.629366
 20
 -3.427183
  0
VERTEX
  8
-0.089145
 10
4.605078
 20
 -3.254839
  0
VERTEX
  8
-0.089145
 10
4.605078
 20
 -3.254839
  0
VERTEX
  8
-0.118430
 10
4.550320
 20
 -3.069821
  0
VERTEX
  8
-0.118430
 10
4.550320
 20
 -3.069821
  0
VERTEX
  8
-0.150068
 10
4.461755
 20
 -2.872176
  0
VERTEX
  8
-0.150068
 10
4.461755
 20
 -2.872176
  0
VERTEX
  8
-0.183233
 10
4.335419
 20
 -2.661815
  0
VERTEX
  8
-0.183233
 10
4.335419
 20
 -2.661815
  0
VERTEX
  8
-0.217026
 10
4.166446
 20
 -2.438434
  0
VERTEX
  8
-0.217026
 10
4.166446
 20
 -2.438434
  0
VERTEX
  8
-0.250469
 10
3.948681
 20
 -2.201402
  0
VERTEX
  8
-0.250469
 10
3.948681
 20
 -2.201402
  0
VERTEX
  8
-0.282476
 10
3.674113
 20
 -1.949610
  0
VERTEX
  8
-0.282476
 10
3.674113
 20
 -1.949610
  0
VERTEX
  8
-0.311814
 10
3.332037
 20
 -1.681268
  0
VERTEX
  8
-0.311814
 10
3.332037
 20
 -1.681268
  0
VERTEX
  8
-0.337022
 10
2.907828
 20
 -1.393620
  0
VERTEX
  8
-0.337022
 10
2.907828
 20
 -1.393620
  0
VERTEX
  8
-0.356263
 10
2.381142
 20
 -1.082557
  0
VERTEX
  8
-0.356263
 10
2.381142
 20
 -1.082557
  0
VERTEX
  8
-0.367065
 10
1.723351
 20
 -0.742144
  0
VERTEX
  8
-0.367065
 10
1.723351
 20
 -0.742144
  0
VERTEX
  8
-0.365848
 10
0.894139
 20
 -0.364110
  0
VERTEX
  8
-0.365848
 10
0.894139
 20
 -0.364110
  0
VERTEX
  8
-0.347128
 10
-0.162253
 20
 0.062358
  0
VERTEX
  8
-0.347128
 10
-0.162253
 20
 0.062358
  0
VERTEX
  8
-0.302255
 10
-1.518967
 20
 0.549744
  0
VERTEX
  8
-0.302255
 10
-1.518967
 20
 0.549744
  0
VERTEX
  8
-0.217774
 10
-3.261267
 20
 1.108679
  0
VERTEX
  8
-0.217774
 10
-3.261267
 20
 1.108679
  0
VERTEX
  8
-0.074274
 10
-5.466101
 20
 1.740353
  0
VERTEX
  8
-0.074274
 10
-5.466101
 20
 1.740353
  0
VERTEX
  8
0.152462
 10
-8.165460
 20
 2.426712
  0
VERTEX
  8
0.152462
 10
-8.165460
 20
 2.426712
  0
VERTEX
  8
0.486604
 10
-11.313273
 20
 3.126133
  0
VERTEX
  8
0.486604
 10
-11.313273
 20
 3.126133
  0
VERTEX
  8
0.945506
 10
-14.784376
 20
 3.781149
  0
VERTEX
  8
0.945506
 10
-14.784376
 20
 3.781149
  0
VERTEX
  8
1.534923
 10
-18.405523
 20
 4.333511
  0
VERTEX
  8
1.534923
 10
-18.405523
 20
 4.333511
  0
VERTEX
  8
2.247803
 10
-21.990692
 20
 4.736206
  0
VERTEX
  8
2.247803
 10
-21.990692
 20
 4.736206
  0
VERTEX
  8
3.065270
 10
-25.361807
 20
 4.958347
  0
VERTEX
  8
3.065270
 10
-25.361807
 20
 4.958347
  0
VERTEX
  8
3.958085
 10
-28.355646
 20
 4.985245
  0
VERTEX
  8
3.958085
 10
-28.355646
 20
 4.985245
  0
VERTEX
  8
4.887865
 10
-30.824015
 20
 4.816748
  0
VERTEX
  8
4.887865
 10
-30.824015
 20
 4.816748
  0
VERTEX
  8
5.807971
 10
-32.632065
 20
 4.465416
  0
VERTEX
  8
5.807971
 10
-32.632065
 20
 4.465416
  0
VERTEX
  8
6.664198
 10
-33.656796
 20
 3.955025
  0
VERTEX
  8
6.664198
 10
-33.656796
 20
 3.955025
  0
VERTEX
  8
7.395373
 10
-33.786148
 20
 3.319385
  0
VERTEX
  8
7.395373
 10
-33.786148
 20
 3.319385
  0
VERTEX
  8
7.933938
 10
-32.918770
 20
 2.601390
  0
VERTEX
  8
7.933938
 10
-32.918770
 20
 2.601390
  0
VERTEX
  8
8.206572
 10
-30.964155
 20
 1.852183
  0
VERTEX
  8
8.206572
 10
-30.964155
 20
 1.852183
  0
VERTEX
  8
8.134855
 10
-27.843098
 20
 1.130377
  0
VERTEX
  8
8.134855
 10
-27.843098
 20
 1.130377
  0
SEQEND
  8
DIURNEZOD
  0
POLYLINE
  8
-0.095465
 66
     1
  0
VERTEX
  8
-0.095465
 10
0.000000
 20
 -5.766859
  0
VERTEX
  8
-0.095465
 10
0.000000
 20
 -5.766859
  0
VERTEX
  8
-0.094747
 10
-0.153314
 20
 -5.766421
  0
VERTEX
  8
-0.094747
 10
-0.153314
 20
 -5.766421
  0
VERTEX
  8
-0.092610
 10
-0.306689
 20
 -5.765074
  0
VERTEX
  8
-0.092610
 10
-0.306689
 20
 -5.765074
  0
VERTEX
  8
-0.089113
 10
-0.460175
 20
 -5.762714
  0
VERTEX
  8
-0.089113
 10
-0.460175
 20
 -5.762714
  0
VERTEX
  8
-0.084350
 10
-0.613806
 20
 -5.759169
  0
VERTEX
  8
-0.084350
 10
-0.613806
 20
 -5.759169
  0
VERTEX
  8
-0.078451
 10
-0.767590
 20
 -5.754203
  0
VERTEX
  8
-0.078451
 10
-0.767590
 20
 -5.754203
  0
VERTEX
  8
-0.071579
 10
-0.921499
 20
 -5.747517
  0
VERTEX
  8
-0.071579
 10
-0.921499
 20
 -5.747517
  0
VERTEX
  8
-0.063927
 10
-1.075463
 20
 -5.738752
  0
VERTEX
  8
-0.063927
 10
-1.075463
 20
 -5.738752
  0
VERTEX
  8
-0.055714
 10
-1.229362
 20
 -5.727496
  0
VERTEX
  8
-0.055714
 10
-1.229362
 20
 -5.727496
  0
VERTEX
  8
-0.047182
 10
-1.383021
 20
 -5.713288
  0
VERTEX
  8
-0.047182
 10
-1.383021
 20
 -5.713288
  0
VERTEX
  8
-0.038591
 10
-1.536199
 20
 -5.695623
  0
VERTEX
  8
-0.038591
 10
-1.536199
 20
 -5.695623
  0
VERTEX
  8
-0.030214
 10
-1.688591
 20
 -5.673959
  0
VERTEX
  8
-0.030214
 10
-1.688591
 20
 -5.673959
  0
VERTEX
  8
-0.022332
 10
-1.839816
 20
 -5.647721
  0
VERTEX
  8
-0.022332
 10
-1.839816
 20
 -5.647721
  0
VERTEX
  8
-0.015229
 10
-1.989417
 20
 -5.616313
  0
VERTEX
  8
-0.015229
 10
-1.989417
 20
 -5.616313
  0
VERTEX
  8
-0.009183
 10
-2.136856
 20
 -5.579121
  0
VERTEX
  8
-0.009183
 10
-2.136856
 20
 -5.579121
  0
VERTEX
  8
-0.004467
 10
-2.281514
 20
 -5.535518
  0
VERTEX
  8
-0.004467
 10
-2.281514
 20
 -5.535518
  0
VERTEX
  8
-0.001336
 10
-2.422686
 20
 -5.484875
  0
VERTEX
  8
-0.001336
 10
-2.422686
 20
 -5.484875
  0
VERTEX
  8
-0.000026
 10
-2.559580
 20
 -5.426566
  0
VERTEX
  8
-0.000026
 10
-2.559580
 20
 -5.426566
  0
VERTEX
  8
-0.000748
 10
-2.691316
 20
 -5.359971
  0
VERTEX
  8
-0.000748
 10
-2.691316
 20
 -5.359971
  0
VERTEX
  8
-0.003682
 10
-2.816926
 20
 -5.284483
  0
VERTEX
  8
-0.003682
 10
-2.816926
 20
 -5.284483
  0
VERTEX
  8
-0.008972
 10
-2.935348
 20
 -5.199511
  0
VERTEX
  8
-0.008972
 10
-2.935348
 20
 -5.199511
  0
VERTEX
  8
-0.016721
 10
-3.045428
 20
 -5.104482
  0
VERTEX
  8
-0.016721
 10
-3.045428
 20
 -5.104482
  0
VERTEX
  8
-0.026989
 10
-3.145912
 20
 -4.998841
  0
VERTEX
  8
-0.026989
 10
-3.145912
 20
 -4.998841
  0
VERTEX
  8
-0.039790
 10
-3.235443
 20
 -4.882051
  0
VERTEX
  8
-0.039790
 10
-3.235443
 20
 -4.882051
  0
VERTEX
  8
-0.055083
 10
-3.312549
 20
 -4.753583
  0
VERTEX
  8
-0.055083
 10
-3.312549
 20
 -4.753583
  0
VERTEX
  8
-0.072779
 10
-3.375627
 20
 -4.612914
  0
VERTEX
  8
-0.072779
 10
-3.375627
 20
 -4.612914
  0
VERTEX
  8
-0.092731
 10
-3.422927
 20
 -4.459508
  0
VERTEX
  8
-0.092731
 10
-3.422927
 20
 -4.459508
  0
VERTEX
  8
-0.114736
 10
-3.452516
 20
 -4.292800
  0
VERTEX
  8
-0.114736
 10
-3.452516
 20
 -4.292800
  0
VERTEX
  8
-0.138531
 10
-3.462239
 20
 -4.112168
  0
VERTEX
  8
-0.138531
 10
-3.462239
 20
 -4.112168
  0
VERTEX
  8
-0.163796
 10
-3.449657
 20
 -3.916897
  0
VERTEX
  8
-0.163796
 10
-3.449657
 20
 -3.916897
  0
VERTEX
  8
-0.190147
 10
-3.411960
 20
 -3.706125
  0
VERTEX
  8
-0.190147
 10
-3.411960
 20
 -3.706125
  0
VERTEX
  8
-0.217134
 10
-3.345847
 20
 -3.478779
  0
VERTEX
  8
-0.217134
 10
-3.345847
 20
 -3.478779
  0
VERTEX
  8
-0.244235
 10
-3.247356
 20
 -3.233474
  0
VERTEX
  8
-0.244235
 10
-3.247356
 20
 -3.233474
  0
VERTEX
  8
-0.270849
 10
-3.111622
 20
 -2.968387
  0
VERTEX
  8
-0.270849
 10
-3.111622
 20
 -2.968387
  0
VERTEX
  8
-0.296271
 10
-2.932533
 20
 -2.681077
  0
VERTEX
  8
-0.296271
 10
-2.932533
 20
 -2.681077
  0
VERTEX
  8
-0.319670
 10
-2.702237
 20
 -2.368239
  0
VERTEX
  8
-0.319670
 10
-2.702237
 20
 -2.368239
  0
VERTEX
  8
-0.340030
 10
-2.410439
 20
 -2.025357
  0
VERTEX
  8
-0.340030
 10
-2.410439
 20
 -2.025357
  0
VERTEX
  8
-0.356069
 10
-2.043396
 20
 -1.646247
  0
VERTEX
  8
-0.356069
 10
-2.043396
 20
 -1.646247
  0
VERTEX
  8
-0.366082
 10
-1.582517
 20
 -1.222438
  0
VERTEX
  8
-0.366082
 10
-1.582517
 20
 -1.222438
  0
VERTEX
  8
-0.367700
 10
-1.002485
 20
 -0.742433
  0
VERTEX
  8
-0.367700
 10
-1.002485
 20
 -0.742433
  0
VERTEX
  8
-0.357466
 10
-0.268999
 20
 -0.190968
  0
VERTEX
  8
-0.357466
 10
-0.268999
 20
 -0.190968
  0
VERTEX
  8
-0.330178
 10
0.663282
 20
 0.451267
  0
VERTEX
  8
-0.330178
 10
0.663282
 20
 0.451267
  0
VERTEX
  8
-0.277959
 10
1.850889
 20
 1.206419
  0
VERTEX
  8
-0.277959
 10
1.850889
 20
 1.206419
  0
VERTEX
  8
-0.189207
 10
3.356429
 20
 2.095059
  0
VERTEX
  8
-0.189207
 10
3.356429
 20
 2.095059
  0
VERTEX
  8
-0.048069
 10
5.234441
 20
 3.127295
  0
VERTEX
  8
-0.048069
 10
5.234441
 20
 3.127295
  0
VERTEX
  8
0.164505
 10
7.509213
 20
 4.291493
  0
VERTEX
  8
0.164505
 10
7.509213
 20
 4.291493
  0
VERTEX
  8
0.467534
 10
10.155506
 20
 5.547799
  0
VERTEX
  8
0.467534
 10
10.155506
 20
 5.547799
  0
VERTEX
  8
0.875682
 10
13.096013
 20
 6.832875
  0
VERTEX
  8
0.875682
 10
13.096013
 20
 6.832875
  0
VERTEX
  8
1.395898
 10
16.216328
 20
 8.073250
  0
VERTEX
  8
1.395898
 10
16.216328
 20
 8.073250
  0
VERTEX
  8
2.026038
 10
19.384813
 20
 9.198482
  0
VERTEX
  8
2.026038
 10
19.384813
 20
 9.198482
  0
VERTEX
  8
2.754944
 10
22.466698
 20
 10.148789
  0
VERTEX
  8
2.754944
 10
22.466698
 20
 10.148789
  0
VERTEX
  8
3.563030
 10
25.330629
 20
 10.877526
  0
VERTEX
  8
3.563030
 10
25.330629
 20
 10.877526
  0
VERTEX
  8
4.422844
 10
27.850510
 20
 11.350979
  0
VERTEX
  8
4.422844
 10
27.850510
 20
 11.350979
  0
VERTEX
  8
5.299477
 10
29.905432
 20
 11.547291
  0
VERTEX
  8
5.299477
 10
29.905432
 20
 11.547291
  0
VERTEX
  8
6.150841
 10
31.379215
 20
 11.455380
  0
VERTEX
  8
6.150841
 10
31.379215
 20
 11.455380
  0
VERTEX
  8
6.927884
 10
32.160133
 20
 11.074074
  0
VERTEX
  8
6.927884
 10
32.160133
 20
 11.074074
  0
VERTEX
  8
7.574801
 10
32.141003
 20
 10.411491
  0
VERTEX
  8
7.574801
 10
32.141003
 20
 10.411491
  0
VERTEX
  8
8.029274
 10
31.219526
 20
 9.484560
  0
VERTEX
  8
8.029274
 10
31.219526
 20
 9.484560
  0
VERTEX
  8
8.222759
 10
29.298941
 20
 8.318655
  0
VERTEX
  8
8.222759
 10
29.298941
 20
 8.318655
  0
VERTEX
  8
8.080844
 10
26.288765
 20
 6.947251
  0
VERTEX
  8
8.080844
 10
26.288765
 20
 6.947251
  0
VERTEX
  8
7.523670
 10
22.105680
 20
 5.411585
  0
VERTEX
  8
7.523670
 10
22.105680
 20
 5.411585
  0
VERTEX
  8
6.466428
 10
16.674463
 20
 3.760280
  0
VERTEX
  8
6.466428
 10
16.674463
 20
 3.760280
  0
VERTEX
  8
4.819936
 10
9.928939
 20
 2.048925
  0
VERTEX
  8
4.819936
 10
9.928939
 20
 2.048925
  0
VERTEX
  8
2.491275
 10
1.812907
 20
 0.339598
  0
VERTEX
  8
2.491275
 10
1.812907
 20
 0.339598
  0
VERTEX
  8
-0.615495
 10
-7.718950
 20
 -1.299682
  0
VERTEX
  8
-0.615495
 10
-7.718950
 20
 -1.299682
  0
VERTEX
  8
-4.598559
 10
-18.700226
 20
 -2.795563
  0
VERTEX
  8
-4.598559
 10
-18.700226
 20
 -2.795563
  0
SEQEND
  8
DIURNEZOD
  0
POLYLINE
  8
-0.095465
 66
     1
  0
VERTEX
  8
-0.095465
 10
0.000000
 20
 -5.766859
  0
VERTEX
  8
-0.095465
 10
0.000000
 20
 -5.766859
  0
VERTEX
  8
-0.094747
 10
0.153314
 20
 -5.766421
  0
VERTEX
  8
-0.094747
 10
0.153314
 20
 -5.766421
  0
VERTEX
  8
-0.092610
 10
0.306689
 20
 -5.765074
  0
VERTEX
  8
-0.092610
 10
0.306689
 20
 -5.765074
  0
VERTEX
  8
-0.089113
 10
0.460175
 20
 -5.762714
  0
VERTEX
  8
-0.089113
 10
0.460175
 20
 -5.762714
  0
VERTEX
  8
-0.084350
 10
0.613806
 20
 -5.759169
  0
VERTEX
  8
-0.084350
 10
0.613806
 20
 -5.759169
  0
VERTEX
  8
-0.078451
 10
0.767590
 20
 -5.754203
  0
VERTEX
  8
-0.078451
 10
0.767590
 20
 -5.754203
  0
VERTEX
  8
-0.071579
 10
0.921499
 20
 -5.747517
  0
VERTEX
  8
-0.071579
 10
0.921499
 20
 -5.747517
  0
VERTEX
  8
-0.063927
 10
1.075463
 20
 -5.738752
  0
VERTEX
  8
-0.063927
 10
1.075463
 20
 -5.738752
  0
VERTEX
  8
-0.055714
 10
1.229362
 20
 -5.727496
  0
VERTEX
  8
-0.055714
 10
1.229362
 20
 -5.727496
  0
VERTEX
  8
-0.047182
 10
1.383021
 20
 -5.713288
  0
VERTEX
  8
-0.047182
 10
1.383021
 20
 -5.713288
  0
VERTEX
  8
-0.038591
 10
1.536199
 20
 -5.695623
  0
VERTEX
  8
-0.038591
 10
1.536199
 20
 -5.695623
  0
VERTEX
  8
-0.030214
 10
1.688591
 20
 -5.673959
  0
VERTEX
  8
-0.030214
 10
1.688591
 20
 -5.673959
  0
VERTEX
  8
-0.022332
 10
1.839816
 20
 -5.647721
  0
VERTEX
  8
-0.022332
 10
1.839816
 20
 -5.647721
  0
VERTEX
  8
-0.015229
 10
1.989417
 20
 -5.616313
  0
VERTEX
  8
-0.015229
 10
1.989417
 20
 -5.616313
  0
VERTEX
  8
-0.009183
 10
2.136856
 20
 -5.579121
  0
VERTEX
  8
-0.009183
 10
2.136856
 20
 -5.579121
  0
VERTEX
  8
-0.004467
 10
2.281514
 20
 -5.535518
  0
VERTEX
  8
-0.004467
 10
2.281514
 20
 -5.535518
  0
VERTEX
  8
-0.001336
 10
2.422686
 20
 -5.484875
  0
VERTEX
  8
-0.001336
 10
2.422686
 20
 -5.484875
  0
VERTEX
  8
-0.000026
 10
2.559580
 20
 -5.426566
  0
VERTEX
  8
-0.000026
 10
2.559580
 20
 -5.426566
  0
VERTEX
  8
-0.000748
 10
2.691316
 20
 -5.359971
  0
VERTEX
  8
-0.000748
 10
2.691316
 20
 -5.359971
  0
VERTEX
  8
-0.003682
 10
2.816926
 20
 -5.284483
  0
VERTEX
  8
-0.003682
 10
2.816926
 20
 -5.284483
  0
VERTEX
  8
-0.008972
 10
2.935348
 20
 -5.199511
  0
VERTEX
  8
-0.008972
 10
2.935348
 20
 -5.199511
  0
VERTEX
  8
-0.016721
 10
3.045428
 20
 -5.104482
  0
VERTEX
  8
-0.016721
 10
3.045428
 20
 -5.104482
  0
VERTEX
  8
-0.026989
 10
3.145912
 20
 -4.998841
  0
VERTEX
  8
-0.026989
 10
3.145912
 20
 -4.998841
  0
VERTEX
  8
-0.039790
 10
3.235443
 20
 -4.882051
  0
VERTEX
  8
-0.039790
 10
3.235443
 20
 -4.882051
  0
VERTEX
  8
-0.055083
 10
3.312549
 20
 -4.753583
  0
VERTEX
  8
-0.055083
 10
3.312549
 20
 -4.753583
  0
VERTEX
  8
-0.072779
 10
3.375627
 20
 -4.612914
  0
VERTEX
  8
-0.072779
 10
3.375627
 20
 -4.612914
  0
VERTEX
  8
-0.092731
 10
3.422927
 20
 -4.459508
  0
VERTEX
  8
-0.092731
 10
3.422927
 20
 -4.459508
  0
VERTEX
  8
-0.114736
 10
3.452516
 20
 -4.292800
  0
VERTEX
  8
-0.114736
 10
3.452516
 20
 -4.292800
  0
VERTEX
  8
-0.138531
 10
3.462239
 20
 -4.112168
  0
VERTEX
  8
-0.138531
 10
3.462239
 20
 -4.112168
  0
VERTEX
  8
-0.163796
 10
3.449657
 20
 -3.916897
  0
VERTEX
  8
-0.163796
 10
3.449657
 20
 -3.916897
  0
VERTEX
  8
-0.190147
 10
3.411960
 20
 -3.706125
  0
VERTEX
  8
-0.190147
 10
3.411960
 20
 -3.706125
  0
VERTEX
  8
-0.217134
 10
3.345847
 20
 -3.478779
  0
VERTEX
  8
-0.217134
 10
3.345847
 20
 -3.478779
  0
VERTEX
  8
-0.244235
 10
3.247356
 20
 -3.233474
  0
VERTEX
  8
-0.244235
 10
3.247356
 20
 -3.233474
  0
VERTEX
  8
-0.270849
 10
3.111622
 20
 -2.968387
  0
VERTEX
  8
-0.270849
 10
3.111622
 20
 -2.968387
  0
VERTEX
  8
-0.296271
 10
2.932533
 20
 -2.681077
  0
VERTEX
  8
-0.296271
 10
2.932533
 20
 -2.681077
  0
VERTEX
  8
-0.319670
 10
2.702237
 20
 -2.368239
  0
VERTEX
  8
-0.319670
 10
2.702237
 20
 -2.368239
  0
VERTEX
  8
-0.340030
 10
2.410439
 20
 -2.025357
  0
VERTEX
  8
-0.340030
 10
2.410439
 20
 -2.025357
  0
VERTEX
  8
-0.356069
 10
2.043396
 20
 -1.646247
  0
VERTEX
  8
-0.356069
 10
2.043396
 20
 -1.646247
  0
VERTEX
  8
-0.366082
 10
1.582517
 20
 -1.222438
  0
VERTEX
  8
-0.366082
 10
1.582517
 20
 -1.222438
  0
VERTEX
  8
-0.367700
 10
1.002485
 20
 -0.742433
  0
VERTEX
  8
-0.367700
 10
1.002485
 20
 -0.742433
  0
VERTEX
  8
-0.357466
 10
0.268999
 20
 -0.190968
  0
VERTEX
  8
-0.357466
 10
0.268999
 20
 -0.190968
  0
VERTEX
  8
-0.330178
 10
-0.663282
 20
 0.451267
  0
VERTEX
  8
-0.330178
 10
-0.663282
 20
 0.451267
  0
VERTEX
  8
-0.277959
 10
-1.850889
 20
 1.206419
  0
VERTEX
  8
-0.277959
 10
-1.850889
 20
 1.206419
  0
VERTEX
  8
-0.189207
 10
-3.356429
 20
 2.095059
  0
VERTEX
  8
-0.189207
 10
-3.356429
 20
 2.095059
  0
VERTEX
  8
-0.048069
 10
-5.234441
 20
 3.127295
  0
VERTEX
  8
-0.048069
 10
-5.234441
 20
 3.127295
  0
VERTEX
  8
0.164505
 10
-7.509213
 20
 4.291493
  0
VERTEX
  8
0.164505
 10
-7.509213
 20
 4.291493
  0
VERTEX
  8
0.467534
 10
-10.155506
 20
 5.547799
  0
VERTEX
  8
0.467534
 10
-10.155506
 20
 5.547799
  0
VERTEX
  8
0.875682
 10
-13.096013
 20
 6.832875
  0
VERTEX
  8
0.875682
 10
-13.096013
 20
 6.832875
  0
VERTEX
  8
1.395898
 10
-16.216328
 20
 8.073250
  0
VERTEX
  8
1.395898
 10
-16.216328
 20
 8.073250
  0
VERTEX
  8
2.026038
 10
-19.384813
 20
 9.198482
  0
VERTEX
  8
2.026038
 10
-19.384813
 20
 9.198482
  0
VERTEX
  8
2.754944
 10
-22.466698
 20
 10.148789
  0
VERTEX
  8
2.754944
 10
-22.466698
 20
 10.148789
  0
VERTEX
  8
3.563030
 10
-25.330629
 20
 10.877526
  0
VERTEX
  8
3.563030
 10
-25.330629
 20
 10.877526
  0
VERTEX
  8
4.422844
 10
-27.850510
 20
 11.350979
  0
VERTEX
  8
4.422844
 10
-27.850510
 20
 11.350979
  0
VERTEX
  8
5.299477
 10
-29.905432
 20
 11.547291
  0
VERTEX
  8
5.299477
 10
-29.905432
 20
 11.547291
  0
VERTEX
  8
6.150841
 10
-31.379215
 20
 11.455380
  0
VERTEX
  8
6.150841
 10
-31.379215
 20
 11.455380
  0
VERTEX
  8
6.927884
 10
-32.160133
 20
 11.074074
  0
VERTEX
  8
6.927884
 10
-32.160133
 20
 11.074074
  0
VERTEX
  8
7.574801
 10
-32.141003
 20
 10.411491
  0
VERTEX
  8
7.574801
 10
-32.141003
 20
 10.411491
  0
VERTEX
  8
8.029274
 10
-31.219526
 20
 9.484560
  0
VERTEX
  8
8.029274
 10
-31.219526
 20
 9.484560
  0
VERTEX
  8
8.222759
 10
-29.298941
 20
 8.318655
  0
VERTEX
  8
8.222759
 10
-29.298941
 20
 8.318655
  0
VERTEX
  8
8.080844
 10
-26.288765
 20
 6.947251
  0
VERTEX
  8
8.080844
 10
-26.288765
 20
 6.947251
  0
VERTEX
  8
7.523670
 10
-22.105680
 20
 5.411585
  0
VERTEX
  8
7.523670
 10
-22.105680
 20
 5.411585
  0
VERTEX
  8
6.466428
 10
-16.674463
 20
 3.760280
  0
VERTEX
  8
6.466428
 10
-16.674463
 20
 3.760280
  0
VERTEX
  8
4.819936
 10
-9.928939
 20
 2.048925
  0
VERTEX
  8
4.819936
 10
-9.928939
 20
 2.048925
  0
VERTEX
  8
2.491275
 10
-1.812907
 20
 0.339598
  0
VERTEX
  8
2.491275
 10
-1.812907
 20
 0.339598
  0
VERTEX
  8
-0.615495
 10
7.718950
 20
 -1.299682
  0
VERTEX
  8
-0.615495
 10
7.718950
 20
 -1.299682
  0
VERTEX
  8
-4.598559
 10
18.700226
 20
 -2.795563
  0
VERTEX
  8
-4.598559
 10
18.700226
 20
 -2.795563
  0
SEQEND
  8
DIURNEZOD
  0
POLYLINE
  8
-0.000892
 66
     1
  0
VERTEX
  8
-0.000892
 10
0.000000
 20
 -5.997385
  0
VERTEX
  8
-0.000892
 10
0.000000
 20
 -5.997385
  0
VERTEX
  8
-0.000835
 10
-0.152187
 20
 -5.995618
  0
VERTEX
  8
-0.000835
 10
-0.152187
 20
 -5.995618
  0
VERTEX
  8
-0.000676
 10
-0.304223
 20
 -5.990291
  0
VERTEX
  8
-0.000676
 10
-0.304223
 20
 -5.990291
  0
VERTEX
  8
-0.000450
 10
-0.455952
 20
 -5.981320
  0
VERTEX
  8
-0.000450
 10
-0.455952
 20
 -5.981320
  0
VERTEX
  8
-0.000210
 10
-0.607200
 20
 -5.968569
  0
VERTEX
  8
-0.000210
 10
-0.607200
 20
 -5.968569
  0
VERTEX
  8
-0.000035
 10
-0.757775
 20
 -5.951849
  0
VERTEX
  8
-0.000035
 10
-0.757775
 20
 -5.951849
  0
VERTEX
  8
-0.000020
 10
-0.907454
 20
 -5.930921
  0
VERTEX
  8
-0.000020
 10
-0.907454
 20
 -5.930921
  0
VERTEX
  8
-0.000274
 10
-1.055979
 20
 -5.905498
  0
VERTEX
  8
-0.000274
 10
-1.055979
 20
 -5.905498
  0
VERTEX
  8
-0.000925
 10
-1.203052
 20
 -5.875249
  0
VERTEX
  8
-0.000925
 10
-1.203052
 20
 -5.875249
  0
VERTEX
  8
-0.002108
 10
-1.348327
 20
 -5.839803
  0
VERTEX
  8
-0.002108
 10
-1.348327
 20
 -5.839803
  0
VERTEX
  8
-0.003966
 10
-1.491406
 20
 -5.798754
  0
VERTEX
  8
-0.003966
 10
-1.491406
 20
 -5.798754
  0
VERTEX
  8
-0.006646
 10
-1.631832
 20
 -5.751660
  0
VERTEX
  8
-0.006646
 10
-1.631832
 20
 -5.751660
  0
VERTEX
  8
-0.010294
 10
-1.769085
 20
 -5.698053
  0
VERTEX
  8
-0.010294
 10
-1.769085
 20
 -5.698053
  0
VERTEX
  8
-0.015054
 10
-1.902581
 20
 -5.637443
  0
VERTEX
  8
-0.015054
 10
-1.902581
 20
 -5.637443
  0
VERTEX
  8
-0.021058
 10
-2.031659
 20
 -5.569316
  0
VERTEX
  8
-0.021058
 10
-2.031659
 20
 -5.569316
  0
VERTEX
  8
-0.028427
 10
-2.155588
 20
 -5.493145
  0
VERTEX
  8
-0.028427
 10
-2.155588
 20
 -5.493145
  0
VERTEX
  8
-0.037266
 10
-2.273553
 20
 -5.408385
  0
VERTEX
  8
-0.037266
 10
-2.273553
 20
 -5.408385
  0
VERTEX
  8
-0.047658
 10
-2.384653
 20
 -5.314481
  0
VERTEX
  8
-0.047658
 10
-2.384653
 20
 -5.314481
  0
VERTEX
  8
-0.059659
 10
-2.487898
 20
 -5.210866
  0
VERTEX
  8
-0.059659
 10
-2.487898
 20
 -5.210866
  0
VERTEX
  8
-0.073300
 10
-2.582196
 20
 -5.096956
  0
VERTEX
  8
-0.073300
 10
-2.582196
 20
 -5.096956
  0
VERTEX
  8
-0.088578
 10
-2.666347
 20
 -4.972152
  0
VERTEX
  8
-0.088578
 10
-2.666347
 20
 -4.972152
  0
VERTEX
  8
-0.105453
 10
-2.739028
 20
 -4.835826
  0
VERTEX
  8
-0.105453
 10
-2.739028
 20
 -4.835826
  0
VERTEX
  8
-0.123849
 10
-2.798775
 20
 -4.687316
  0
VERTEX
  8
-0.123849
 10
-2.798775
 20
 -4.687316
  0
VERTEX
  8
-0.143645
 10
-2.843960
 20
 -4.525904
  0
VERTEX
  8
-0.143645
 10
-2.843960
 20
 -4.525904
  0
VERTEX
  8
-0.164679
 10
-2.872753
 20
 -4.350797
  0
VERTEX
  8
-0.164679
 10
-2.872753
 20
 -4.350797
  0
VERTEX
  8
-0.186738
 10
-2.883083
 20
 -4.161091
  0
VERTEX
  8
-0.186738
 10
-2.883083
 20
 -4.161091
  0
VERTEX
  8
-0.209560
 10
-2.872568
 20
 -3.955729
  0
VERTEX
  8
-0.209560
 10
-2.872568
 20
 -3.955729
  0
VERTEX
  8
-0.232827
 10
-2.838429
 20
 -3.733437
  0
VERTEX
  8
-0.232827
 10
-2.838429
 20
 -3.733437
  0
VERTEX
  8
-0.256159
 10
-2.777368
 20
 -3.492646
  0
VERTEX
  8
-0.256159
 10
-2.777368
 20
 -3.492646
  0
VERTEX
  8
-0.279105
 10
-2.685396
 20
 -3.231376
  0
VERTEX
  8
-0.279105
 10
-2.685396
 20
 -3.231376
  0
VERTEX
  8
-0.301129
 10
-2.557597
 20
 -2.947082
  0
VERTEX
  8
-0.301129
 10
-2.557597
 20
 -2.947082
  0
VERTEX
  8
-0.321587
 10
-2.387791
 20
 -2.636446
  0
VERTEX
  8
-0.321587
 10
-2.387791
 20
 -2.636446
  0
VERTEX
  8
-0.339691
 10
-2.168062
 20
 -2.295090
  0
VERTEX
  8
-0.339691
 10
-2.168062
 20
 -2.295090
  0
VERTEX
  8
-0.354448
 10
-1.888100
 20
 -1.917188
  0
VERTEX
  8
-0.354448
 10
-1.888100
 20
 -1.917188
  0
VERTEX
  8
-0.364561
 10
-1.534283
 20
 -1.494957
  0
VERTEX
  8
-0.364561
 10
-1.534283
 20
 -1.494957
  0
VERTEX
  8
-0.368276
 10
-1.088452
 20
 -1.018014
  0
VERTEX
  8
-0.368276
 10
-1.088452
 20
 -1.018014
  0
VERTEX
  8
-0.363116
 10
-0.526361
 20
 -0.472668
  0
VERTEX
  8
-0.363116
 10
-0.526361
 20
 -0.472668
  0
VERTEX
  8
-0.345477
 10
0.183976
 20
 0.158648
  0
VERTEX
  8
-0.345477
 10
0.183976
 20
 0.158648
  0
VERTEX
  8
-0.310028
 10
1.083398
 20
 0.897237
  0
VERTEX
  8
-0.310028
 10
1.083398
 20
 0.897237
  0
VERTEX
  8
-0.248939
 10
2.220574
 20
 1.766211
  0
VERTEX
  8
-0.248939
 10
2.220574
 20
 1.766211
  0
VERTEX
  8
-0.151150
 10
3.646383
 20
 2.785350
  0
VERTEX
  8
-0.151150
 10
3.646383
 20
 2.785350
  0
VERTEX
  8
-0.002256
 10
5.401782
 20
 3.962286
  0
VERTEX
  8
-0.002256
 10
5.401782
 20
 3.962286
  0
VERTEX
  8
0.214293
 10
7.501457
 20
 5.282809
  0
VERTEX
  8
0.214293
 10
7.501457
 20
 5.282809
  0
VERTEX
  8
0.514485
 10
9.921488
 20
 6.706462
  0
VERTEX
  8
0.514485
 10
9.921488
 20
 6.706462
  0
VERTEX
  8
0.910498
 10
12.598987
 20
 8.171518
  0
VERTEX
  8
0.910498
 10
12.598987
 20
 8.171518
  0
VERTEX
  8
1.408248
 10
15.442735
 20
 9.606376
  0
VERTEX
  8
1.408248
 10
15.442735
 20
 9.606376
  0
VERTEX
  8
2.006314
 10
18.346638
 20
 10.940588
  0
VERTEX
  8
2.006314
 10
18.346638
 20
 10.940588
  0
VERTEX
  8
2.695847
 10
21.199554
 20
 12.111583
  0
VERTEX
  8
2.695847
 10
21.199554
 20
 12.111583
  0
VERTEX
  8
3.460852
 10
23.890306
 20
 13.067264
  0
VERTEX
  8
3.460852
 10
23.890306
 20
 13.067264
  0
VERTEX
  8
4.278482
 10
26.309437
 20
 13.766271
  0
VERTEX
  8
4.278482
 10
26.309437
 20
 13.766271
  0
VERTEX
  8
5.119242
 10
28.349535
 20
 14.177375
  0
VERTEX
  8
5.119242
 10
28.349535
 20
 14.177375
  0
VERTEX
  8
5.947103
 10
29.905140
 20
 14.278732
  0
VERTEX
  8
5.947103
 10
29.905140
 20
 14.278732
  0
VERTEX
  8
6.719575
 10
30.872723
 20
 14.057274
  0
VERTEX
  8
6.719575
 10
30.872723
 20
 14.057274
  0
VERTEX
  8
7.387777
 10
31.150871
 20
 13.508283
  0
VERTEX
  8
7.387777
 10
31.150871
 20
 13.508283
  0
VERTEX
  8
7.896539
 10
30.640717
 20
 12.635101
  0
VERTEX
  8
7.896539
 10
30.640717
 20
 12.635101
  0
VERTEX
  8
8.184538
 10
29.246525
 20
 11.448929
  0
VERTEX
  8
8.184538
 10
29.246525
 20
 11.448929
  0
VERTEX
  8
8.184508
 10
26.876453
 20
 9.968670
  0
VERTEX
  8
8.184508
 10
26.876453
 20
 9.968670
  0
VERTEX
  8
7.823500
 10
23.443399
 20
 8.220774
  0
VERTEX
  8
7.823500
 10
23.443399
 20
 8.220774
  0
VERTEX
  8
7.023220
 10
18.865917
 20
 6.239065
  0
VERTEX
  8
7.023220
 10
18.865917
 20
 6.239065
  0
VERTEX
  8
5.700438
 10
13.069165
 20
 4.064524
  0
VERTEX
  8
5.700438
 10
13.069165
 20
 4.064524
  0
VERTEX
  8
3.767466
 10
5.985877
 20
 1.745023
  0
VERTEX
  8
3.767466
 10
5.985877
 20
 1.745023
  0
VERTEX
  8
1.132706
 10
-2.442687
 20
 -0.665010
  0
VERTEX
  8
1.132706
 10
-2.442687
 20
 -0.665010
  0
VERTEX
  8
-2.298726
 10
-12.265813
 20
 -3.104982
  0
VERTEX
  8
-2.298726
 10
-12.265813
 20
 -3.104982
  0
VERTEX
  8
-6.624323
 10
-23.522451
 20
 -5.508599
  0
VERTEX
  8
-6.624323
 10
-23.522451
 20
 -5.508599
  0
VERTEX
  8
-11.943436
 10
-36.240391
 20
 -7.804404
  0
VERTEX
  8
-11.943436
 10
-36.240391
 20
 -7.804404
  0
VERTEX
  8
-18.356479
 10
-50.435516
 20
 -9.916367
  0
VERTEX
  8
-18.356479
 10
-50.435516
 20
 -9.916367
  0
SEQEND
  8
DIURNEZOD
  0
POLYLINE
  8
-0.000892
 66
     1
  0
VERTEX
  8
-0.000892
 10
0.000000
 20
 -5.997385
  0
VERTEX
  8
-0.000892
 10
0.000000
 20
 -5.997385
  0
VERTEX
  8
-0.000835
 10
0.152187
 20
 -5.995618
  0
VERTEX
  8
-0.000835
 10
0.152187
 20
 -5.995618
  0
VERTEX
  8
-0.000676
 10
0.304223
 20
 -5.990291
  0
VERTEX
  8
-0.000676
 10
0.304223
 20
 -5.990291
  0
VERTEX
  8
-0.000450
 10
0.455952
 20
 -5.981320
  0
VERTEX
  8
-0.000450
 10
0.455952
 20
 -5.981320
  0
VERTEX
  8
-0.000210
 10
0.607200
 20
 -5.968569
  0
VERTEX
  8
-0.000210
 10
0.607200
 20
 -5.968569
  0
VERTEX
  8
-0.000035
 10
0.757775
 20
 -5.951849
  0
VERTEX
  8
-0.000035
 10
0.757775
 20
 -5.951849
  0
VERTEX
  8
-0.000020
 10
0.907454
 20
 -5.930921
  0
VERTEX
  8
-0.000020
 10
0.907454
 20
 -5.930921
  0
VERTEX
  8
-0.000274
 10
1.055979
 20
 -5.905498
  0
VERTEX
  8
-0.000274
 10
1.055979
 20
 -5.905498
  0
VERTEX
  8
-0.000925
 10
1.203052
 20
 -5.875249
  0
VERTEX
  8
-0.000925
 10
1.203052
 20
 -5.875249
  0
VERTEX
  8
-0.002108
 10
1.348327
 20
 -5.839803
  0
VERTEX
  8
-0.002108
 10
1.348327
 20
 -5.839803
  0
VERTEX
  8
-0.003966
 10
1.491406
 20
 -5.798754
  0
VERTEX
  8
-0.003966
 10
1.491406
 20
 -5.798754
  0
VERTEX
  8
-0.006646
 10
1.631832
 20
 -5.751660
  0
VERTEX
  8
-0.006646
 10
1.631832
 20
 -5.751660
  0
VERTEX
  8
-0.010294
 10
1.769085
 20
 -5.698053
  0
VERTEX
  8
-0.010294
 10
1.769085
 20
 -5.698053
  0
VERTEX
  8
-0.015054
 10
1.902581
 20
 -5.637443
  0
VERTEX
  8
-0.015054
 10
1.902581
 20
 -5.637443
  0
VERTEX
  8
-0.021058
 10
2.031659
 20
 -5.569316
  0
VERTEX
  8
-0.021058
 10
2.031659
 20
 -5.569316
  0
VERTEX
  8
-0.028427
 10
2.155588
 20
 -5.493145
  0
VERTEX
  8
-0.028427
 10
2.155588
 20
 -5.493145
  0
VERTEX
  8
-0.037266
 10
2.273553
 20
 -5.408385
  0
VERTEX
  8
-0.037266
 10
2.273553
 20
 -5.408385
  0
VERTEX
  8
-0.047658
 10
2.384653
 20
 -5.314481
  0
VERTEX
  8
-0.047658
 10
2.384653
 20
 -5.314481
  0
VERTEX
  8
-0.059659
 10
2.487898
 20
 -5.210866
  0
VERTEX
  8
-0.059659
 10
2.487898
 20
 -5.210866
  0
VERTEX
  8
-0.073300
 10
2.582196
 20
 -5.096956
  0
VERTEX
  8
-0.073300
 10
2.582196
 20
 -5.096956
  0
VERTEX
  8
-0.088578
 10
2.666347
 20
 -4.972152
  0
VERTEX
  8
-0.088578
 10
2.666347
 20
 -4.972152
  0
VERTEX
  8
-0.105453
 10
2.739028
 20
 -4.835826
  0
VERTEX
  8
-0.105453
 10
2.739028
 20
 -4.835826
  0
VERTEX
  8
-0.123849
 10
2.798775
 20
 -4.687316
  0
VERTEX
  8
-0.123849
 10
2.798775
 20
 -4.687316
  0
VERTEX
  8
-0.143645
 10
2.843960
 20
 -4.525904
  0
VERTEX
  8
-0.143645
 10
2.843960
 20
 -4.525904
  0
VERTEX
  8
-0.164679
 10
2.872753
 20
 -4.350797
  0
VERTEX
  8
-0.164679
 10
2.872753
 20
 -4.350797
  0
VERTEX
  8
-0.186738
 10
2.883083
 20
 -4.161091
  0
VERTEX
  8
-0.186738
 10
2.883083
 20
 -4.161091
  0
VERTEX
  8
-0.209560
 10
2.872568
 20
 -3.955729
  0
VERTEX
  8
-0.209560
 10
2.872568
 20
 -3.955729
  0
VERTEX
  8
-0.232827
 10
2.838429
 20
 -3.733437
  0
VERTEX
  8
-0.232827
 10
2.838429
 20
 -3.733437
  0
VERTEX
  8
-0.256159
 10
2.777368
 20
 -3.492646
  0
VERTEX
  8
-0.256159
 10
2.777368
 20
 -3.492646
  0
VERTEX
  8
-0.279105
 10
2.685396
 20
 -3.231376
  0
VERTEX
  8
-0.279105
 10
2.685396
 20
 -3.231376
  0
VERTEX
  8
-0.301129
 10
2.557597
 20
 -2.947082
  0
VERTEX
  8
-0.301129
 10
2.557597
 20
 -2.947082
  0
VERTEX
  8
-0.321587
 10
2.387791
 20
 -2.636446
  0
VERTEX
  8
-0.321587
 10
2.387791
 20
 -2.636446
  0
VERTEX
  8
-0.339691
 10
2.168062
 20
 -2.295090
  0
VERTEX
  8
-0.339691
 10
2.168062
 20
 -2.295090
  0
VERTEX
  8
-0.354448
 10
1.888100
 20
 -1.917188
  0
VERTEX
  8
-0.354448
 10
1.888100
 20
 -1.917188
  0
VERTEX
  8
-0.364561
 10
1.534283
 20
 -1.494957
  0
VERTEX
  8
-0.364561
 10
1.534283
 20
 -1.494957
  0
VERTEX
  8
-0.368276
 10
1.088452
 20
 -1.018014
  0
VERTEX
  8
-0.368276
 10
1.088452
 20
 -1.018014
  0
VERTEX
  8
-0.363116
 10
0.526361
 20
 -0.472668
  0
VERTEX
  8
-0.363116
 10
0.526361
 20
 -0.472668
  0
VERTEX
  8
-0.345477
 10
-0.183976
 20
 0.158648
  0
VERTEX
  8
-0.345477
 10
-0.183976
 20
 0.158648
  0
VERTEX
  8
-0.310028
 10
-1.083398
 20
 0.897237
  0
VERTEX
  8
-0.310028
 10
-1.083398
 20
 0.897237
  0
VERTEX
  8
-0.248939
 10
-2.220574
 20
 1.766211
  0
VERTEX
  8
-0.248939
 10
-2.220574
 20
 1.766211
  0
VERTEX
  8
-0.151150
 10
-3.646383
 20
 2.785350
  0
VERTEX
  8
-0.151150
 10
-3.646383
 20
 2.785350
  0
VERTEX
  8
-0.002256
 10
-5.401782
 20
 3.962286
  0
VERTEX
  8
-0.002256
 10
-5.401782
 20
 3.962286
  0
VERTEX
  8
0.214293
 10
-7.501457
 20
 5.282809
  0
VERTEX
  8
0.214293
 10
-7.501457
 20
 5.282809
  0
VERTEX
  8
0.514485
 10
-9.921488
 20
 6.706462
  0
VERTEX
  8
0.514485
 10
-9.921488
 20
 6.706462
  0
VERTEX
  8
0.910498
 10
-12.598987
 20
 8.171518
  0
VERTEX
  8
0.910498
 10
-12.598987
 20
 8.171518
  0
VERTEX
  8
1.408248
 10
-15.442735
 20
 9.606376
  0
VERTEX
  8
1.408248
 10
-15.442735
 20
 9.606376
  0
VERTEX
  8
2.006314
 10
-18.346638
 20
 10.940588
  0
VERTEX
  8
2.006314
 10
-18.346638
 20
 10.940588
  0
VERTEX
  8
2.695847
 10
-21.199554
 20
 12.111583
  0
VERTEX
  8
2.695847
 10
-21.199554
 20
 12.111583
  0
VERTEX
  8
3.460852
 10
-23.890306
 20
 13.067264
  0
VERTEX
  8
3.460852
 10
-23.890306
 20
 13.067264
  0
VERTEX
  8
4.278482
 10
-26.309437
 20
 13.766271
  0
VERTEX
  8
4.278482
 10
-26.309437
 20
 13.766271
  0
VERTEX
  8
5.119242
 10
-28.349535
 20
 14.177375
  0
VERTEX
  8
5.119242
 10
-28.349535
 20
 14.177375
  0
VERTEX
  8
5.947103
 10
-29.905140
 20
 14.278732
  0
VERTEX
  8
5.947103
 10
-29.905140
 20
 14.278732
  0
VERTEX
  8
6.719575
 10
-30.872723
 20
 14.057274
  0
VERTEX
  8
6.719575
 10
-30.872723
 20
 14.057274
  0
VERTEX
  8
7.387777
 10
-31.150871
 20
 13.508283
  0
VERTEX
  8
7.387777
 10
-31.150871
 20
 13.508283
  0
VERTEX
  8
7.896539
 10
-30.640717
 20
 12.635101
  0
VERTEX
  8
7.896539
 10
-30.640717
 20
 12.635101
  0
VERTEX
  8
8.184538
 10
-29.246525
 20
 11.448929
  0
VERTEX
  8
8.184538
 10
-29.246525
 20
 11.448929
  0
VERTEX
  8
8.184508
 10
-26.876453
 20
 9.968670
  0
VERTEX
  8
8.184508
 10
-26.876453
 20
 9.968670
  0
VERTEX
  8
7.823500
 10
-23.443399
 20
 8.220774
  0
VERTEX
  8
7.823500
 10
-23.443399
 20
 8.220774
  0
VERTEX
  8
7.023220
 10
-18.865917
 20
 6.239065
  0
VERTEX
  8
7.023220
 10
-18.865917
 20
 6.239065
  0
VERTEX
  8
5.700438
 10
-13.069165
 20
 4.064524
  0
VERTEX
  8
5.700438
 10
-13.069165
 20
 4.064524
  0
VERTEX
  8
3.767466
 10
-5.985877
 20
 1.745023
  0
VERTEX
  8
3.767466
 10
-5.985877
 20
 1.745023
  0
VERTEX
  8
1.132706
 10
2.442687
 20
 -0.665010
  0
VERTEX
  8
1.132706
 10
2.442687
 20
 -0.665010
  0
VERTEX
  8
-2.298726
 10
12.265813
 20
 -3.104982
  0
VERTEX
  8
-2.298726
 10
12.265813
 20
 -3.104982
  0
VERTEX
  8
-6.624323
 10
23.522451
 20
 -5.508599
  0
VERTEX
  8
-6.624323
 10
23.522451
 20
 -5.508599
  0
VERTEX
  8
-11.943436
 10
36.240391
 20
 -7.804404
  0
VERTEX
  8
-11.943436
 10
36.240391
 20
 -7.804404
  0
VERTEX
  8
-18.356479
 10
50.435516
 20
 -9.916367
  0
VERTEX
  8
-18.356479
 10
50.435516
 20
 -9.916367
  0
SEQEND
  8
DIURNEZOD
  0
POLYLINE
  8
2.765231
 66
     1
  0
VERTEX
  8
2.765231
 10
2.645070
 20
 0.792091
  0
VERTEX
  8
2.765231
 10
2.645070
 20
 0.792091
  0
VERTEX
  8
4.454564
 10
8.411833
 20
 2.401582
  0
VERTEX
  8
4.454564
 10
8.411833
 20
 2.401582
  0
VERTEX
  8
5.791470
 10
13.580536
 20
 3.690466
  0
VERTEX
  8
5.791470
 10
13.580536
 20
 3.690466
  0
VERTEX
  8
6.804787
 10
18.145718
 20
 4.684965
  0
VERTEX
  8
6.804787
 10
18.145718
 20
 4.684965
  0
VERTEX
  8
7.523670
 10
22.105680
 20
 5.411585
  0
VERTEX
  8
7.523670
 10
22.105680
 20
 5.411585
  0
VERTEX
  8
7.977402
 10
25.462507
 20
 5.896954
  0
VERTEX
  8
7.977402
 10
25.462507
 20
 5.896954
  0
VERTEX
  8
8.195215
 10
28.222076
 20
 6.167651
  0
VERTEX
  8
8.195215
 10
28.222076
 20
 6.167651
  0
VERTEX
  8
8.206102
 10
30.394070
 20
 6.250038
  0
VERTEX
  8
8.206102
 10
30.394070
 20
 6.250038
  0
VERTEX
  8
8.038638
 10
31.991966
 20
 6.170099
  0
VERTEX
  8
8.038638
 10
31.991966
 20
 6.170099
  0
VERTEX
  8
7.720803
 10
33.033058
 20
 5.953276
  0
VERTEX
  8
7.720803
 10
33.033058
 20
 5.953276
  0
VERTEX
  8
7.279800
 10
33.538467
 20
 5.624307
  0
VERTEX
  8
7.279800
 10
33.538467
 20
 5.624307
  0
VERTEX
  8
6.741890
 10
33.533173
 20
 5.207071
  0
VERTEX
  8
6.741890
 10
33.533173
 20
 5.207071
  0
VERTEX
  8
6.132212
 10
33.046112
 20
 4.724432
  0
VERTEX
  8
6.132212
 10
33.046112
 20
 4.724432
  0
VERTEX
  8
5.474623
 10
32.110283
 20
 4.198084
  0
VERTEX
  8
5.474623
 10
32.110283
 20
 4.198084
  0
VERTEX
  8
4.791516
 10
30.762974
 20
 3.648395
  0
VERTEX
  8
4.791516
 10
30.762974
 20
 3.648395
  0
VERTEX
  8
4.103652
 10
29.046076
 20
 3.094245
  0
VERTEX
  8
4.103652
 10
29.046076
 20
 3.094245
  0
VERTEX
  8
3.429961
 10
27.006548
 20
 2.552856
  0
VERTEX
  8
3.429961
 10
27.006548
 20
 2.552856
  0
VERTEX
  8
2.787335
 10
24.697031
 20
 2.039592
  0
VERTEX
  8
2.787335
 10
24.697031
 20
 2.039592
  0
VERTEX
  8
2.190362
 10
22.176611
 20
 1.567726
  0
VERTEX
  8
2.190362
 10
22.176611
 20
 1.567726
  0
VERTEX
  8
1.651008
 10
19.511545
 20
 1.148149
  0
VERTEX
  8
1.651008
 10
19.511545
 20
 1.148149
  0
VERTEX
  8
1.178214
 10
16.775595
 20
 0.788999
  0
VERTEX
  8
1.178214
 10
16.775595
 20
 0.788999
  0
VERTEX
  8
0.777404
 10
14.049078
 20
 0.495220
  0
VERTEX
  8
0.777404
 10
14.049078
 20
 0.495220
  0
VERTEX
  8
0.450000
 10
11.415380
 20
 0.268120
  0
VERTEX
  8
0.450000
 10
11.415380
 20
 0.268120
  0
VERTEX
  8
0.193149
 10
8.953627
 20
 0.105118
  0
VERTEX
  8
0.193149
 10
8.953627
 20
 0.105118
  0
VERTEX
  8
0.000000
 10
6.727922
 20
 -0.000000
  0
VERTEX
  8
0.000000
 10
6.727922
 20
 -0.000000
  0
VERTEX
  8
-0.139198
 10
4.776801
 20
 -0.196954
  0
VERTEX
  8
-0.139198
 10
4.776801
 20
 -0.196954
  0
VERTEX
  8
-0.235340
 10
3.108646
 20
 -0.354788
  0
VERTEX
  8
-0.235340
 10
3.108646
 20
 -0.354788
  0
VERTEX
  8
-0.298712
 10
1.706008
 20
 -0.482865
  0
VERTEX
  8
-0.298712
 10
1.706008
 20
 -0.482865
  0
VERTEX
  8
-0.337867
 10
0.535897
 20
 -0.588972
  0
VERTEX
  8
-0.337867
 10
0.535897
 20
 -0.588972
  0
VERTEX
  8
-0.359315
 10
-0.439715
 20
 -0.679041
  0
VERTEX
  8
-0.359315
 10
-0.439715
 20
 -0.679041
  0
VERTEX
  8
-0.367754
 10
-1.256821
 20
 -0.757353
  0
VERTEX
  8
-0.367754
 10
-1.256821
 20
 -0.757353
  0
VERTEX
  8
-0.366492
 10
-1.946130
 20
 -0.826931
  0
VERTEX
  8
-0.366492
 10
-1.946130
 20
 -0.826931
  0
VERTEX
  8
-0.357869
 10
-2.532375
 20
 -0.889915
  0
VERTEX
  8
-0.357869
 10
-2.532375
 20
 -0.889915
  0
VERTEX
  8
-0.343575
 10
-3.034864
 20
 -0.947853
  0
VERTEX
  8
-0.343575
 10
-3.034864
 20
 -0.947853
  0
VERTEX
  8
-0.324878
 10
-3.468446
 20
 -1.001912
  0
VERTEX
  8
-0.324878
 10
-3.468446
 20
 -1.001912
  0
VERTEX
  8
-0.302774
 10
-3.844477
 20
 -1.053011
  0
VERTEX
  8
-0.302774
 10
-3.844477
 20
 -1.053011
  0
VERTEX
  8
-0.278089
 10
-4.171647
 20
 -1.101911
  0
VERTEX
  8
-0.278089
 10
-4.171647
 20
 -1.101911
  0
VERTEX
  8
-0.251537
 10
-4.456629
 20
 -1.149277
  0
VERTEX
  8
-0.251537
 10
-4.456629
 20
 -1.149277
  0
VERTEX
  8
-0.223766
 10
-4.704583
 20
 -1.195708
  0
VERTEX
  8
-0.223766
 10
-4.704583
 20
 -1.195708
  0
VERTEX
  8
-0.195379
 10
-4.919528
 20
 -1.241767
  0
VERTEX
  8
-0.195379
 10
-4.919528
 20
 -1.241767
  0
VERTEX
  8
-0.166955
 10
-5.104627
 20
 -1.287991
  0
VERTEX
  8
-0.166955
 10
-5.104627
 20
 -1.287991
  0
VERTEX
  8
-0.139058
 10
-5.262392
 20
 -1.334905
  0
VERTEX
  8
-0.139058
 10
-5.262392
 20
 -1.334905
  0
VERTEX
  8
-0.112242
 10
-5.394845
 20
 -1.383023
  0
VERTEX
  8
-0.112242
 10
-5.394845
 20
 -1.383023
  0
VERTEX
  8
-0.087054
 10
-5.503639
 20
 -1.432856
  0
VERTEX
  8
-0.087054
 10
-5.503639
 20
 -1.432856
  0
VERTEX
  8
-0.064039
 10
-5.590146
 20
 -1.484908
  0
VERTEX
  8
-0.064039
 10
-5.590146
 20
 -1.484908
  0
VERTEX
  8
-0.043736
 10
-5.655526
 20
 -1.539680
  0
VERTEX
  8
-0.043736
 10
-5.655526
 20
 -1.539680
  0
VERTEX
  8
-0.026680
 10
-5.700785
 20
 -1.597669
  0
VERTEX
  8
-0.026680
 10
-5.700785
 20
 -1.597669
  0
VERTEX
  8
-0.013400
 10
-5.726810
 20
 -1.659365
  0
VERTEX
  8
-0.013400
 10
-5.726810
 20
 -1.659365
  0
SEQEND
  8
ORARIE
  0
POLYLINE
  8
5.514858
 66
     1
  0
VERTEX
  8
5.514858
 10
28.931904
 20
 14.706318
  0
VERTEX
  8
5.514858
 10
28.931904
 20
 14.706318
  0
VERTEX
  8
4.813237
 10
27.820904
 20
 13.739537
  0
VERTEX
  8
4.813237
 10
27.820904
 20
 13.739537
  0
VERTEX
  8
4.106034
 10
26.343870
 20
 12.634988
  0
VERTEX
  8
4.106034
 10
26.343870
 20
 12.634988
  0
VERTEX
  8
3.413838
 10
24.542925
 20
 11.426655
  0
VERTEX
  8
3.413838
 10
24.542925
 20
 11.426655
  0
VERTEX
  8
2.754944
 10
22.466698
 20
 10.148789
  0
VERTEX
  8
2.754944
 10
22.466698
 20
 10.148789
  0
VERTEX
  8
2.145059
 10
20.171236
 20
 8.835975
  0
VERTEX
  8
2.145059
 10
20.171236
 20
 8.835975
  0
VERTEX
  8
1.596937
 10
17.720896
 20
 7.523124
  0
VERTEX
  8
1.596937
 10
17.720896
 20
 7.523124
  0
VERTEX
  8
1.119910
 10
15.188774
 20
 6.245203
  0
VERTEX
  8
1.119910
 10
15.188774
 20
 6.245203
  0
VERTEX
  8
0.719335
 10
12.655672
 20
 5.036355
  0
VERTEX
  8
0.719335
 10
12.655672
 20
 5.036355
  0
VERTEX
  8
0.396056
 10
10.206044
 20
 3.927940
  0
VERTEX
  8
0.396056
 10
10.206044
 20
 3.927940
  0
VERTEX
  8
0.146158
 10
7.919578
 20
 2.945273
  0
VERTEX
  8
0.146158
 10
7.919578
 20
 2.945273
  0
VERTEX
  8
-0.038551
 10
5.859206
 20
 2.103712
  0
VERTEX
  8
-0.038551
 10
5.859206
 20
 2.103712
  0
VERTEX
  8
-0.169098
 10
4.060255
 20
 1.406038
  0
VERTEX
  8
-0.169098
 10
4.060255
 20
 1.406038
  0
VERTEX
  8
-0.257280
 10
2.527091
 20
 0.843129
  0
VERTEX
  8
-0.257280
 10
2.527091
 20
 0.843129
  0
VERTEX
  8
-0.313786
 10
1.239352
 20
 0.397913
  0
VERTEX
  8
-0.313786
 10
1.239352
 20
 0.397913
  0
VERTEX
  8
-0.347197
 10
0.163309
 20
 0.050393
  0
VERTEX
  8
-0.347197
 10
0.163309
 20
 0.050393
  0
VERTEX
  8
-0.363860
 10
-0.737829
 20
 -0.218506
  0
VERTEX
  8
-0.363860
 10
-0.737829
 20
 -0.218506
  0
VERTEX
  8
-0.368259
 10
-1.497686
 20
 -0.425017
  0
VERTEX
  8
-0.368259
 10
-1.497686
 20
 -0.425017
  0
VERTEX
  8
-0.363523
 10
-2.144252
 20
 -0.582103
  0
VERTEX
  8
-0.363523
 10
-2.144252
 20
 -0.582103
  0
VERTEX
  8
-0.351855
 10
-2.699675
 20
 -0.699770
  0
VERTEX
  8
-0.351855
 10
-2.699675
 20
 -0.699770
  0
VERTEX
  8
-0.334857
 10
-3.181017
 20
 -0.785636
  0
VERTEX
  8
-0.334857
 10
-3.181017
 20
 -0.785636
  0
VERTEX
  8
-0.313748
 10
-3.601259
 20
 -0.845495
  0
VERTEX
  8
-0.313748
 10
-3.601259
 20
 -0.845495
  0
VERTEX
  8
-0.289505
 10
-3.970240
 20
 -0.883779
  0
VERTEX
  8
-0.289505
 10
-3.970240
 20
 -0.883779
  0
VERTEX
  8
-0.262951
 10
-4.295421
 20
 -0.903925
  0
VERTEX
  8
-0.262951
 10
-4.295421
 20
 -0.903925
  0
VERTEX
  8
-0.234818
 10
-4.582478
 20
 -0.908636
  0
VERTEX
  8
-0.234818
 10
-4.582478
 20
 -0.908636
  0
VERTEX
  8
-0.205778
 10
-4.835756
 20
 -0.900082
  0
VERTEX
  8
-0.205778
 10
-4.835756
 20
 -0.900082
  0
VERTEX
  8
-0.176471
 10
-5.058597
 20
 -0.880038
  0
VERTEX
  8
-0.176471
 10
-5.058597
 20
 -0.880038
  0
VERTEX
  8
-0.147514
 10
-5.253593
 20
 -0.849990
  0
VERTEX
  8
-0.147514
 10
-5.253593
 20
 -0.849990
  0
VERTEX
  8
-0.119515
 10
-5.422773
 20
 -0.811210
  0
VERTEX
  8
-0.119515
 10
-5.422773
 20
 -0.811210
  0
VERTEX
  8
-0.093075
 10
-5.567737
 20
 -0.764809
  0
VERTEX
  8
-0.093075
 10
-5.567737
 20
 -0.764809
  0
VERTEX
  8
-0.068791
 10
-5.689768
 20
 -0.711781
  0
VERTEX
  8
-0.068791
 10
-5.689768
 20
 -0.711781
  0
VERTEX
  8
-0.047257
 10
-5.789909
 20
 -0.653027
  0
VERTEX
  8
-0.047257
 10
-5.789909
 20
 -0.653027
  0
VERTEX
  8
-0.029062
 10
-5.869024
 20
 -0.589385
  0
VERTEX
  8
-0.029062
 10
-5.869024
 20
 -0.589385
  0
VERTEX
  8
-0.014793
 10
-5.927847
 20
 -0.521639
  0
VERTEX
  8
-0.014793
 10
-5.927847
 20
 -0.521639
  0
VERTEX
  8
-0.005029
 10
-5.967021
 20
 -0.450536
  0
VERTEX
  8
-0.005029
 10
-5.967021
 20
 -0.450536
  0
VERTEX
  8
-0.000339
 10
-5.987124
 20
 -0.376790
  0
VERTEX
  8
-0.000339
 10
-5.987124
 20
 -0.376790
  0
VERTEX
  8
-0.001282
 10
-5.988693
 20
 -0.301092
  0
VERTEX
  8
-0.001282
 10
-5.988693
 20
 -0.301092
  0
VERTEX
  8
-0.008404
 10
-5.972245
 20
 -0.224114
  0
VERTEX
  8
-0.008404
 10
-5.972245
 20
 -0.224114
  0
VERTEX
  8
-0.022232
 10
-5.938287
 20
 -0.146509
  0
VERTEX
  8
-0.022232
 10
-5.938287
 20
 -0.146509
  0
VERTEX
  8
-0.043276
 10
-5.887330
 20
 -0.068915
  0
VERTEX
  8
-0.043276
 10
-5.887330
 20
 -0.068915
  0
VERTEX
  8
-0.072022
 10
-5.819896
 20
 -0.008545
  0
VERTEX
  8
-0.072022
 10
-5.819896
 20
 -0.008545
  0
VERTEX
  8
-0.108930
 10
-5.736527
 20
 -0.091444
  0
VERTEX
  8
-0.108930
 10
-5.736527
 20
 -0.091444
  0
VERTEX
  8
-0.154435
 10
-5.637790
 20
 -0.177784
  0
VERTEX
  8
-0.154435
 10
-5.637790
 20
 -0.177784
  0
VERTEX
  8
-0.208939
 10
-5.524278
 20
 -0.268176
  0
VERTEX
  8
-0.208939
 10
-5.524278
 20
 -0.268176
  0
VERTEX
  8
-0.272812
 10
-5.396616
 20
 -0.363213
  0
VERTEX
  8
-0.272812
 10
-5.396616
 20
 -0.363213
  0
VERTEX
  8
-0.346387
 10
-5.255460
 20
 -0.463467
  0
VERTEX
  8
-0.346387
 10
-5.255460
 20
 -0.463467
  0
VERTEX
  8
-0.429961
 10
-5.101500
 20
 -0.569488
  0
VERTEX
  8
-0.429961
 10
-5.101500
 20
 -0.569488
  0
VERTEX
  8
-0.523789
 10
-4.935458
 20
 -0.681801
  0
VERTEX
  8
-0.523789
 10
-4.935458
 20
 -0.681801
  0
SEQEND
  8
ORARIE
  0
POLYLINE
  8
-0.073266
 66
     1
  0
VERTEX
  8
-0.073266
 10
4.549700
 20
 3.517057
  0
VERTEX
  8
-0.073266
 10
4.549700
 20
 3.517057
  0
VERTEX
  8
-0.199625
 10
3.009273
 20
 2.277755
  0
VERTEX
  8
-0.199625
 10
3.009273
 20
 2.277755
  0
VERTEX
  8
-0.281422
 10
1.710668
 20
 1.267658
  0
VERTEX
  8
-0.281422
 10
1.710668
 20
 1.267658
  0
VERTEX
  8
-0.330918
 10
0.629567
 20
 0.456670
  0
VERTEX
  8
-0.330918
 10
0.629567
 20
 0.456670
  0
VERTEX
  8
-0.357466
 10
-0.268999
 20
 -0.190968
  0
VERTEX
  8
-0.357466
 10
-0.268999
 20
 -0.190968
  0
VERTEX
  8
-0.367678
 10
-1.020384
 20
 -0.708826
  0
VERTEX
  8
-0.367678
 10
-1.020384
 20
 -0.708826
  0
VERTEX
  8
-0.366068
 10
-1.655158
 20
 -1.124833
  0
VERTEX
  8
-0.366068
 10
-1.655158
 20
 -1.124833
  0
VERTEX
  8
-0.355718
 10
-2.197701
 20
 -1.460789
  0
VERTEX
  8
-0.355718
 10
-2.197701
 20
 -1.460789
  0
VERTEX
  8
-0.338788
 10
-2.666652
 20
 -1.733176
  0
VERTEX
  8
-0.338788
 10
-2.666652
 20
 -1.733176
  0
VERTEX
  8
-0.316868
 10
-3.075975
 20
 -1.954310
  0
VERTEX
  8
-0.316868
 10
-3.075975
 20
 -1.954310
  0
VERTEX
  8
-0.291195
 10
-3.436043
 20
 -2.133386
  0
VERTEX
  8
-0.291195
 10
-3.436043
 20
 -2.133386
  0
VERTEX
  8
-0.262795
 10
-3.754547
 20
 -2.277312
  0
VERTEX
  8
-0.262795
 10
-3.754547
 20
 -2.277312
  0
VERTEX
  8
-0.232566
 10
-4.037194
 20
 -2.391336
  0
VERTEX
  8
-0.232566
 10
-4.037194
 20
 -2.391336
  0
VERTEX
  8
-0.201335
 10
-4.288235
 20
 -2.479499
  0
VERTEX
  8
-0.201335
 10
-4.288235
 20
 -2.479499
  0
VERTEX
  8
-0.169884
 10
-4.510843
 20
 -2.544965
  0
VERTEX
  8
-0.169884
 10
-4.510843
 20
 -2.544965
  0
VERTEX
  8
-0.138975
 10
-4.707393
 20
 -2.590259
  0
VERTEX
  8
-0.138975
 10
-4.707393
 20
 -2.590259
  0
VERTEX
  8
-0.109361
 10
-4.879673
 20
 -2.617434
  0
VERTEX
  8
-0.109361
 10
-4.879673
 20
 -2.617434
  0
VERTEX
  8
-0.081788
 10
-5.029031
 20
 -2.628196
  0
VERTEX
  8
-0.081788
 10
-5.029031
 20
 -2.628196
  0
VERTEX
  8
-0.057004
 10
-5.156488
 20
 -2.624000
  0
VERTEX
  8
-0.057004
 10
-5.156488
 20
 -2.624000
  0
VERTEX
  8
-0.035758
 10
-5.262827
 20
 -2.606112
  0
VERTEX
  8
-0.035758
 10
-5.262827
 20
 -2.606112
  0
VERTEX
  8
-0.018795
 10
-5.348656
 20
 -2.575661
  0
VERTEX
  8
-0.018795
 10
-5.348656
 20
 -2.575661
  0
VERTEX
  8
-0.006862
 10
-5.414457
 20
 -2.533678
  0
VERTEX
  8
-0.006862
 10
-5.414457
 20
 -2.533678
  0
VERTEX
  8
-0.000697
 10
-5.460625
 20
 -2.481121
  0
VERTEX
  8
-0.000697
 10
-5.460625
 20
 -2.481121
  0
VERTEX
  8
-0.001033
 10
-5.487502
 20
 -2.418896
  0
VERTEX
  8
-0.001033
 10
-5.487502
 20
 -2.418896
  0
VERTEX
  8
-0.008591
 10
-5.495393
 20
 -2.347877
  0
VERTEX
  8
-0.008591
 10
-5.495393
 20
 -2.347877
  0
VERTEX
  8
-0.024079
 10
-5.484594
 20
 -2.268911
  0
VERTEX
  8
-0.024079
 10
-5.484594
 20
 -2.268911
  0
VERTEX
  8
-0.048182
 10
-5.455400
 20
 -2.182833
  0
VERTEX
  8
-0.048182
 10
-5.455400
 20
 -2.182833
  0
VERTEX
  8
-0.081568
 10
-5.408120
 20
 -2.090466
  0
VERTEX
  8
-0.081568
 10
-5.408120
 20
 -2.090466
  0
VERTEX
  8
-0.124876
 10
-5.343087
 20
 -1.992629
  0
VERTEX
  8
-0.124876
 10
-5.343087
 20
 -1.992629
  0
VERTEX
  8
-0.178716
 10
-5.260663
 20
 -1.890138
  0
VERTEX
  8
-0.178716
 10
-5.260663
 20
 -1.890138
  0
VERTEX
  8
-0.243663
 10
-5.161248
 20
 -1.783807
  0
VERTEX
  8
-0.243663
 10
-5.161248
 20
 -1.783807
  0
VERTEX
  8
-0.320257
 10
-5.045281
 20
 -1.674449
  0
VERTEX
  8
-0.320257
 10
-5.045281
 20
 -1.674449
  0
VERTEX
  8
-0.408995
 10
-4.913247
 20
 -1.562873
  0
VERTEX
  8
-0.408995
 10
-4.913247
 20
 -1.562873
  0
VERTEX
  8
-0.510333
 10
-4.765676
 20
 -1.449888
  0
VERTEX
  8
-0.510333
 10
-4.765676
 20
 -1.449888
  0
VERTEX
  8
-0.624675
 10
-4.603145
 20
 -1.336295
  0
VERTEX
  8
-0.624675
 10
-4.603145
 20
 -1.336295
  0
VERTEX
  8
-0.752380
 10
-4.426279
 20
 -1.222890
  0
VERTEX
  8
-0.752380
 10
-4.426279
 20
 -1.222890
  0
VERTEX
  8
-0.893749
 10
-4.235752
 20
 -1.110457
  0
VERTEX
  8
-0.893749
 10
-4.235752
 20
 -1.110457
  0
VERTEX
  8
-1.049030
 10
-4.032284
 20
 -0.999769
  0
VERTEX
  8
-1.049030
 10
-4.032284
 20
 -0.999769
  0
VERTEX
  8
-1.218413
 10
-3.816642
 20
 -0.891585
  0
VERTEX
  8
-1.218413
 10
-3.816642
 20
 -0.891585
  0
VERTEX
  8
-1.402027
 10
-3.589635
 20
 -0.786641
  0
VERTEX
  8
-1.402027
 10
-3.589635
 20
 -0.786641
  0
VERTEX
  8
-1.599940
 10
-3.352115
 20
 -0.685656
  0
VERTEX
  8
-1.599940
 10
-3.352115
 20
 -0.685656
  0
VERTEX
  8
-1.812157
 10
-3.104972
 20
 -0.589322
  0
VERTEX
  8
-1.812157
 10
-3.104972
 20
 -0.589322
  0
VERTEX
  8
-2.038618
 10
-2.849134
 20
 -0.498303
  0
VERTEX
  8
-2.038618
 10
-2.849134
 20
 -0.498303
  0
VERTEX
  8
-2.279198
 10
-2.585558
 20
 -0.413232
  0
VERTEX
  8
-2.279198
 10
-2.585558
 20
 -0.413232
  0
VERTEX
  8
-2.533706
 10
-2.315232
 20
 -0.334708
  0
VERTEX
  8
-2.533706
 10
-2.315232
 20
 -0.334708
  0
VERTEX
  8
-2.801884
 10
-2.039168
 20
 -0.263292
  0
VERTEX
  8
-2.801884
 10
-2.039168
 20
 -0.263292
  0
VERTEX
  8
-3.083410
 10
-1.758399
 20
 -0.199505
  0
VERTEX
  8
-3.083410
 10
-1.758399
 20
 -0.199505
  0
VERTEX
  8
-3.377894
 10
-1.473974
 20
 -0.143826
  0
VERTEX
  8
-3.377894
 10
-1.473974
 20
 -0.143826
  0
SEQEND
  8
ORARIE
  0
POLYLINE
  8
-0.316558
 66
     1
  0
VERTEX
  8
-0.316558
 10
-2.378997
 20
 -2.767984
  0
VERTEX
  8
-0.316558
 10
-2.378997
 20
 -2.767984
  0
VERTEX
  8
-0.288529
 10
-2.685821
 20
 -3.071955
  0
VERTEX
  8
-0.288529
 10
-2.685821
 20
 -3.071955
  0
VERTEX
  8
-0.257381
 10
-2.957068
 20
 -3.324682
  0
VERTEX
  8
-0.257381
 10
-2.957068
 20
 -3.324682
  0
VERTEX
  8
-0.224241
 10
-3.197879
 20
 -3.534100
  0
VERTEX
  8
-0.224241
 10
-3.197879
 20
 -3.534100
  0
VERTEX
  8
-0.190147
 10
-3.411960
 20
 -3.706125
  0
VERTEX
  8
-0.190147
 10
-3.411960
 20
 -3.706125
  0
VERTEX
  8
-0.156091
 10
-3.601979
 20
 -3.845228
  0
VERTEX
  8
-0.156091
 10
-3.601979
 20
 -3.845228
  0
VERTEX
  8
-0.123046
 10
-3.769853
 20
 -3.954845
  0
VERTEX
  8
-0.123046
 10
-3.769853
 20
 -3.954845
  0
VERTEX
  8
-0.091978
 10
-3.916949
 20
 -4.037665
  0
VERTEX
  8
-0.091978
 10
-3.916949
 20
 -4.037665
  0
VERTEX
  8
-0.063857
 10
-4.044234
 20
 -4.095839
  0
VERTEX
  8
-0.063857
 10
-4.044234
 20
 -4.095839
  0
VERTEX
  8
-0.039661
 10
-4.152383
 20
 -4.131128
  0
VERTEX
  8
-0.039661
 10
-4.152383
 20
 -4.131128
  0
VERTEX
  8
-0.020372
 10
-4.241860
 20
 -4.145014
  0
VERTEX
  8
-0.020372
 10
-4.241860
 20
 -4.145014
  0
VERTEX
  8
-0.006977
 10
-4.312978
 20
 -4.138777
  0
VERTEX
  8
-0.006977
 10
-4.312978
 20
 -4.138777
  0
VERTEX
  8
-0.000469
 10
-4.365945
 20
 -4.113558
  0
VERTEX
  8
-0.000469
 10
-4.365945
 20
 -4.113558
  0
VERTEX
  8
-0.001834
 10
-4.400901
 20
 -4.070406
  0
VERTEX
  8
-0.001834
 10
-4.400901
 20
 -4.070406
  0
VERTEX
  8
-0.012057
 10
-4.417944
 20
 -4.010303
  0
VERTEX
  8
-0.012057
 10
-4.417944
 20
 -4.010303
  0
VERTEX
  8
-0.032108
 10
-4.417155
 20
 -3.934200
  0
VERTEX
  8
-0.032108
 10
-4.417155
 20
 -3.934200
  0
VERTEX
  8
-0.062946
 10
-4.398612
 20
 -3.843027
  0
VERTEX
  8
-0.062946
 10
-4.398612
 20
 -3.843027
  0
VERTEX
  8
-0.105503
 10
-4.362404
 20
 -3.737714
  0
VERTEX
  8
-0.105503
 10
-4.362404
 20
 -3.737714
  0
VERTEX
  8
-0.160690
 10
-4.308647
 20
 -3.619194
  0
VERTEX
  8
-0.160690
 10
-4.308647
 20
 -3.619194
  0
VERTEX
  8
-0.229382
 10
-4.237486
 20
 -3.488417
  0
VERTEX
  8
-0.229382
 10
-4.237486
 20
 -3.488417
  0
VERTEX
  8
-0.312420
 10
-4.149108
 20
 -3.346352
  0
VERTEX
  8
-0.312420
 10
-4.149108
 20
 -3.346352
  0
VERTEX
  8
-0.410599
 10
-4.043745
 20
 -3.193990
  0
VERTEX
  8
-0.410599
 10
-4.043745
 20
 -3.193990
  0
VERTEX
  8
-0.524669
 10
-3.921679
 20
 -3.032343
  0
VERTEX
  8
-0.524669
 10
-3.921679
 20
 -3.032343
  0
VERTEX
  8
-0.655327
 10
-3.783245
 20
 -2.862450
  0
VERTEX
  8
-0.655327
 10
-3.783245
 20
 -2.862450
  0
VERTEX
  8
-0.803212
 10
-3.628835
 20
 -2.685371
  0
VERTEX
  8
-0.803212
 10
-3.628835
 20
 -2.685371
  0
VERTEX
  8
-0.968900
 10
-3.458896
 20
 -2.502186
  0
VERTEX
  8
-0.968900
 10
-3.458896
 20
 -2.502186
  0
VERTEX
  8
-1.152901
 10
-3.273936
 20
 -2.313994
  0
VERTEX
  8
-1.152901
 10
-3.273936
 20
 -2.313994
  0
VERTEX
  8
-1.355657
 10
-3.074521
 20
 -2.121909
  0
VERTEX
  8
-1.355657
 10
-3.074521
 20
 -2.121909
  0
VERTEX
  8
-1.577533
 10
-2.861276
 20
 -1.927055
  0
VERTEX
  8
-1.577533
 10
-2.861276
 20
 -1.927055
  0
VERTEX
  8
-1.818817
 10
-2.634881
 20
 -1.730564
  0
VERTEX
  8
-1.818817
 10
-2.634881
 20
 -1.730564
  0
VERTEX
  8
-2.079718
 10
-2.396074
 20
 -1.533570
  0
VERTEX
  8
-2.079718
 10
-2.396074
 20
 -1.533570
  0
VERTEX
  8
-2.360360
 10
-2.145648
 20
 -1.337204
  0
VERTEX
  8
-2.360360
 10
-2.145648
 20
 -1.337204
  0
VERTEX
  8
-2.660783
 10
-1.884445
 20
 -1.142591
  0
VERTEX
  8
-2.660783
 10
-1.884445
 20
 -1.142591
  0
VERTEX
  8
-2.980938
 10
-1.613359
 20
 -0.950841
  0
VERTEX
  8
-2.980938
 10
-1.613359
 20
 -0.950841
  0
VERTEX
  8
-3.320689
 10
-1.333328
 20
 -0.763047
  0
VERTEX
  8
-3.320689
 10
-1.333328
 20
 -0.763047
  0
VERTEX
  8
-3.679809
 10
-1.045332
 20
 -0.580280
  0
VERTEX
  8
-3.679809
 10
-1.045332
 20
 -0.580280
  0
VERTEX
  8
-4.057981
 10
-0.750392
 20
 -0.403581
  0
VERTEX
  8
-4.057981
 10
-0.750392
 20
 -0.403581
  0
VERTEX
  8
-4.454796
 10
-0.449560
 20
 -0.233955
  0
VERTEX
  8
-4.454796
 10
-0.449560
 20
 -0.233955
  0
VERTEX
  8
-4.869757
 10
-0.143920
 20
 -0.072370
  0
VERTEX
  8
-4.869757
 10
-0.143920
 20
 -0.072370
  0
VERTEX
  8
-5.302275
 10
0.165419
 20
 0.080251
  0
VERTEX
  8
-5.302275
 10
0.165419
 20
 0.080251
  0
VERTEX
  8
-5.751674
 10
0.477329
 20
 0.223036
  0
VERTEX
  8
-5.751674
 10
0.477329
 20
 0.223036
  0
VERTEX
  8
-6.217189
 10
0.790667
 20
 0.355167
  0
VERTEX
  8
-6.217189
 10
0.790667
 20
 0.355167
  0
VERTEX
  8
-6.697973
 10
1.104278
 20
 0.475886
  0
VERTEX
  8
-6.697973
 10
1.104278
 20
 0.475886
  0
VERTEX
  8
-7.193092
 10
1.417007
 20
 0.584496
  0
VERTEX
  8
-7.193092
 10
1.417007
 20
 0.584496
  0
VERTEX
  8
-7.701537
 10
1.727698
 20
 0.680371
  0
VERTEX
  8
-7.701537
 10
1.727698
 20
 0.680371
  0
VERTEX
  8
-8.222219
 10
2.035202
 20
 0.762956
  0
VERTEX
  8
-8.222219
 10
2.035202
 20
 0.762956
  0
VERTEX
  8
-8.753976
 10
2.338386
 20
 0.831767
  0
VERTEX
  8
-8.753976
 10
2.338386
 20
 0.831767
  0
VERTEX
  8
-9.295580
 10
2.636133
 20
 0.886402
  0
VERTEX
  8
-9.295580
 10
2.636133
 20
 0.886402
  0
SEQEND
  8
ORARIE
  0
POLYLINE
  8
-0.107040
 66
     1
  0
VERTEX
  8
-0.107040
 10
-2.605384
 20
 -4.899822
  0
VERTEX
  8
-0.107040
 10
-2.605384
 20
 -4.899822
  0
VERTEX
  8
-0.075211
 10
-2.709717
 20
 -5.020386
  0
VERTEX
  8
-0.075211
 10
-2.709717
 20
 -5.020386
  0
VERTEX
  8
-0.047431
 10
-2.799280
 20
 -5.109322
  0
VERTEX
  8
-0.047431
 10
-2.799280
 20
 -5.109322
  0
VERTEX
  8
-0.024935
 10
-2.874425
 20
 -5.168518
  0
VERTEX
  8
-0.024935
 10
-2.874425
 20
 -5.168518
  0
VERTEX
  8
-0.008972
 10
-2.935348
 20
 -5.199511
  0
VERTEX
  8
-0.008972
 10
-2.935348
 20
 -5.199511
  0
VERTEX
  8
-0.000802
 10
-2.982135
 20
 -5.203589
  0
VERTEX
  8
-0.000802
 10
-2.982135
 20
 -5.203589
  0
VERTEX
  8
-0.001696
 10
-3.014800
 20
 -5.181878
  0
VERTEX
  8
-0.001696
 10
-3.014800
 20
 -5.181878
  0
VERTEX
  8
-0.012924
 10
-3.033310
 20
 -5.135396
  0
VERTEX
  8
-0.012924
 10
-3.033310
 20
 -5.135396
  0
VERTEX
  8
-0.035757
 10
-3.037610
 20
 -5.065098
  0
VERTEX
  8
-0.035757
 10
-3.037610
 20
 -5.065098
  0
VERTEX
  8
-0.071452
 10
-3.027636
 20
 -4.971915
  0
VERTEX
  8
-0.071452
 10
-3.027636
 20
 -4.971915
  0
VERTEX
  8
-0.121253
 10
-3.003330
 20
 -4.856770
  0
VERTEX
  8
-0.121253
 10
-3.003330
 20
 -4.856770
  0
VERTEX
  8
-0.186377
 10
-2.964653
 20
 -4.720605
  0
VERTEX
  8
-0.186377
 10
-2.964653
 20
 -4.720605
  0
VERTEX
  8
-0.268011
 10
-2.911589
 20
 -4.564391
  0
VERTEX
  8
-0.268011
 10
-2.911589
 20
 -4.564391
  0
VERTEX
  8
-0.367307
 10
-2.844158
 20
 -4.389141
  0
VERTEX
  8
-0.367307
 10
-2.844158
 20
 -4.389141
  0
VERTEX
  8
-0.485366
 10
-2.762418
 20
 -4.195912
  0
VERTEX
  8
-0.485366
 10
-2.762418
 20
 -4.195912
  0
VERTEX
  8
-0.623240
 10
-2.666470
 20
 -3.985816
  0
VERTEX
  8
-0.623240
 10
-2.666470
 20
 -3.985816
  0
VERTEX
  8
-0.781922
 10
-2.556465
 20
 -3.760018
  0
VERTEX
  8
-0.781922
 10
-2.556465
 20
 -3.760018
  0
VERTEX
  8
-0.962337
 10
-2.432602
 20
 -3.519738
  0
VERTEX
  8
-0.962337
 10
-2.432602
 20
 -3.519738
  0
VERTEX
  8
-1.165338
 10
-2.295136
 20
 -3.266252
  0
VERTEX
  8
-1.165338
 10
-2.295136
 20
 -3.266252
  0
VERTEX
  8
-1.391702
 10
-2.144375
 20
 -3.000887
  0
VERTEX
  8
-1.391702
 10
-2.144375
 20
 -3.000887
  0
VERTEX
  8
-1.642116
 10
-1.980682
 20
 -2.725019
  0
VERTEX
  8
-1.642116
 10
-1.980682
 20
 -2.725019
  0
VERTEX
  8
-1.917182
 10
-1.804479
 20
 -2.440074
  0
VERTEX
  8
-1.917182
 10
-1.804479
 20
 -2.440074
  0
VERTEX
  8
-2.217405
 10
-1.616242
 20
 -2.147515
  0
VERTEX
  8
-2.217405
 10
-1.616242
 20
 -2.147515
  0
VERTEX
  8
-2.543190
 10
-1.416507
 20
 -1.848844
  0
VERTEX
  8
-2.543190
 10
-1.416507
 20
 -1.848844
  0
VERTEX
  8
-2.894837
 10
-1.205860
 20
 -1.545592
  0
VERTEX
  8
-2.894837
 10
-1.205860
 20
 -1.545592
  0
VERTEX
  8
-3.272541
 10
-0.984947
 20
 -1.239313
  0
VERTEX
  8
-3.272541
 10
-0.984947
 20
 -1.239313
  0
VERTEX
  8
-3.676384
 10
-0.754464
 20
 -0.931581
  0
VERTEX
  8
-3.676384
 10
-0.754464
 20
 -0.931581
  0
VERTEX
  8
-4.106335
 10
-0.515158
 20
 -0.623978
  0
VERTEX
  8
-4.106335
 10
-0.515158
 20
 -0.623978
  0
VERTEX
  8
-4.562247
 10
-0.267825
 20
 -0.318088
  0
VERTEX
  8
-4.562247
 10
-0.267825
 20
 -0.318088
  0
VERTEX
  8
-5.043855
 10
-0.013308
 20
 -0.015491
  0
VERTEX
  8
-5.043855
 10
-0.013308
 20
 -0.015491
  0
VERTEX
  8
-5.550776
 10
0.247508
 20
 0.282245
  0
VERTEX
  8
-5.550776
 10
0.247508
 20
 0.282245
  0
VERTEX
  8
-6.082508
 10
0.513696
 20
 0.573575
  0
VERTEX
  8
-6.082508
 10
0.513696
 20
 0.573575
  0
VERTEX
  8
-6.638429
 10
0.784295
 20
 0.856983
  0
VERTEX
  8
-6.638429
 10
0.784295
 20
 0.856983
  0
VERTEX
  8
-7.217801
 10
1.058308
 20
 1.130988
  0
VERTEX
  8
-7.217801
 10
1.058308
 20
 1.130988
  0
VERTEX
  8
-7.819765
 10
1.334709
 20
 1.394157
  0
VERTEX
  8
-7.819765
 10
1.334709
 20
 1.394157
  0
VERTEX
  8
-8.443349
 10
1.612450
 20
 1.645109
  0
VERTEX
  8
-8.443349
 10
1.612450
 20
 1.645109
  0
VERTEX
  8
-9.087469
 10
1.890459
 20
 1.882526
  0
VERTEX
  8
-9.087469
 10
1.890459
 20
 1.882526
  0
VERTEX
  8
-9.750928
 10
2.167650
 20
 2.105159
  0
VERTEX
  8
-9.750928
 10
2.167650
 20
 2.105159
  0
VERTEX
  8
-10.432425
 10
2.442924
 20
 2.311835
  0
VERTEX
  8
-10.432425
 10
2.442924
 20
 2.311835
  0
VERTEX
  8
-11.130554
 10
2.715179
 20
 2.501467
  0
VERTEX
  8
-11.130554
 10
2.715179
 20
 2.501467
  0
VERTEX
  8
-11.843812
 10
2.983308
 20
 2.673060
  0
VERTEX
  8
-11.843812
 10
2.983308
 20
 2.673060
  0
VERTEX
  8
-12.570604
 10
3.246211
 20
 2.825718
  0
VERTEX
  8
-12.570604
 10
3.246211
 20
 2.825718
  0
VERTEX
  8
-13.309245
 10
3.502798
 20
 2.958651
  0
VERTEX
  8
-13.309245
 10
3.502798
 20
 2.958651
  0
VERTEX
  8
-14.057969
 10
3.751993
 20
 3.071180
  0
VERTEX
  8
-14.057969
 10
3.751993
 20
 3.071180
  0
VERTEX
  8
-14.814936
 10
3.992745
 20
 3.162746
  0
VERTEX
  8
-14.814936
 10
3.992745
 20
 3.162746
  0
VERTEX
  8
-15.578236
 10
4.224029
 20
 3.232912
  0
VERTEX
  8
-15.578236
 10
4.224029
 20
 3.232912
  0
VERTEX
  8
-16.345899
 10
4.444854
 20
 3.281370
  0
VERTEX
  8
-16.345899
 10
4.444854
 20
 3.281370
  0
VERTEX
  8
-17.115898
 10
4.654273
 20
 3.307944
  0
VERTEX
  8
-17.115898
 10
4.654273
 20
 3.307944
  0
SEQEND
  8
ORARIE
  0
POLYLINE
  8
-0.010386
 66
     1
  0
VERTEX
  8
-0.010386
 10
-1.475156
 20
 -5.780801
  0
VERTEX
  8
-0.010386
 10
-1.475156
 20
 -5.780801
  0
VERTEX
  8
-0.001052
 10
-1.502151
 20
 -5.805574
  0
VERTEX
  8
-0.001052
 10
-1.502151
 20
 -5.805574
  0
VERTEX
  8
-0.001642
 10
-1.521363
 20
 -5.798980
  0
VERTEX
  8
-0.001642
 10
-1.521363
 20
 -5.798980
  0
VERTEX
  8
-0.013654
 10
-1.532737
 20
 -5.762024
  0
VERTEX
  8
-0.013654
 10
-1.532737
 20
 -5.762024
  0
VERTEX
  8
-0.038591
 10
-1.536199
 20
 -5.695623
  0
VERTEX
  8
-0.038591
 10
-1.536199
 20
 -5.695623
  0
VERTEX
  8
-0.077950
 10
-1.531672
 20
 -5.600653
  0
VERTEX
  8
-0.077950
 10
-1.531672
 20
 -5.600653
  0
VERTEX
  8
-0.133217
 10
-1.519078
 20
 -5.477985
  0
VERTEX
  8
-0.133217
 10
-1.519078
 20
 -5.477985
  0
VERTEX
  8
-0.205859
 10
-1.498347
 20
 -5.328510
  0
VERTEX
  8
-0.205859
 10
-1.498347
 20
 -5.328510
  0
VERTEX
  8
-0.297314
 10
-1.469426
 20
 -5.153160
  0
VERTEX
  8
-0.297314
 10
-1.469426
 20
 -5.153160
  0
VERTEX
  8
-0.408979
 10
-1.432278
 20
 -4.952924
  0
VERTEX
  8
-0.408979
 10
-1.432278
 20
 -4.952924
  0
VERTEX
  8
-0.542208
 10
-1.386890
 20
 -4.728858
  0
VERTEX
  8
-0.542208
 10
-1.386890
 20
 -4.728858
  0
VERTEX
  8
-0.698300
 10
-1.333276
 20
 -4.482091
  0
VERTEX
  8
-0.698300
 10
-1.333276
 20
 -4.482091
  0
VERTEX
  8
-0.878488
 10
-1.271476
 20
 -4.213832
  0
VERTEX
  8
-0.878488
 10
-1.271476
 20
 -4.213832
  0
VERTEX
  8
-1.083935
 10
-1.201562
 20
 -3.925372
  0
VERTEX
  8
-1.083935
 10
-1.201562
 20
 -3.925372
  0
VERTEX
  8
-1.315724
 10
-1.123638
 20
 -3.618086
  0
VERTEX
  8
-1.315724
 10
-1.123638
 20
 -3.618086
  0
VERTEX
  8
-1.574851
 10
-1.037840
 20
 -3.293428
  0
VERTEX
  8
-1.574851
 10
-1.037840
 20
 -3.293428
  0
VERTEX
  8
-1.862215
 10
-0.944342
 20
 -2.952935
  0
VERTEX
  8
-1.862215
 10
-0.944342
 20
 -2.952935
  0
VERTEX
  8
-2.178617
 10
-0.843349
 20
 -2.598217
  0
VERTEX
  8
-2.178617
 10
-0.843349
 20
 -2.598217
  0
VERTEX
  8
-2.524746
 10
-0.735105
 20
 -2.230960
  0
VERTEX
  8
-2.524746
 10
-0.735105
 20
 -2.230960
  0
VERTEX
  8
-2.901178
 10
-0.619889
 20
 -1.852915
  0
VERTEX
  8
-2.901178
 10
-0.619889
 20
 -1.852915
  0
VERTEX
  8
-3.308371
 10
-0.498015
 20
 -1.465893
  0
VERTEX
  8
-3.308371
 10
-0.498015
 20
 -1.465893
  0
VERTEX
  8
-3.746655
 10
-0.369835
 20
 -1.071761
  0
VERTEX
  8
-3.746655
 10
-0.369835
 20
 -1.071761
  0
VERTEX
  8
-4.216232
 10
-0.235734
 20
 -0.672431
  0
VERTEX
  8
-4.216232
 10
-0.235734
 20
 -0.672431
  0
VERTEX
  8
-4.717173
 10
-0.096133
 20
 -0.269855
  0
VERTEX
  8
-4.717173
 10
-0.096133
 20
 -0.269855
  0
VERTEX
  8
-5.249410
 10
0.048515
 20
 0.133985
  0
VERTEX
  8
-5.249410
 10
0.048515
 20
 0.133985
  0
VERTEX
  8
-5.812738
 10
0.197720
 20
 0.537086
  0
VERTEX
  8
-5.812738
 10
0.197720
 20
 0.537086
  0
VERTEX
  8
-6.406809
 10
0.350966
 20
 0.937431
  0
VERTEX
  8
-6.406809
 10
0.350966
 20
 0.937431
  0
VERTEX
  8
-7.031137
 10
0.507702
 20
 1.333000
  0
VERTEX
  8
-7.031137
 10
0.507702
 20
 1.333000
  0
VERTEX
  8
-7.685089
 10
0.667349
 20
 1.721782
  0
VERTEX
  8
-7.685089
 10
0.667349
 20
 1.721782
  0
VERTEX
  8
-8.367894
 10
0.829303
 20
 2.101780
  0
VERTEX
  8
-8.367894
 10
0.829303
 20
 2.101780
  0
VERTEX
  8
-9.078636
 10
0.992930
 20
 2.471022
  0
VERTEX
  8
-9.078636
 10
0.992930
 20
 2.471022
  0
VERTEX
  8
-9.816261
 10
1.157575
 20
 2.827575
  0
VERTEX
  8
-9.816261
 10
1.157575
 20
 2.827575
  0
VERTEX
  8
-10.579577
 10
1.322560
 20
 3.169550
  0
VERTEX
  8
-10.579577
 10
1.322560
 20
 3.169550
  0
VERTEX
  8
-11.367258
 10
1.487184
 20
 3.495115
  0
VERTEX
  8
-11.367258
 10
1.487184
 20
 3.495115
  0
VERTEX
  8
-12.177844
 10
1.650730
 20
 3.802504
  0
VERTEX
  8
-12.177844
 10
1.650730
 20
 3.802504
  0
VERTEX
  8
-13.009751
 10
1.812463
 20
 4.090027
  0
VERTEX
  8
-13.009751
 10
1.812463
 20
 4.090027
  0
VERTEX
  8
-13.861272
 10
1.971631
 20
 4.356079
  0
VERTEX
  8
-13.861272
 10
1.971631
 20
 4.356079
  0
VERTEX
  8
-14.730581
 10
2.127472
 20
 4.599151
  0
VERTEX
  8
-14.730581
 10
2.127472
 20
 4.599151
  0
VERTEX
  8
-15.615745
 10
2.279210
 20
 4.817840
  0
VERTEX
  8
-15.615745
 10
2.279210
 20
 4.817840
  0
VERTEX
  8
-16.514724
 10
2.426060
 20
 5.010854
  0
VERTEX
  8
-16.514724
 10
2.426060
 20
 5.010854
  0
VERTEX
  8
-17.425382
 10
2.567229
 20
 5.177029
  0
VERTEX
  8
-17.425382
 10
2.567229
 20
 5.177029
  0
VERTEX
  8
-18.345493
 10
2.701915
 20
 5.315330
  0
VERTEX
  8
-18.345493
 10
2.701915
 20
 5.315330
  0
VERTEX
  8
-19.272753
 10
2.829314
 20
 5.424866
  0
VERTEX
  8
-19.272753
 10
2.829314
 20
 5.424866
  0
VERTEX
  8
-20.204782
 10
2.948616
 20
 5.504897
  0
VERTEX
  8
-20.204782
 10
2.948616
 20
 5.504897
  0
VERTEX
  8
ORARIE
 10
0.000000
 20
 0.000000
  0
VERTEX
  8
ORARIE
 10
0.000000
 20
 0.000000
  0
VERTEX
  8
ORARIE
 10
0.000000
 20
 0.000000
  0
VERTEX
  8
ORARIE
 10
0.000000
 20
 0.000000
  0
SEQEND
  8
ORARIE
  0
POLYLINE
  8
-0.000152
 66
     1
  0
VERTEX
  8
-0.000152
 10
0.000000
 20
 -5.999540
  0
VERTEX
  8
-0.000152
 10
0.000000
 20
 -5.999540
  0
VERTEX
  8
-0.003956
 10
0.000000
 20
 -5.988683
  0
VERTEX
  8
-0.003956
 10
0.000000
 20
 -5.988683
  0
VERTEX
  8
-0.020049
 10
0.000000
 20
 -5.945706
  0
VERTEX
  8
-0.020049
 10
0.000000
 20
 -5.945706
  0
VERTEX
  8
-0.050023
 10
0.000000
 20
 -5.871484
  0
VERTEX
  8
-0.050023
 10
0.000000
 20
 -5.871484
  0
VERTEX
  8
-0.095465
 10
0.000000
 20
 -5.766859
  0
VERTEX
  8
-0.095465
 10
0.000000
 20
 -5.766859
  0
VERTEX
  8
-0.157950
 10
0.000000
 20
 -5.632676
  0
VERTEX
  8
-0.157950
 10
0.000000
 20
 -5.632676
  0
VERTEX
  8
-0.239032
 10
0.000000
 20
 -5.469809
  0
VERTEX
  8
-0.239032
 10
0.000000
 20
 -5.469809
  0
VERTEX
  8
-0.340233
 10
0.000000
 20
 -5.279183
  0
VERTEX
  8
-0.340233
 10
0.000000
 20
 -5.279183
  0
VERTEX
  8
-0.463037
 10
0.000000
 20
 -5.061789
  0
VERTEX
  8
-0.463037
 10
0.000000
 20
 -5.061789
  0
VERTEX
  8
-0.608877
 10
0.000000
 20
 -4.818694
  0
VERTEX
  8
-0.608877
 10
0.000000
 20
 -4.818694
  0
VERTEX
  8
-0.779129
 10
0.000000
 20
 -4.551051
  0
VERTEX
  8
-0.779129
 10
0.000000
 20
 -4.551051
  0
VERTEX
  8
-0.975100
 10
0.000000
 20
 -4.260102
  0
VERTEX
  8
-0.975100
 10
0.000000
 20
 -4.260102
  0
VERTEX
  8
-1.198021
 10
0.000000
 20
 -3.947185
  0
VERTEX
  8
-1.198021
 10
0.000000
 20
 -3.947185
  0
VERTEX
  8
-1.449040
 10
0.000000
 20
 -3.613727
  0
VERTEX
  8
-1.449040
 10
0.000000
 20
 -3.613727
  0
VERTEX
  8
-1.729211
 10
0.000000
 20
 -3.261253
  0
VERTEX
  8
-1.729211
 10
0.000000
 20
 -3.261253
  0
VERTEX
  8
-2.039485
 10
0.000000
 20
 -2.891375
  0
VERTEX
  8
-2.039485
 10
0.000000
 20
 -2.891375
  0
VERTEX
  8
-2.380707
 10
0.000000
 20
 -2.505797
  0
VERTEX
  8
-2.380707
 10
0.000000
 20
 -2.505797
  0
VERTEX
  8
-2.753608
 10
0.000000
 20
 -2.106302
  0
VERTEX
  8
-2.753608
 10
0.000000
 20
 -2.106302
  0
VERTEX
  8
-3.158795
 10
0.000000
 20
 -1.694753
  0
VERTEX
  8
-3.158795
 10
0.000000
 20
 -1.694753
  0
VERTEX
  8
-3.596748
 10
0.000000
 20
 -1.273084
  0
VERTEX
  8
-3.596748
 10
0.000000
 20
 -1.273084
  0
VERTEX
  8
-4.067816
 10
0.000000
 20
 -0.843296
  0
VERTEX
  8
-4.067816
 10
0.000000
 20
 -0.843296
  0
VERTEX
  8
-4.572208
 10
0.000000
 20
 -0.407444
  0
VERTEX
  8
-4.572208
 10
0.000000
 20
 -0.407444
  0
VERTEX
  8
-5.109993
 10
0.000000
 20
 0.032367
  0
VERTEX
  8
-5.109993
 10
0.000000
 20
 0.032367
  0
VERTEX
  8
-5.681096
 10
0.000000
 20
 0.473990
  0
VERTEX
  8
-5.681096
 10
0.000000
 20
 0.473990
  0
VERTEX
  8
-6.285293
 10
0.000000
 20
 0.915250
  0
VERTEX
  8
-6.285293
 10
0.000000
 20
 0.915250
  0
VERTEX
  8
-6.922210
 10
0.000000
 20
 1.353947
  0
VERTEX
  8
-6.922210
 10
0.000000
 20
 1.353947
  0
VERTEX
  8
-7.591324
 10
0.000000
 20
 1.787870
  0
VERTEX
  8
-7.591324
 10
0.000000
 20
 1.787870
  0
VERTEX
  8
-8.291958
 10
0.000000
 20
 2.214805
  0
VERTEX
  8
-8.291958
 10
0.000000
 20
 2.214805
  0
VERTEX
  8
-9.023287
 10
0.000000
 20
 2.632547
  0
VERTEX
  8
-9.023287
 10
0.000000
 20
 2.632547
  0
VERTEX
  8
-9.784332
 10
0.000000
 20
 3.038908
  0
VERTEX
  8
-9.784332
 10
0.000000
 20
 3.038908
  0
VERTEX
  8
-10.573967
 10
0.000000
 20
 3.431726
  0
VERTEX
  8
-10.573967
 10
0.000000
 20
 3.431726
  0
VERTEX
  8
-11.390920
 10
0.000000
 20
 3.808880
  0
VERTEX
  8
-11.390920
 10
0.000000
 20
 3.808880
  0
VERTEX
  8
-12.233775
 10
0.000000
 20
 4.168295
  0
VERTEX
  8
-12.233775
 10
0.000000
 20
 4.168295
  0
VERTEX
  8
-13.100975
 10
0.000000
 20
 4.507954
  0
VERTEX
  8
-13.100975
 10
0.000000
 20
 4.507954
  0
VERTEX
  8
-13.990831
 10
0.000000
 20
 4.825908
  0
VERTEX
  8
-13.990831
 10
0.000000
 20
 4.825908
  0
VERTEX
  8
-14.901521
 10
0.000000
 20
 5.120284
  0
VERTEX
  8
-14.901521
 10
0.000000
 20
 5.120284
  0
VERTEX
  8
-15.831100
 10
0.000000
 20
 5.389296
  0
VERTEX
  8
-15.831100
 10
0.000000
 20
 5.389296
  0
VERTEX
  8
-16.777506
 10
0.000000
 20
 5.631251
  0
VERTEX
  8
-16.777506
 10
0.000000
 20
 5.631251
  0
VERTEX
  8
-17.738565
 10
0.000000
 20
 5.844561
  0
VERTEX
  8
-17.738565
 10
0.000000
 20
 5.844561
  0
VERTEX
  8
-18.712001
 10
0.000000
 20
 6.027747
  0
VERTEX
  8
-18.712001
 10
0.000000
 20
 6.027747
  0
VERTEX
  8
-19.695441
 10
0.000000
 20
 6.179449
  0
VERTEX
  8
-19.695441
 10
0.000000
 20
 6.179449
  0
VERTEX
  8
ORARIE
 10
0.000000
 20
 0.000000
  0
VERTEX
  8
ORARIE
 10
0.000000
 20
 0.000000
  0
VERTEX
  8
ORARIE
 10
0.000000
 20
 0.000000
  0
VERTEX
  8
ORARIE
 10
0.000000
 20
 0.000000
  0
VERTEX
  8
ORARIE
 10
0.000000
 20
 0.000000
  0
VERTEX
  8
ORARIE
 10
0.000000
 20
 0.000000
  0
VERTEX
  8
ORARIE
 10
0.000000
 20
 0.000000
  0
SEQEND
  8
ORARIE
  0
POLYLINE
  8
-0.010386
 66
     1
  0
VERTEX
  8
-0.010386
 10
1.475156
 20
 -5.780801
  0
VERTEX
  8
-0.010386
 10
1.475156
 20
 -5.780801
  0
VERTEX
  8
-0.001052
 10
1.502151
 20
 -5.805574
  0
VERTEX
  8
-0.001052
 10
1.502151
 20
 -5.805574
  0
VERTEX
  8
-0.001642
 10
1.521363
 20
 -5.798980
  0
VERTEX
  8
-0.001642
 10
1.521363
 20
 -5.798980
  0
VERTEX
  8
-0.013654
 10
1.532737
 20
 -5.762024
  0
VERTEX
  8
-0.013654
 10
1.532737
 20
 -5.762024
  0
VERTEX
  8
-0.038591
 10
1.536199
 20
 -5.695623
  0
VERTEX
  8
-0.038591
 10
1.536199
 20
 -5.695623
  0
VERTEX
  8
-0.077950
 10
1.531672
 20
 -5.600653
  0
VERTEX
  8
-0.077950
 10
1.531672
 20
 -5.600653
  0
VERTEX
  8
-0.133217
 10
1.519078
 20
 -5.477985
  0
VERTEX
  8
-0.133217
 10
1.519078
 20
 -5.477985
  0
VERTEX
  8
-0.205859
 10
1.498347
 20
 -5.328510
  0
VERTEX
  8
-0.205859
 10
1.498347
 20
 -5.328510
  0
VERTEX
  8
-0.297314
 10
1.469426
 20
 -5.153160
  0
VERTEX
  8
-0.297314
 10
1.469426
 20
 -5.153160
  0
VERTEX
  8
-0.408979
 10
1.432278
 20
 -4.952924
  0
VERTEX
  8
-0.408979
 10
1.432278
 20
 -4.952924
  0
VERTEX
  8
-0.542208
 10
1.386890
 20
 -4.728858
  0
VERTEX
  8
-0.542208
 10
1.386890
 20
 -4.728858
  0
VERTEX
  8
-0.698300
 10
1.333276
 20
 -4.482091
  0
VERTEX
  8
-0.698300
 10
1.333276
 20
 -4.482091
  0
VERTEX
  8
-0.878488
 10
1.271476
 20
 -4.213832
  0
VERTEX
  8
-0.878488
 10
1.271476
 20
 -4.213832
  0
VERTEX
  8
-1.083935
 10
1.201562
 20
 -3.925372
  0
VERTEX
  8
-1.083935
 10
1.201562
 20
 -3.925372
  0
VERTEX
  8
-1.315724
 10
1.123638
 20
 -3.618086
  0
VERTEX
  8
-1.315724
 10
1.123638
 20
 -3.618086
  0
VERTEX
  8
-1.574851
 10
1.037840
 20
 -3.293428
  0
VERTEX
  8
-1.574851
 10
1.037840
 20
 -3.293428
  0
VERTEX
  8
-1.862215
 10
0.944342
 20
 -2.952935
  0
VERTEX
  8
-1.862215
 10
0.944342
 20
 -2.952935
  0
VERTEX
  8
-2.178617
 10
0.843349
 20
 -2.598217
  0
VERTEX
  8
-2.178617
 10
0.843349
 20
 -2.598217
  0
VERTEX
  8
-2.524746
 10
0.735105
 20
 -2.230960
  0
VERTEX
  8
-2.524746
 10
0.735105
 20
 -2.230960
  0
VERTEX
  8
-2.901178
 10
0.619889
 20
 -1.852915
  0
VERTEX
  8
-2.901178
 10
0.619889
 20
 -1.852915
  0
VERTEX
  8
-3.308371
 10
0.498015
 20
 -1.465893
  0
VERTEX
  8
-3.308371
 10
0.498015
 20
 -1.465893
  0
VERTEX
  8
-3.746655
 10
0.369835
 20
 -1.071761
  0
VERTEX
  8
-3.746655
 10
0.369835
 20
 -1.071761
  0
VERTEX
  8
-4.216232
 10
0.235734
 20
 -0.672431
  0
VERTEX
  8
-4.216232
 10
0.235734
 20
 -0.672431
  0
VERTEX
  8
-4.717173
 10
0.096133
 20
 -0.269855
  0
VERTEX
  8
-4.717173
 10
0.096133
 20
 -0.269855
  0
VERTEX
  8
-5.249410
 10
-0.048515
 20
 0.133985
  0
VERTEX
  8
-5.249410
 10
-0.048515
 20
 0.133985
  0
VERTEX
  8
-5.812738
 10
-0.197720
 20
 0.537086
  0
VERTEX
  8
-5.812738
 10
-0.197720
 20
 0.537086
  0
VERTEX
  8
-6.406809
 10
-0.350966
 20
 0.937431
  0
VERTEX
  8
-6.406809
 10
-0.350966
 20
 0.937431
  0
VERTEX
  8
-7.031137
 10
-0.507702
 20
 1.333000
  0
VERTEX
  8
-7.031137
 10
-0.507702
 20
 1.333000
  0
VERTEX
  8
-7.685089
 10
-0.667349
 20
 1.721782
  0
VERTEX
  8
-7.685089
 10
-0.667349
 20
 1.721782
  0
VERTEX
  8
-8.367894
 10
-0.829303
 20
 2.101780
  0
VERTEX
  8
-8.367894
 10
-0.829303
 20
 2.101780
  0
VERTEX
  8
-9.078636
 10
-0.992930
 20
 2.471022
  0
VERTEX
  8
-9.078636
 10
-0.992930
 20
 2.471022
  0
VERTEX
  8
-9.816261
 10
-1.157575
 20
 2.827575
  0
VERTEX
  8
-9.816261
 10
-1.157575
 20
 2.827575
  0
VERTEX
  8
-10.579577
 10
-1.322560
 20
 3.169550
  0
VERTEX
  8
-10.579577
 10
-1.322560
 20
 3.169550
  0
VERTEX
  8
-11.367258
 10
-1.487184
 20
 3.495115
  0
VERTEX
  8
-11.367258
 10
-1.487184
 20
 3.495115
  0
VERTEX
  8
-12.177844
 10
-1.650730
 20
 3.802504
  0
VERTEX
  8
-12.177844
 10
-1.650730
 20
 3.802504
  0
VERTEX
  8
-13.009751
 10
-1.812463
 20
 4.090027
  0
VERTEX
  8
-13.009751
 10
-1.812463
 20
 4.090027
  0
VERTEX
  8
-13.861272
 10
-1.971631
 20
 4.356079
  0
VERTEX
  8
-13.861272
 10
-1.971631
 20
 4.356079
  0
VERTEX
  8
-14.730581
 10
-2.127472
 20
 4.599151
  0
VERTEX
  8
-14.730581
 10
-2.127472
 20
 4.599151
  0
VERTEX
  8
-15.615745
 10
-2.279210
 20
 4.817840
  0
VERTEX
  8
-15.615745
 10
-2.279210
 20
 4.817840
  0
VERTEX
  8
-16.514724
 10
-2.426060
 20
 5.010854
  0
VERTEX
  8
-16.514724
 10
-2.426060
 20
 5.010854
  0
VERTEX
  8
-17.425382
 10
-2.567229
 20
 5.177029
  0
VERTEX
  8
-17.425382
 10
-2.567229
 20
 5.177029
  0
VERTEX
  8
-18.345493
 10
-2.701915
 20
 5.315330
  0
VERTEX
  8
-18.345493
 10
-2.701915
 20
 5.315330
  0
VERTEX
  8
-19.272753
 10
-2.829314
 20
 5.424866
  0
VERTEX
  8
-19.272753
 10
-2.829314
 20
 5.424866
  0
VERTEX
  8
-20.204782
 10
-2.948616
 20
 5.504897
  0
VERTEX
  8
-20.204782
 10
-2.948616
 20
 5.504897
  0
VERTEX
  8
ORARIE
 10
0.000000
 20
 0.000000
  0
VERTEX
  8
ORARIE
 10
0.000000
 20
 0.000000
  0
VERTEX
  8
ORARIE
 10
0.000000
 20
 0.000000
  0
VERTEX
  8
ORARIE
 10
0.000000
 20
 0.000000
  0
SEQEND
  8
ORARIE
  0
POLYLINE
  8
-0.107040
 66
     1
  0
VERTEX
  8
-0.107040
 10
2.605384
 20
 -4.899822
  0
VERTEX
  8
-0.107040
 10
2.605384
 20
 -4.899822
  0
VERTEX
  8
-0.075211
 10
2.709717
 20
 -5.020386
  0
VERTEX
  8
-0.075211
 10
2.709717
 20
 -5.020386
  0
VERTEX
  8
-0.047431
 10
2.799280
 20
 -5.109322
  0
VERTEX
  8
-0.047431
 10
2.799280
 20
 -5.109322
  0
VERTEX
  8
-0.024935
 10
2.874425
 20
 -5.168518
  0
VERTEX
  8
-0.024935
 10
2.874425
 20
 -5.168518
  0
VERTEX
  8
-0.008972
 10
2.935348
 20
 -5.199511
  0
VERTEX
  8
-0.008972
 10
2.935348
 20
 -5.199511
  0
VERTEX
  8
-0.000802
 10
2.982135
 20
 -5.203589
  0
VERTEX
  8
-0.000802
 10
2.982135
 20
 -5.203589
  0
VERTEX
  8
-0.001696
 10
3.014800
 20
 -5.181878
  0
VERTEX
  8
-0.001696
 10
3.014800
 20
 -5.181878
  0
VERTEX
  8
-0.012924
 10
3.033310
 20
 -5.135396
  0
VERTEX
  8
-0.012924
 10
3.033310
 20
 -5.135396
  0
VERTEX
  8
-0.035757
 10
3.037610
 20
 -5.065098
  0
VERTEX
  8
-0.035757
 10
3.037610
 20
 -5.065098
  0
VERTEX
  8
-0.071452
 10
3.027636
 20
 -4.971915
  0
VERTEX
  8
-0.071452
 10
3.027636
 20
 -4.971915
  0
VERTEX
  8
-0.121253
 10
3.003330
 20
 -4.856770
  0
VERTEX
  8
-0.121253
 10
3.003330
 20
 -4.856770
  0
VERTEX
  8
-0.186377
 10
2.964653
 20
 -4.720605
  0
VERTEX
  8
-0.186377
 10
2.964653
 20
 -4.720605
  0
VERTEX
  8
-0.268011
 10
2.911589
 20
 -4.564391
  0
VERTEX
  8
-0.268011
 10
2.911589
 20
 -4.564391
  0
VERTEX
  8
-0.367307
 10
2.844158
 20
 -4.389141
  0
VERTEX
  8
-0.367307
 10
2.844158
 20
 -4.389141
  0
VERTEX
  8
-0.485366
 10
2.762418
 20
 -4.195912
  0
VERTEX
  8
-0.485366
 10
2.762418
 20
 -4.195912
  0
VERTEX
  8
-0.623240
 10
2.666470
 20
 -3.985816
  0
VERTEX
  8
-0.623240
 10
2.666470
 20
 -3.985816
  0
VERTEX
  8
-0.781922
 10
2.556465
 20
 -3.760018
  0
VERTEX
  8
-0.781922
 10
2.556465
 20
 -3.760018
  0
VERTEX
  8
-0.962337
 10
2.432602
 20
 -3.519738
  0
VERTEX
  8
-0.962337
 10
2.432602
 20
 -3.519738
  0
VERTEX
  8
-1.165338
 10
2.295136
 20
 -3.266252
  0
VERTEX
  8
-1.165338
 10
2.295136
 20
 -3.266252
  0
VERTEX
  8
-1.391702
 10
2.144375
 20
 -3.000887
  0
VERTEX
  8
-1.391702
 10
2.144375
 20
 -3.000887
  0
VERTEX
  8
-1.642116
 10
1.980682
 20
 -2.725019
  0
VERTEX
  8
-1.642116
 10
1.980682
 20
 -2.725019
  0
VERTEX
  8
-1.917182
 10
1.804479
 20
 -2.440074
  0
VERTEX
  8
-1.917182
 10
1.804479
 20
 -2.440074
  0
VERTEX
  8
-2.217405
 10
1.616242
 20
 -2.147515
  0
VERTEX
  8
-2.217405
 10
1.616242
 20
 -2.147515
  0
VERTEX
  8
-2.543190
 10
1.416507
 20
 -1.848844
  0
VERTEX
  8
-2.543190
 10
1.416507
 20
 -1.848844
  0
VERTEX
  8
-2.894837
 10
1.205860
 20
 -1.545592
  0
VERTEX
  8
-2.894837
 10
1.205860
 20
 -1.545592
  0
VERTEX
  8
-3.272541
 10
0.984947
 20
 -1.239313
  0
VERTEX
  8
-3.272541
 10
0.984947
 20
 -1.239313
  0
VERTEX
  8
-3.676384
 10
0.754464
 20
 -0.931581
  0
VERTEX
  8
-3.676384
 10
0.754464
 20
 -0.931581
  0
VERTEX
  8
-4.106335
 10
0.515158
 20
 -0.623978
  0
VERTEX
  8
-4.106335
 10
0.515158
 20
 -0.623978
  0
VERTEX
  8
-4.562247
 10
0.267825
 20
 -0.318088
  0
VERTEX
  8
-4.562247
 10
0.267825
 20
 -0.318088
  0
VERTEX
  8
-5.043855
 10
0.013308
 20
 -0.015491
  0
VERTEX
  8
-5.043855
 10
0.013308
 20
 -0.015491
  0
VERTEX
  8
-5.550776
 10
-0.247508
 20
 0.282245
  0
VERTEX
  8
-5.550776
 10
-0.247508
 20
 0.282245
  0
VERTEX
  8
-6.082508
 10
-0.513696
 20
 0.573575
  0
VERTEX
  8
-6.082508
 10
-0.513696
 20
 0.573575
  0
VERTEX
  8
-6.638429
 10
-0.784295
 20
 0.856983
  0
VERTEX
  8
-6.638429
 10
-0.784295
 20
 0.856983
  0
VERTEX
  8
-7.217801
 10
-1.058308
 20
 1.130988
  0
VERTEX
  8
-7.217801
 10
-1.058308
 20
 1.130988
  0
VERTEX
  8
-7.819765
 10
-1.334709
 20
 1.394157
  0
VERTEX
  8
-7.819765
 10
-1.334709
 20
 1.394157
  0
VERTEX
  8
-8.443349
 10
-1.612450
 20
 1.645109
  0
VERTEX
  8
-8.443349
 10
-1.612450
 20
 1.645109
  0
VERTEX
  8
-9.087469
 10
-1.890459
 20
 1.882526
  0
VERTEX
  8
-9.087469
 10
-1.890459
 20
 1.882526
  0
VERTEX
  8
-9.750928
 10
-2.167650
 20
 2.105159
  0
VERTEX
  8
-9.750928
 10
-2.167650
 20
 2.105159
  0
VERTEX
  8
-10.432425
 10
-2.442924
 20
 2.311835
  0
VERTEX
  8
-10.432425
 10
-2.442924
 20
 2.311835
  0
VERTEX
  8
-11.130554
 10
-2.715179
 20
 2.501467
  0
VERTEX
  8
-11.130554
 10
-2.715179
 20
 2.501467
  0
VERTEX
  8
-11.843812
 10
-2.983308
 20
 2.673060
  0
VERTEX
  8
-11.843812
 10
-2.983308
 20
 2.673060
  0
VERTEX
  8
-12.570604
 10
-3.246211
 20
 2.825718
  0
VERTEX
  8
-12.570604
 10
-3.246211
 20
 2.825718
  0
VERTEX
  8
-13.309245
 10
-3.502798
 20
 2.958651
  0
VERTEX
  8
-13.309245
 10
-3.502798
 20
 2.958651
  0
VERTEX
  8
-14.057969
 10
-3.751993
 20
 3.071180
  0
VERTEX
  8
-14.057969
 10
-3.751993
 20
 3.071180
  0
VERTEX
  8
-14.814936
 10
-3.992745
 20
 3.162746
  0
VERTEX
  8
-14.814936
 10
-3.992745
 20
 3.162746
  0
VERTEX
  8
-15.578236
 10
-4.224029
 20
 3.232912
  0
VERTEX
  8
-15.578236
 10
-4.224029
 20
 3.232912
  0
VERTEX
  8
-16.345899
 10
-4.444854
 20
 3.281370
  0
VERTEX
  8
-16.345899
 10
-4.444854
 20
 3.281370
  0
VERTEX
  8
-17.115898
 10
-4.654273
 20
 3.307944
  0
VERTEX
  8
-17.115898
 10
-4.654273
 20
 3.307944
  0
SEQEND
  8
ORARIE
  0
POLYLINE
  8
-0.316558
 66
     1
  0
VERTEX
  8
-0.316558
 10
2.378997
 20
 -2.767984
  0
VERTEX
  8
-0.316558
 10
2.378997
 20
 -2.767984
  0
VERTEX
  8
-0.288529
 10
2.685821
 20
 -3.071955
  0
VERTEX
  8
-0.288529
 10
2.685821
 20
 -3.071955
  0
VERTEX
  8
-0.257381
 10
2.957068
 20
 -3.324682
  0
VERTEX
  8
-0.257381
 10
2.957068
 20
 -3.324682
  0
VERTEX
  8
-0.224241
 10
3.197879
 20
 -3.534100
  0
VERTEX
  8
-0.224241
 10
3.197879
 20
 -3.534100
  0
VERTEX
  8
-0.190147
 10
3.411960
 20
 -3.706125
  0
VERTEX
  8
-0.190147
 10
3.411960
 20
 -3.706125
  0
VERTEX
  8
-0.156091
 10
3.601979
 20
 -3.845228
  0
VERTEX
  8
-0.156091
 10
3.601979
 20
 -3.845228
  0
VERTEX
  8
-0.123046
 10
3.769853
 20
 -3.954845
  0
VERTEX
  8
-0.123046
 10
3.769853
 20
 -3.954845
  0
VERTEX
  8
-0.091978
 10
3.916949
 20
 -4.037665
  0
VERTEX
  8
-0.091978
 10
3.916949
 20
 -4.037665
  0
VERTEX
  8
-0.063857
 10
4.044234
 20
 -4.095839
  0
VERTEX
  8
-0.063857
 10
4.044234
 20
 -4.095839
  0
VERTEX
  8
-0.039661
 10
4.152383
 20
 -4.131128
  0
VERTEX
  8
-0.039661
 10
4.152383
 20
 -4.131128
  0
VERTEX
  8
-0.020372
 10
4.241860
 20
 -4.145014
  0
VERTEX
  8
-0.020372
 10
4.241860
 20
 -4.145014
  0
VERTEX
  8
-0.006977
 10
4.312978
 20
 -4.138777
  0
VERTEX
  8
-0.006977
 10
4.312978
 20
 -4.138777
  0
VERTEX
  8
-0.000469
 10
4.365945
 20
 -4.113558
  0
VERTEX
  8
-0.000469
 10
4.365945
 20
 -4.113558
  0
VERTEX
  8
-0.001834
 10
4.400901
 20
 -4.070406
  0
VERTEX
  8
-0.001834
 10
4.400901
 20
 -4.070406
  0
VERTEX
  8
-0.012057
 10
4.417944
 20
 -4.010303
  0
VERTEX
  8
-0.012057
 10
4.417944
 20
 -4.010303
  0
VERTEX
  8
-0.032108
 10
4.417155
 20
 -3.934200
  0
VERTEX
  8
-0.032108
 10
4.417155
 20
 -3.934200
  0
VERTEX
  8
-0.062946
 10
4.398612
 20
 -3.843027
  0
VERTEX
  8
-0.062946
 10
4.398612
 20
 -3.843027
  0
VERTEX
  8
-0.105503
 10
4.362404
 20
 -3.737714
  0
VERTEX
  8
-0.105503
 10
4.362404
 20
 -3.737714
  0
VERTEX
  8
-0.160690
 10
4.308647
 20
 -3.619194
  0
VERTEX
  8
-0.160690
 10
4.308647
 20
 -3.619194
  0
VERTEX
  8
-0.229382
 10
4.237486
 20
 -3.488417
  0
VERTEX
  8
-0.229382
 10
4.237486
 20
 -3.488417
  0
VERTEX
  8
-0.312420
 10
4.149108
 20
 -3.346352
  0
VERTEX
  8
-0.312420
 10
4.149108
 20
 -3.346352
  0
VERTEX
  8
-0.410599
 10
4.043745
 20
 -3.193990
  0
VERTEX
  8
-0.410599
 10
4.043745
 20
 -3.193990
  0
VERTEX
  8
-0.524669
 10
3.921679
 20
 -3.032343
  0
VERTEX
  8
-0.524669
 10
3.921679
 20
 -3.032343
  0
VERTEX
  8
-0.655327
 10
3.783245
 20
 -2.862450
  0
VERTEX
  8
-0.655327
 10
3.783245
 20
 -2.862450
  0
VERTEX
  8
-0.803212
 10
3.628835
 20
 -2.685371
  0
VERTEX
  8
-0.803212
 10
3.628835
 20
 -2.685371
  0
VERTEX
  8
-0.968900
 10
3.458896
 20
 -2.502186
  0
VERTEX
  8
-0.968900
 10
3.458896
 20
 -2.502186
  0
VERTEX
  8
-1.152901
 10
3.273936
 20
 -2.313994
  0
VERTEX
  8
-1.152901
 10
3.273936
 20
 -2.313994
  0
VERTEX
  8
-1.355657
 10
3.074521
 20
 -2.121909
  0
VERTEX
  8
-1.355657
 10
3.074521
 20
 -2.121909
  0
VERTEX
  8
-1.577533
 10
2.861276
 20
 -1.927055
  0
VERTEX
  8
-1.577533
 10
2.861276
 20
 -1.927055
  0
VERTEX
  8
-1.818817
 10
2.634881
 20
 -1.730564
  0
VERTEX
  8
-1.818817
 10
2.634881
 20
 -1.730564
  0
VERTEX
  8
-2.079718
 10
2.396074
 20
 -1.533570
  0
VERTEX
  8
-2.079718
 10
2.396074
 20
 -1.533570
  0
VERTEX
  8
-2.360360
 10
2.145648
 20
 -1.337204
  0
VERTEX
  8
-2.360360
 10
2.145648
 20
 -1.337204
  0
VERTEX
  8
-2.660783
 10
1.884445
 20
 -1.142591
  0
VERTEX
  8
-2.660783
 10
1.884445
 20
 -1.142591
  0
VERTEX
  8
-2.980938
 10
1.613359
 20
 -0.950841
  0
VERTEX
  8
-2.980938
 10
1.613359
 20
 -0.950841
  0
VERTEX
  8
-3.320689
 10
1.333328
 20
 -0.763047
  0
VERTEX
  8
-3.320689
 10
1.333328
 20
 -0.763047
  0
VERTEX
  8
-3.679809
 10
1.045332
 20
 -0.580280
  0
VERTEX
  8
-3.679809
 10
1.045332
 20
 -0.580280
  0
VERTEX
  8
-4.057981
 10
0.750392
 20
 -0.403581
  0
VERTEX
  8
-4.057981
 10
0.750392
 20
 -0.403581
  0
VERTEX
  8
-4.454796
 10
0.449560
 20
 -0.233955
  0
VERTEX
  8
-4.454796
 10
0.449560
 20
 -0.233955
  0
VERTEX
  8
-4.869757
 10
0.143920
 20
 -0.072370
  0
VERTEX
  8
-4.869757
 10
0.143920
 20
 -0.072370
  0
VERTEX
  8
-5.302275
 10
-0.165419
 20
 0.080251
  0
VERTEX
  8
-5.302275
 10
-0.165419
 20
 0.080251
  0
VERTEX
  8
-5.751674
 10
-0.477329
 20
 0.223036
  0
VERTEX
  8
-5.751674
 10
-0.477329
 20
 0.223036
  0
VERTEX
  8
-6.217189
 10
-0.790667
 20
 0.355167
  0
VERTEX
  8
-6.217189
 10
-0.790667
 20
 0.355167
  0
VERTEX
  8
-6.697973
 10
-1.104278
 20
 0.475886
  0
VERTEX
  8
-6.697973
 10
-1.104278
 20
 0.475886
  0
VERTEX
  8
-7.193092
 10
-1.417007
 20
 0.584496
  0
VERTEX
  8
-7.193092
 10
-1.417007
 20
 0.584496
  0
VERTEX
  8
-7.701537
 10
-1.727698
 20
 0.680371
  0
VERTEX
  8
-7.701537
 10
-1.727698
 20
 0.680371
  0
VERTEX
  8
-8.222219
 10
-2.035202
 20
 0.762956
  0
VERTEX
  8
-8.222219
 10
-2.035202
 20
 0.762956
  0
VERTEX
  8
-8.753976
 10
-2.338386
 20
 0.831767
  0
VERTEX
  8
-8.753976
 10
-2.338386
 20
 0.831767
  0
VERTEX
  8
-9.295580
 10
-2.636133
 20
 0.886402
  0
VERTEX
  8
-9.295580
 10
-2.636133
 20
 0.886402
  0
SEQEND
  8
ORARIE
  0
POLYLINE
  8
-0.073266
 66
     1
  0
VERTEX
  8
-0.073266
 10
-4.549700
 20
 3.517057
  0
VERTEX
  8
-0.073266
 10
-4.549700
 20
 3.517057
  0
VERTEX
  8
-0.199625
 10
-3.009273
 20
 2.277755
  0
VERTEX
  8
-0.199625
 10
-3.009273
 20
 2.277755
  0
VERTEX
  8
-0.281422
 10
-1.710668
 20
 1.267658
  0
VERTEX
  8
-0.281422
 10
-1.710668
 20
 1.267658
  0
VERTEX
  8
-0.330918
 10
-0.629567
 20
 0.456670
  0
VERTEX
  8
-0.330918
 10
-0.629567
 20
 0.456670
  0
VERTEX
  8
-0.357466
 10
0.268999
 20
 -0.190968
  0
VERTEX
  8
-0.357466
 10
0.268999
 20
 -0.190968
  0
VERTEX
  8
-0.367678
 10
1.020384
 20
 -0.708826
  0
VERTEX
  8
-0.367678
 10
1.020384
 20
 -0.708826
  0
VERTEX
  8
-0.366068
 10
1.655158
 20
 -1.124833
  0
VERTEX
  8
-0.366068
 10
1.655158
 20
 -1.124833
  0
VERTEX
  8
-0.355718
 10
2.197701
 20
 -1.460789
  0
VERTEX
  8
-0.355718
 10
2.197701
 20
 -1.460789
  0
VERTEX
  8
-0.338788
 10
2.666652
 20
 -1.733176
  0
VERTEX
  8
-0.338788
 10
2.666652
 20
 -1.733176
  0
VERTEX
  8
-0.316868
 10
3.075975
 20
 -1.954310
  0
VERTEX
  8
-0.316868
 10
3.075975
 20
 -1.954310
  0
VERTEX
  8
-0.291195
 10
3.436043
 20
 -2.133386
  0
VERTEX
  8
-0.291195
 10
3.436043
 20
 -2.133386
  0
VERTEX
  8
-0.262795
 10
3.754547
 20
 -2.277312
  0
VERTEX
  8
-0.262795
 10
3.754547
 20
 -2.277312
  0
VERTEX
  8
-0.232566
 10
4.037194
 20
 -2.391336
  0
VERTEX
  8
-0.232566
 10
4.037194
 20
 -2.391336
  0
VERTEX
  8
-0.201335
 10
4.288235
 20
 -2.479499
  0
VERTEX
  8
-0.201335
 10
4.288235
 20
 -2.479499
  0
VERTEX
  8
-0.169884
 10
4.510843
 20
 -2.544965
  0
VERTEX
  8
-0.169884
 10
4.510843
 20
 -2.544965
  0
VERTEX
  8
-0.138975
 10
4.707393
 20
 -2.590259
  0
VERTEX
  8
-0.138975
 10
4.707393
 20
 -2.590259
  0
VERTEX
  8
-0.109361
 10
4.879673
 20
 -2.617434
  0
VERTEX
  8
-0.109361
 10
4.879673
 20
 -2.617434
  0
VERTEX
  8
-0.081788
 10
5.029031
 20
 -2.628196
  0
VERTEX
  8
-0.081788
 10
5.029031
 20
 -2.628196
  0
VERTEX
  8
-0.057004
 10
5.156488
 20
 -2.624000
  0
VERTEX
  8
-0.057004
 10
5.156488
 20
 -2.624000
  0
VERTEX
  8
-0.035758
 10
5.262827
 20
 -2.606112
  0
VERTEX
  8
-0.035758
 10
5.262827
 20
 -2.606112
  0
VERTEX
  8
-0.018795
 10
5.348656
 20
 -2.575661
  0
VERTEX
  8
-0.018795
 10
5.348656
 20
 -2.575661
  0
VERTEX
  8
-0.006862
 10
5.414457
 20
 -2.533678
  0
VERTEX
  8
-0.006862
 10
5.414457
 20
 -2.533678
  0
VERTEX
  8
-0.000697
 10
5.460625
 20
 -2.481121
  0
VERTEX
  8
-0.000697
 10
5.460625
 20
 -2.481121
  0
VERTEX
  8
-0.001033
 10
5.487502
 20
 -2.418896
  0
VERTEX
  8
-0.001033
 10
5.487502
 20
 -2.418896
  0
VERTEX
  8
-0.008591
 10
5.495393
 20
 -2.347877
  0
VERTEX
  8
-0.008591
 10
5.495393
 20
 -2.347877
  0
VERTEX
  8
-0.024079
 10
5.484594
 20
 -2.268911
  0
VERTEX
  8
-0.024079
 10
5.484594
 20
 -2.268911
  0
VERTEX
  8
-0.048182
 10
5.455400
 20
 -2.182833
  0
VERTEX
  8
-0.048182
 10
5.455400
 20
 -2.182833
  0
VERTEX
  8
-0.081568
 10
5.408120
 20
 -2.090466
  0
VERTEX
  8
-0.081568
 10
5.408120
 20
 -2.090466
  0
VERTEX
  8
-0.124876
 10
5.343087
 20
 -1.992629
  0
VERTEX
  8
-0.124876
 10
5.343087
 20
 -1.992629
  0
VERTEX
  8
-0.178716
 10
5.260663
 20
 -1.890138
  0
VERTEX
  8
-0.178716
 10
5.260663
 20
 -1.890138
  0
VERTEX
  8
-0.243663
 10
5.161248
 20
 -1.783807
  0
VERTEX
  8
-0.243663
 10
5.161248
 20
 -1.783807
  0
VERTEX
  8
-0.320257
 10
5.045281
 20
 -1.674449
  0
VERTEX
  8
-0.320257
 10
5.045281
 20
 -1.674449
  0
VERTEX
  8
-0.408995
 10
4.913247
 20
 -1.562873
  0
VERTEX
  8
-0.408995
 10
4.913247
 20
 -1.562873
  0
VERTEX
  8
-0.510333
 10
4.765676
 20
 -1.449888
  0
VERTEX
  8
-0.510333
 10
4.765676
 20
 -1.449888
  0
VERTEX
  8
-0.624675
 10
4.603145
 20
 -1.336295
  0
VERTEX
  8
-0.624675
 10
4.603145
 20
 -1.336295
  0
VERTEX
  8
-0.752380
 10
4.426279
 20
 -1.222890
  0
VERTEX
  8
-0.752380
 10
4.426279
 20
 -1.222890
  0
VERTEX
  8
-0.893749
 10
4.235752
 20
 -1.110457
  0
VERTEX
  8
-0.893749
 10
4.235752
 20
 -1.110457
  0
VERTEX
  8
-1.049030
 10
4.032284
 20
 -0.999769
  0
VERTEX
  8
-1.049030
 10
4.032284
 20
 -0.999769
  0
VERTEX
  8
-1.218413
 10
3.816642
 20
 -0.891585
  0
VERTEX
  8
-1.218413
 10
3.816642
 20
 -0.891585
  0
VERTEX
  8
-1.402027
 10
3.589635
 20
 -0.786641
  0
VERTEX
  8
-1.402027
 10
3.589635
 20
 -0.786641
  0
VERTEX
  8
-1.599940
 10
3.352115
 20
 -0.685656
  0
VERTEX
  8
-1.599940
 10
3.352115
 20
 -0.685656
  0
VERTEX
  8
-1.812157
 10
3.104972
 20
 -0.589322
  0
VERTEX
  8
-1.812157
 10
3.104972
 20
 -0.589322
  0
VERTEX
  8
-2.038618
 10
2.849134
 20
 -0.498303
  0
VERTEX
  8
-2.038618
 10
2.849134
 20
 -0.498303
  0
VERTEX
  8
-2.279198
 10
2.585558
 20
 -0.413232
  0
VERTEX
  8
-2.279198
 10
2.585558
 20
 -0.413232
  0
VERTEX
  8
-2.533706
 10
2.315232
 20
 -0.334708
  0
VERTEX
  8
-2.533706
 10
2.315232
 20
 -0.334708
  0
VERTEX
  8
-2.801884
 10
2.039168
 20
 -0.263292
  0
VERTEX
  8
-2.801884
 10
2.039168
 20
 -0.263292
  0
VERTEX
  8
-3.083410
 10
1.758399
 20
 -0.199505
  0
VERTEX
  8
-3.083410
 10
1.758399
 20
 -0.199505
  0
VERTEX
  8
-3.377894
 10
1.473974
 20
 -0.143826
  0
VERTEX
  8
-3.377894
 10
1.473974
 20
 -0.143826
  0
SEQEND
  8
ORARIE
  0
POLYLINE
  8
5.514858
 66
     1
  0
VERTEX
  8
5.514858
 10
-28.931904
 20
 14.706318
  0
VERTEX
  8
5.514858
 10
-28.931904
 20
 14.706318
  0
VERTEX
  8
4.813237
 10
-27.820904
 20
 13.739537
  0
VERTEX
  8
4.813237
 10
-27.820904
 20
 13.739537
  0
VERTEX
  8
4.106034
 10
-26.343870
 20
 12.634988
  0
VERTEX
  8
4.106034
 10
-26.343870
 20
 12.634988
  0
VERTEX
  8
3.413838
 10
-24.542925
 20
 11.426655
  0
VERTEX
  8
3.413838
 10
-24.542925
 20
 11.426655
  0
VERTEX
  8
2.754944
 10
-22.466698
 20
 10.148789
  0
VERTEX
  8
2.754944
 10
-22.466698
 20
 10.148789
  0
VERTEX
  8
2.145059
 10
-20.171236
 20
 8.835975
  0
VERTEX
  8
2.145059
 10
-20.171236
 20
 8.835975
  0
VERTEX
  8
1.596937
 10
-17.720896
 20
 7.523124
  0
VERTEX
  8
1.596937
 10
-17.720896
 20
 7.523124
  0
VERTEX
  8
1.119910
 10
-15.188774
 20
 6.245203
  0
VERTEX
  8
1.119910
 10
-15.188774
 20
 6.245203
  0
VERTEX
  8
0.719335
 10
-12.655672
 20
 5.036355
  0
VERTEX
  8
0.719335
 10
-12.655672
 20
 5.036355
  0
VERTEX
  8
0.396056
 10
-10.206044
 20
 3.927940
  0
VERTEX
  8
0.396056
 10
-10.206044
 20
 3.927940
  0
VERTEX
  8
0.146158
 10
-7.919578
 20
 2.945273
  0
VERTEX
  8
0.146158
 10
-7.919578
 20
 2.945273
  0
VERTEX
  8
-0.038551
 10
-5.859206
 20
 2.103712
  0
VERTEX
  8
-0.038551
 10
-5.859206
 20
 2.103712
  0
VERTEX
  8
-0.169098
 10
-4.060255
 20
 1.406038
  0
VERTEX
  8
-0.169098
 10
-4.060255
 20
 1.406038
  0
VERTEX
  8
-0.257280
 10
-2.527091
 20
 0.843129
  0
VERTEX
  8
-0.257280
 10
-2.527091
 20
 0.843129
  0
VERTEX
  8
-0.313786
 10
-1.239352
 20
 0.397913
  0
VERTEX
  8
-0.313786
 10
-1.239352
 20
 0.397913
  0
VERTEX
  8
-0.347197
 10
-0.163309
 20
 0.050393
  0
VERTEX
  8
-0.347197
 10
-0.163309
 20
 0.050393
  0
VERTEX
  8
-0.363860
 10
0.737829
 20
 -0.218506
  0
VERTEX
  8
-0.363860
 10
0.737829
 20
 -0.218506
  0
VERTEX
  8
-0.368259
 10
1.497686
 20
 -0.425017
  0
VERTEX
  8
-0.368259
 10
1.497686
 20
 -0.425017
  0
VERTEX
  8
-0.363523
 10
2.144252
 20
 -0.582103
  0
VERTEX
  8
-0.363523
 10
2.144252
 20
 -0.582103
  0
VERTEX
  8
-0.351855
 10
2.699675
 20
 -0.699770
  0
VERTEX
  8
-0.351855
 10
2.699675
 20
 -0.699770
  0
VERTEX
  8
-0.334857
 10
3.181017
 20
 -0.785636
  0
VERTEX
  8
-0.334857
 10
3.181017
 20
 -0.785636
  0
VERTEX
  8
-0.313748
 10
3.601259
 20
 -0.845495
  0
VERTEX
  8
-0.313748
 10
3.601259
 20
 -0.845495
  0
VERTEX
  8
-0.289505
 10
3.970240
 20
 -0.883779
  0
VERTEX
  8
-0.289505
 10
3.970240
 20
 -0.883779
  0
VERTEX
  8
-0.262951
 10
4.295421
 20
 -0.903925
  0
VERTEX
  8
-0.262951
 10
4.295421
 20
 -0.903925
  0
VERTEX
  8
-0.234818
 10
4.582478
 20
 -0.908636
  0
VERTEX
  8
-0.234818
 10
4.582478
 20
 -0.908636
  0
VERTEX
  8
-0.205778
 10
4.835756
 20
 -0.900082
  0
VERTEX
  8
-0.205778
 10
4.835756
 20
 -0.900082
  0
VERTEX
  8
-0.176471
 10
5.058597
 20
 -0.880038
  0
VERTEX
  8
-0.176471
 10
5.058597
 20
 -0.880038
  0
VERTEX
  8
-0.147514
 10
5.253593
 20
 -0.849990
  0
VERTEX
  8
-0.147514
 10
5.253593
 20
 -0.849990
  0
VERTEX
  8
-0.119515
 10
5.422773
 20
 -0.811210
  0
VERTEX
  8
-0.119515
 10
5.422773
 20
 -0.811210
  0
VERTEX
  8
-0.093075
 10
5.567737
 20
 -0.764809
  0
VERTEX
  8
-0.093075
 10
5.567737
 20
 -0.764809
  0
VERTEX
  8
-0.068791
 10
5.689768
 20
 -0.711781
  0
VERTEX
  8
-0.068791
 10
5.689768
 20
 -0.711781
  0
VERTEX
  8
-0.047257
 10
5.789909
 20
 -0.653027
  0
VERTEX
  8
-0.047257
 10
5.789909
 20
 -0.653027
  0
VERTEX
  8
-0.029062
 10
5.869024
 20
 -0.589385
  0
VERTEX
  8
-0.029062
 10
5.869024
 20
 -0.589385
  0
VERTEX
  8
-0.014793
 10
5.927847
 20
 -0.521639
  0
VERTEX
  8
-0.014793
 10
5.927847
 20
 -0.521639
  0
VERTEX
  8
-0.005029
 10
5.967021
 20
 -0.450536
  0
VERTEX
  8
-0.005029
 10
5.967021
 20
 -0.450536
  0
VERTEX
  8
-0.000339
 10
5.987124
 20
 -0.376790
  0
VERTEX
  8
-0.000339
 10
5.987124
 20
 -0.376790
  0
VERTEX
  8
-0.001282
 10
5.988693
 20
 -0.301092
  0
VERTEX
  8
-0.001282
 10
5.988693
 20
 -0.301092
  0
VERTEX
  8
-0.008404
 10
5.972245
 20
 -0.224114
  0
VERTEX
  8
-0.008404
 10
5.972245
 20
 -0.224114
  0
VERTEX
  8
-0.022232
 10
5.938287
 20
 -0.146509
  0
VERTEX
  8
-0.022232
 10
5.938287
 20
 -0.146509
  0
VERTEX
  8
-0.043276
 10
5.887330
 20
 -0.068915
  0
VERTEX
  8
-0.043276
 10
5.887330
 20
 -0.068915
  0
VERTEX
  8
-0.072022
 10
5.819896
 20
 -0.008545
  0
VERTEX
  8
-0.072022
 10
5.819896
 20
 -0.008545
  0
VERTEX
  8
-0.108930
 10
5.736527
 20
 -0.091444
  0
VERTEX
  8
-0.108930
 10
5.736527
 20
 -0.091444
  0
VERTEX
  8
-0.154435
 10
5.637790
 20
 -0.177784
  0
VERTEX
  8
-0.154435
 10
5.637790
 20
 -0.177784
  0
VERTEX
  8
-0.208939
 10
5.524278
 20
 -0.268176
  0
VERTEX
  8
-0.208939
 10
5.524278
 20
 -0.268176
  0
VERTEX
  8
-0.272812
 10
5.396616
 20
 -0.363213
  0
VERTEX
  8
-0.272812
 10
5.396616
 20
 -0.363213
  0
VERTEX
  8
-0.346387
 10
5.255460
 20
 -0.463467
  0
VERTEX
  8
-0.346387
 10
5.255460
 20
 -0.463467
  0
VERTEX
  8
-0.429961
 10
5.101500
 20
 -0.569488
  0
VERTEX
  8
-0.429961
 10
5.101500
 20
 -0.569488
  0
VERTEX
  8
-0.523789
 10
4.935458
 20
 -0.681801
  0
VERTEX
  8
-0.523789
 10
4.935458
 20
 -0.681801
  0
SEQEND
  8
ORARIE
  0
POLYLINE
  8
2.765231
 66
     1
  0
VERTEX
  8
2.765231
 10
-2.645070
 20
 0.792091
  0
VERTEX
  8
2.765231
 10
-2.645070
 20
 0.792091
  0
VERTEX
  8
4.454564
 10
-8.411833
 20
 2.401582
  0
VERTEX
  8
4.454564
 10
-8.411833
 20
 2.401582
  0
VERTEX
  8
5.791470
 10
-13.580536
 20
 3.690466
  0
VERTEX
  8
5.791470
 10
-13.580536
 20
 3.690466
  0
VERTEX
  8
6.804787
 10
-18.145718
 20
 4.684965
  0
VERTEX
  8
6.804787
 10
-18.145718
 20
 4.684965
  0
VERTEX
  8
7.523670
 10
-22.105680
 20
 5.411585
  0
VERTEX
  8
7.523670
 10
-22.105680
 20
 5.411585
  0
VERTEX
  8
7.977402
 10
-25.462507
 20
 5.896954
  0
VERTEX
  8
7.977402
 10
-25.462507
 20
 5.896954
  0
VERTEX
  8
8.195215
 10
-28.222076
 20
 6.167651
  0
VERTEX
  8
8.195215
 10
-28.222076
 20
 6.167651
  0
VERTEX
  8
8.206102
 10
-30.394070
 20
 6.250038
  0
VERTEX
  8
8.206102
 10
-30.394070
 20
 6.250038
  0
VERTEX
  8
8.038638
 10
-31.991966
 20
 6.170099
  0
VERTEX
  8
8.038638
 10
-31.991966
 20
 6.170099
  0
VERTEX
  8
7.720803
 10
-33.033058
 20
 5.953276
  0
VERTEX
  8
7.720803
 10
-33.033058
 20
 5.953276
  0
VERTEX
  8
7.279800
 10
-33.538467
 20
 5.624307
  0
VERTEX
  8
7.279800
 10
-33.538467
 20
 5.624307
  0
VERTEX
  8
6.741890
 10
-33.533173
 20
 5.207071
  0
VERTEX
  8
6.741890
 10
-33.533173
 20
 5.207071
  0
VERTEX
  8
6.132212
 10
-33.046112
 20
 4.724432
  0
VERTEX
  8
6.132212
 10
-33.046112
 20
 4.724432
  0
VERTEX
  8
5.474623
 10
-32.110283
 20
 4.198084
  0
VERTEX
  8
5.474623
 10
-32.110283
 20
 4.198084
  0
VERTEX
  8
4.791516
 10
-30.762974
 20
 3.648395
  0
VERTEX
  8
4.791516
 10
-30.762974
 20
 3.648395
  0
VERTEX
  8
4.103652
 10
-29.046076
 20
 3.094245
  0
VERTEX
  8
4.103652
 10
-29.046076
 20
 3.094245
  0
VERTEX
  8
3.429961
 10
-27.006548
 20
 2.552856
  0
VERTEX
  8
3.429961
 10
-27.006548
 20
 2.552856
  0
VERTEX
  8
2.787335
 10
-24.697031
 20
 2.039592
  0
VERTEX
  8
2.787335
 10
-24.697031
 20
 2.039592
  0
VERTEX
  8
2.190362
 10
-22.176611
 20
 1.567726
  0
VERTEX
  8
2.190362
 10
-22.176611
 20
 1.567726
  0
VERTEX
  8
1.651008
 10
-19.511545
 20
 1.148149
  0
VERTEX
  8
1.651008
 10
-19.511545
 20
 1.148149
  0
VERTEX
  8
1.178214
 10
-16.775595
 20
 0.788999
  0
VERTEX
  8
1.178214
 10
-16.775595
 20
 0.788999
  0
VERTEX
  8
0.777404
 10
-14.049078
 20
 0.495220
  0
VERTEX
  8
0.777404
 10
-14.049078
 20
 0.495220
  0
VERTEX
  8
0.450000
 10
-11.415380
 20
 0.268120
  0
VERTEX
  8
0.450000
 10
-11.415380
 20
 0.268120
  0
VERTEX
  8
0.193149
 10
-8.953627
 20
 0.105118
  0
VERTEX
  8
0.193149
 10
-8.953627
 20
 0.105118
  0
VERTEX
  8
0.000000
 10
-6.727922
 20
 -0.000000
  0
VERTEX
  8
0.000000
 10
-6.727922
 20
 -0.000000
  0
VERTEX
  8
-0.139198
 10
-4.776801
 20
 -0.196954
  0
VERTEX
  8
-0.139198
 10
-4.776801
 20
 -0.196954
  0
VERTEX
  8
-0.235340
 10
-3.108646
 20
 -0.354788
  0
VERTEX
  8
-0.235340
 10
-3.108646
 20
 -0.354788
  0
VERTEX
  8
-0.298712
 10
-1.706008
 20
 -0.482865
  0
VERTEX
  8
-0.298712
 10
-1.706008
 20
 -0.482865
  0
VERTEX
  8
-0.337867
 10
-0.535897
 20
 -0.588972
  0
VERTEX
  8
-0.337867
 10
-0.535897
 20
 -0.588972
  0
VERTEX
  8
-0.359315
 10
0.439715
 20
 -0.679041
  0
VERTEX
  8
-0.359315
 10
0.439715
 20
 -0.679041
  0
VERTEX
  8
-0.367754
 10
1.256821
 20
 -0.757353
  0
VERTEX
  8
-0.367754
 10
1.256821
 20
 -0.757353
  0
VERTEX
  8
-0.366492
 10
1.946130
 20
 -0.826931
  0
VERTEX
  8
-0.366492
 10
1.946130
 20
 -0.826931
  0
VERTEX
  8
-0.357869
 10
2.532375
 20
 -0.889915
  0
VERTEX
  8
-0.357869
 10
2.532375
 20
 -0.889915
  0
VERTEX
  8
-0.343575
 10
3.034864
 20
 -0.947853
  0
VERTEX
  8
-0.343575
 10
3.034864
 20
 -0.947853
  0
VERTEX
  8
-0.324878
 10
3.468446
 20
 -1.001912
  0
VERTEX
  8
-0.324878
 10
3.468446
 20
 -1.001912
  0
VERTEX
  8
-0.302774
 10
3.844477
 20
 -1.053011
  0
VERTEX
  8
-0.302774
 10
3.844477
 20
 -1.053011
  0
VERTEX
  8
-0.278089
 10
4.171647
 20
 -1.101911
  0
VERTEX
  8
-0.278089
 10
4.171647
 20
 -1.101911
  0
VERTEX
  8
-0.251537
 10
4.456629
 20
 -1.149277
  0
VERTEX
  8
-0.251537
 10
4.456629
 20
 -1.149277
  0
VERTEX
  8
-0.223766
 10
4.704583
 20
 -1.195708
  0
VERTEX
  8
-0.223766
 10
4.704583
 20
 -1.195708
  0
VERTEX
  8
-0.195379
 10
4.919528
 20
 -1.241767
  0
VERTEX
  8
-0.195379
 10
4.919528
 20
 -1.241767
  0
VERTEX
  8
-0.166955
 10
5.104627
 20
 -1.287991
  0
VERTEX
  8
-0.166955
 10
5.104627
 20
 -1.287991
  0
VERTEX
  8
-0.139058
 10
5.262392
 20
 -1.334905
  0
VERTEX
  8
-0.139058
 10
5.262392
 20
 -1.334905
  0
VERTEX
  8
-0.112242
 10
5.394845
 20
 -1.383023
  0
VERTEX
  8
-0.112242
 10
5.394845
 20
 -1.383023
  0
VERTEX
  8
-0.087054
 10
5.503639
 20
 -1.432856
  0
VERTEX
  8
-0.087054
 10
5.503639
 20
 -1.432856
  0
VERTEX
  8
-0.064039
 10
5.590146
 20
 -1.484908
  0
VERTEX
  8
-0.064039
 10
5.590146
 20
 -1.484908
  0
VERTEX
  8
-0.043736
 10
5.655526
 20
 -1.539680
  0
VERTEX
  8
-0.043736
 10
5.655526
 20
 -1.539680
  0
VERTEX
  8
-0.026680
 10
5.700785
 20
 -1.597669
  0
VERTEX
  8
-0.026680
 10
5.700785
 20
 -1.597669
  0
VERTEX
  8
-0.013400
 10
5.726810
 20
 -1.659365
  0
VERTEX
  8
-0.013400
 10
5.726810
 20
 -1.659365
  0
SEQEND
  8
ORARIE
  0
ENDSEC
  0
EOF
